<?xml version="1.0" encoding="utf-8" ?>
<svg xmlns="http://www.w3.org/2000/svg" xmlns:xlink="http://www.w3.org/1999/xlink" width="566" height="492">
	<path d="M226.306 438.149C245.074 441.008 257.203 456.012 239.298 468.124C221.745 479.999 185.086 482.098 164.945 474.395C146.294 467.262 140.009 451.456 162.212 442.255C167.77 439.952 173.72 438.541 179.681 437.826C181.777 437.575 183.974 437.85 186.043 437.429C193.689 435.873 200.979 432.297 209.072 433.933C209.39 432.954 208.856 431.123 208.748 430.035L206.747 412.396C205.681 402.093 205.334 394.217 205.366 383.704C199.94 382.226 194.625 381.038 189.299 379.139C139.558 361.404 103.011 318.816 94.6423 266.063C92.6054 253.223 92.3653 239.902 92.6923 226.926L93.1546 217.461C91.8959 219.876 89.5409 222.356 87.6404 224.315C73.9221 238.457 54.9612 246.153 35.4734 248.084C34.494 248.181 32.9387 248.61 32.0251 248.178L31.2095 247.694C24.9781 244.124 31.2458 236.824 34.4077 238.715L35.1019 239.268C36.3552 238.637 38.9086 236.422 40.9445 235.263L46.5061 231.73C58.4352 223.584 68.84 213.014 77.3219 201.361L100.669 167.566C104.739 162.553 105.252 161.804 107.355 155.377L111.178 144.569C136.023 81.0595 187.015 30.8155 254.34 16.3464C270.01 12.9786 283.032 10.751 299.171 12.276C371.511 19.1116 422.73 75.459 446.029 140.531C448.833 148.362 450.145 150.072 455.732 156.408L466.89 169.427L492.075 204.264C500.463 215.158 518.048 232.226 530.805 238.12C532.253 238.789 534.156 238.692 535.461 239.444C539.116 241.551 537.265 248.329 532.836 248.474C511.579 249.172 482.141 232.484 471.31 214.967C476.376 248.653 466.52 283.964 448.848 312.662L444.366 319.376C443.409 320.935 442.932 322.746 442.088 324.371C426.137 355.087 385.54 380.258 351.031 385.397L343.221 386.35C346.197 399.156 349.012 422.574 347.677 435.785C353.554 434.427 352.605 434.396 358.725 434.488C360.427 434.514 376.548 432.264 373.668 436.719L372.561 438.063C376.249 439.376 380.049 439.312 383.897 439.877C393.448 441.278 407.369 444.716 411.872 454.301C419.599 470.746 389.246 477.298 378.18 477.795C362.179 478.514 323.226 474.187 319.061 455.803C313.383 445.235 334.146 438.093 341.076 436.521L341.836 435.752C340.512 431.099 338.823 426.671 337.859 421.901C335.561 410.533 335.508 399.033 334.757 387.526C325.778 388.458 316.658 388.465 307.78 390.065C297.319 391.95 286.637 391.629 276.058 391.644L251.333 391.428C239.474 390.765 225.584 389.071 214.306 385.592C217.472 405.886 218.759 414.886 216.142 436.369L222.164 437.358C223.457 437.466 225.127 437.599 226.306 438.149ZM272.175 20.8813C257.75 21.1605 255.193 21.4008 241.83 26.307C185.988 46.8107 137.334 97.3434 117.165 153.141C111.515 168.771 105.303 193.263 103.482 209.376C94.7071 287.009 122.853 340.625 200.079 367.995C230.774 378.874 260.8 383.411 293.105 383.196L307.416 383.126C313.632 383.179 314.376 383.266 320.38 381.955L334.266 379.011C368.785 371.641 402.049 360.43 427.528 334.587C438.165 323.799 444.597 314.869 450.218 300.728C466.47 259.849 468.725 219.79 452.387 179.139L430.31 126.646C402.332 62.0139 343.658 20.1945 273.225 20.8656L272.175 20.8813ZM337.31 453.156C333.569 454.542 327.326 457.315 325.509 461.267L325.082 462.383C327.81 463.394 330.168 465.154 332.965 466.15C345.955 470.773 386.589 474.712 396.527 461.805L395.408 460.075C387.576 449.567 373.379 445.993 360.936 448.274L350.434 450.249C346.111 451.123 341.446 451.562 337.31 453.156ZM237.089 458.418C233.896 456.407 230.252 455.289 226.861 453.693C217.008 451.495 206.886 450.033 196.892 448.591L188.658 447.47C187.54 447.328 186.3 447.363 185.224 447.066C181.633 446.075 163.917 455.593 160.995 458.41C167.144 463.952 180.107 467.82 188.621 468.312L196.238 468.955C210.344 469.457 225.853 467.774 237.089 458.418ZM453.663 165.701C457.542 175.765 464.807 191.779 470.491 200.585C472.924 204.355 483.612 217.663 487.98 219.572L488.16 219.603C472.466 202.185 465.941 184.598 453.663 165.701ZM102.36 181.183C97.3832 194.174 89.0534 209.06 79.9229 219.715L80.0813 219.88C89.829 210.377 95.3327 202.149 99.9951 188.96C100.875 186.472 102.115 183.936 102.528 181.321L102.36 181.183Z"/>
	<path fill="#FFD404" d="M222.164 437.358C223.457 437.466 225.127 437.599 226.306 438.149L226.332 438.586C238.751 440.989 248.926 447.365 237.089 458.418C233.896 456.407 230.252 455.289 226.861 453.693C225.393 452.583 222.88 452.049 221.124 451.462L203.165 446.14C199.211 445.143 195.167 444.476 191.302 443.173C198.217 439.505 206.686 437.286 214.564 438.248L214.875 438.289C217.156 436.944 219.404 437.648 221.923 437.822L222.164 437.358Z"/>
	<path fill="#FFD404" d="M319.061 455.803C313.383 445.235 334.146 438.093 341.076 436.521C342.544 437.337 343.757 438.453 345.019 439.547C351.637 436.55 360.93 438.155 367.684 440.689L369.171 441.285L337.168 451.773C336.975 452.353 337.146 452.59 337.31 453.156C333.569 454.542 327.326 457.315 325.509 461.267L325.082 462.383C322.059 460.953 320.766 458.481 319.061 455.803Z"/>
	<path d="M339.293 84.1438C345.488 83.1867 353.618 85.7269 358.886 88.9127C392.132 109.02 382.459 167.5 345.665 176.221C345.441 176.114 342.831 176.409 342.388 176.432C305.231 178.339 295.213 122.805 317.698 96.4624C323.676 89.4595 329.839 84.902 339.293 84.1438ZM340.517 92.4384C294.07 95.1306 305.591 165.666 342.905 169.37C365.18 169.486 372.069 154.59 372.15 134.517C372.222 116.806 361.938 91.997 340.927 92.4192L340.517 92.4384Z"/>
	<path fill="#FFD404" d="M340.517 92.4384L340.927 92.4192C361.938 91.997 372.222 116.806 372.15 134.517C372.069 154.59 365.18 169.486 342.905 169.37C305.591 165.666 294.07 95.1306 340.517 92.4384ZM347.694 113.776L344.424 112.11C335.526 107.927 328.765 109.37 324.96 118.836C318.114 135.862 332.505 156.915 348.104 149.884C360.321 144.378 361.309 118.487 348.272 113.952L347.694 113.776Z"/>
	<path d="M347.694 113.776L348.272 113.952C361.309 118.487 360.321 144.378 348.104 149.884C332.505 156.915 318.114 135.862 324.96 118.836C328.765 109.37 335.526 107.927 344.424 112.11L347.694 113.776ZM344.424 112.11C340.027 114.574 337.499 118.78 340.197 123.415C346.023 133.418 362.733 126.306 347.694 113.776L344.424 112.11Z"/>
	<path d="M229.801 105.135C247.663 102.71 269.287 120.174 273.73 136.672C280.048 160.133 267.278 190.201 242.867 196.747L241.13 197.09C204.23 204.516 183.187 148.769 208.662 117.539C213.811 111.228 221.565 105.966 229.801 105.135ZM239.404 109.871L239.183 110C236.39 111.561 232.724 111.78 229.678 112.797C196.825 123.768 197.531 178.227 229.661 187.47C230.713 187.772 231.888 188.146 232.981 188.227C272.574 192.758 280.652 116.068 240.038 109.66L239.404 109.871Z"/>
	<path fill="#FFD404" d="M239.404 109.871L240.038 109.66C280.652 116.068 272.574 192.758 232.981 188.227C231.888 188.146 230.713 187.772 229.661 187.47C197.531 178.227 196.825 123.768 229.678 112.797C232.724 111.78 236.39 111.561 239.183 110L239.404 109.871ZM234.167 129.18C226.684 130.163 220.223 146.299 221.018 152.437C222.305 162.383 232.194 171.629 242.323 171.771C257.987 169.531 264.878 130.861 234.167 129.18Z"/>
	<path d="M234.167 129.18C264.878 130.861 257.987 169.531 242.323 171.771C232.194 171.629 222.305 162.383 221.018 152.437C220.223 146.299 226.684 130.163 234.167 129.18ZM244.053 133.642C237.173 140.27 239.384 148.267 249.28 147.704C259.411 144.004 247.707 132.624 244.053 133.642Z"/>
	<path d="M398.207 205.507C408.539 204.387 399.028 225.637 397.489 229.416C379.315 274.034 345.697 294.414 300.142 302.571C254.851 310.682 206.932 302.654 173.085 269.972C169.813 266.719 160.381 256.374 160.272 251.761L160.27 251.39C160.234 248.779 161.707 247.104 164.317 246.576C167.375 245.958 171.794 252.197 173.883 254.159C193.16 272.266 241.906 275.18 267.109 274.242L273.005 273.727C277.156 273.48 281.322 273.613 285.463 273.156C325.886 268.702 372.398 255.409 391.29 215.914C392.672 213.025 394.547 206.277 398.207 205.507ZM294.177 282.023C291.76 282.404 289.777 282.937 287.57 284.031C288.987 285.811 292.55 291.291 294.511 291.745C301.721 294.022 302.248 280.761 294.479 281.974L294.177 282.023ZM324.13 276.49C315.407 278.186 323.964 285.497 326.374 285.22L326.804 285.162C332.435 282.085 330.492 275.789 324.13 276.49ZM255.702 283.944C250.406 286.953 258.532 293.785 261.582 292.708C266.48 289.634 262.553 283.289 255.994 283.921L255.702 283.944ZM354.127 264.381C350.674 266.102 349.2 269.56 353.335 270.774C355.93 270.023 357.922 265.749 354.994 264.262L354.127 264.381ZM226.265 282.624C223.642 285.686 227.457 287.283 230.352 287.148L231.181 286.927C231.606 284.473 228.704 281.812 226.265 282.624Z"/>
</svg>
