<?xml version="1.0" encoding="utf-8" ?>
<svg xmlns="http://www.w3.org/2000/svg" xmlns:xlink="http://www.w3.org/1999/xlink" width="566" height="492">
	<path d="M411.014 474.709C392.002 479.798 371.967 481.525 352.436 483.732L298.048 489.323L242.876 489.468L234.264 488.804C212.357 487.562 190.854 485.061 169.35 480.656C162.64 479.281 155.593 478.13 149.096 475.969C135.27 491.541 120.7 490.423 102.083 488.544C88.0116 487.124 73.8242 487.638 59.7541 488.657C50.7954 489.305 41.5325 488.674 33.6087 484.1C20.2753 476.404 18.5993 460.769 26.072 448.121C37.2205 429.251 65.1822 419.982 86.165 424.637C88.1963 425.088 90.2463 425.464 92.0375 426.569L92.3469 426.763C93.0868 424.153 93.4746 421.411 94.0375 418.753L108.347 344.029L112.094 312.55C112.993 304.519 113.325 296.314 115.503 288.498C108.101 288.557 110.845 291.232 107.325 291.688C105.307 291.95 92.8911 289.604 88.9902 289.676L84.7065 289.727C81.2056 289.783 73.5657 290.225 70.5816 290.884C55.9765 294.113 42.0894 309.273 35.9262 322.035L30.9838 333.62C27.3396 342.271 19.3141 350.926 9.46239 344.311C-0.494156 337.625 5.29926 301.786 7.92507 292.324C19.8561 249.33 45.1587 217.109 85.4974 196.597C89.7288 194.445 94.1361 192.522 98.2485 190.153C116.443 179.672 128.643 161.027 133.882 140.911C114.232 138.259 96.1558 117.593 90.4029 99.5056C86.8527 88.344 87.2351 75.9258 84.779 64.4022C81.2491 47.8402 65.5538 19.7102 83.2913 6.41685C89.4992 1.76438 97.5237 0.383762 104.668 3.50157C120.382 10.3588 117.381 27.1048 124.86 35.1353C128.766 39.3303 137.52 46.7099 142.88 49.3046L147.166 51.4192C149.588 52.4848 153.749 53.1743 154.233 56.3865L154.627 56.6176C157.72 55.3271 162.715 58.9777 162.835 62.3144L162.848 62.7402C164.38 62.9846 172.795 51.3201 174.004 49.8959C227.02 -12.5784 328.01 -11.8431 382.293 47.4646C389.065 54.8626 394.567 63.1731 400.318 71.3476C402.762 69.9458 405.493 69.0819 407.83 67.4619C416.336 61.5628 434.78 44.0302 440.524 34.6888C445.566 26.4881 448.969 11.0959 455.886 6.16674C459.601 3.51961 465.429 1.03498 470.05 1.81979L470.845 1.93805C476.78 2.72503 483.062 6.46332 486.656 11.247C498.164 26.5623 479.812 56.5902 478.583 74.1316L478.268 85.4283C476.822 111.404 457.657 137.151 431.134 141.651C432.642 144.541 433.712 147.668 435.036 150.64L439.762 160.372C445.785 171.96 455.186 182.359 466.516 188.922L485.439 199.076C530.668 225.493 562.418 269.93 562.453 323.976C562.459 334.578 561.233 346.954 547.53 346.324C537.907 345.882 535.112 335.372 531.917 328.121C524.763 311.884 510.432 292.576 491.01 291.477C489.546 291.395 487.043 291.88 485.836 291.469C488.617 289.021 479.423 287.357 478.078 287.655L469.686 289.915C467.271 289.08 466.67 289.952 464.297 290.819C463.155 290.238 454.899 291.062 450.928 290.065L453.311 314.41C457.014 344.356 461.813 374.569 469.243 403.827C471.13 411.256 472.663 418.976 475.254 426.193C495.861 417.671 524.306 428.695 534.632 448.128C546.227 469.947 535.932 486.696 510.614 488.892C503.124 489.542 495.256 487.916 487.65 487.896L473.325 488.074C453.296 489.316 425.316 495.154 413.518 474.066L412.699 470.831C410.551 458.896 416.86 444.532 430.387 443.722C433.813 443.517 437.591 443.883 440.946 443.238L441.358 443.154C448.872 441.706 455.93 436.244 462.159 431.974L448.087 364.138L440.848 296.858C440.286 286.287 437.829 284.461 448.045 280.338C454.656 277.67 461.424 275.938 468.54 275.386C476.847 274.743 503.115 275.204 509.523 281.744L508.577 282.06C509.02 282.155 509.403 282.243 509.859 282.25C511.865 282.508 514.297 287.875 516.165 284.282C517.251 284.374 520.958 285.863 520.919 287.204L521.367 286.406C526.134 286.56 542.018 297.672 545.034 303.297C545.863 304.522 546.842 305.061 547.88 306.034C538.93 263.655 510.265 226.687 474.066 203.768C464.998 198.027 455.156 193.365 446.471 187.054C419.516 167.469 411.159 132.844 399.652 103.405C382.574 59.709 352.202 24.7242 304.829 15.9007C304.174 16.4693 303.42 17.0555 302.882 17.7389C298.081 25.6575 292.116 25.1966 284.213 25.9593C247.972 29.4569 211.94 50.041 191.605 80.2258C186.251 88.1744 181.904 96.7408 177.839 105.405L169.839 122.766C167.651 127.517 166.88 133.718 161.513 133.596C158.048 133.042 155.407 131.988 152.394 130.231L151.311 130.343C150.432 131.505 150.112 133.734 149.722 135.165L148.49 138.794C138.886 165.231 128.021 181.879 102.875 195.185C98.4986 197.501 93.953 199.55 89.801 202.265C57.9429 223.102 30.0052 254.334 20.1396 291.655C18.8955 296.361 17.5106 301.194 16.9579 306.038L17.3588 305.971C30.8873 303.751 24.2876 311.664 33.9608 299.711C44.5704 286.601 61.4962 277.418 78.1659 275.485C84.036 274.805 97.5459 274.67 102.782 276.497C109.504 278.843 121.917 277.881 125.155 284.973C125.273 287.005 124.759 289.11 124.573 291.141L123.844 302.353C122.536 327.384 119.678 352.524 115.46 377.236L104.298 434.068C108.027 437.047 113.478 439.199 117.967 440.867C122.226 442.451 121.046 441.109 124.78 440.88C138.242 440.054 146.888 454.834 149.234 466.156L149.498 467.614L196.957 476.079L225.101 479.158C227.975 479.428 230.843 480.009 233.71 480.171L270.011 481.345L323.136 481.366L348.734 480.057L400.981 475.806C404.112 475.464 407.924 474.31 411.014 474.709ZM188.339 55.9674C173.058 73.8442 161.545 95.131 154.221 117.439C153.013 121.118 149.841 126.752 152.394 130.231C155.407 131.988 158.048 133.042 161.513 133.596C166.88 133.718 167.651 127.517 169.839 122.766L177.839 105.405C181.904 96.7408 186.251 88.1744 191.605 80.2258C211.94 50.041 247.972 29.4569 284.213 25.9593C292.116 25.1966 298.081 25.6575 302.882 17.7389C303.42 17.0555 304.174 16.4693 304.829 15.9007L293.404 14.1903L287.177 13.3966C254.763 11.439 224.513 21.6914 200.391 43.1321L188.339 55.9674ZM98.8649 43.6805C100.355 45.6607 101.09 46.7858 103.232 45.1921L103.837 43.8667C104.626 43.6362 105.5 44.1918 106.263 44.497C107.448 45.1752 108.557 45.8436 109.633 46.6899L111.702 48.1941C111.94 48.3995 112.312 48.6583 112.492 48.9108C113.371 49.8729 113.287 51.1127 114.214 52.1294C114.827 51.9866 115.409 51.881 115.954 51.5494L117.816 52.3502C120.023 54.6225 121.505 54.1084 124.286 54.8069C126.483 55.3586 128.541 56.7782 130.834 56.8826C129.118 52.5296 122.989 53.0819 121.516 48.4392L120.732 48.0781L119.285 47.5126C116.472 46.1829 118.425 45.721 118.472 44.2911L116.489 44.0544C114.203 43.1359 114.138 42.6229 113.429 40.4945L113.851 40.0779L114.365 41.0461C115.697 36.1571 109.427 41.9873 109.766 36.0708L108.92 35.9642C107.332 35.8305 100.93 30.9932 100.894 30.1247C100.682 25.0212 98.3506 29.1897 95.2626 23.7483L93.1597 25.8438C93.3507 26.9447 93.8536 26.5134 94.2357 27.2258C94.6564 28.0104 92.8854 29.4819 92.9515 30.0865C92.9601 30.1655 95.9698 33.5551 96.3415 34.088C95.4747 35.217 94.5831 35.8678 94.6558 37.328L95.2085 37.9244C95.6376 37.6467 95.7898 37.397 96.0376 36.955C98.4197 39.8282 98.1685 42.7464 98.8649 43.6805ZM90.9497 12.0236L88.0229 14.6041L88.4237 15.1146C88.7799 15.2015 89.0014 15.2792 89.3116 15.4565L89.4863 16.9989C93.4232 18.7723 89.5308 19.7263 92.9976 21.3075C95.6224 22.5047 97.3133 25.0734 98.0613 23.3562C98.1094 22.6611 98.0918 21.9372 98.3867 21.2951L99.4318 22.2506C100.209 19.3201 97.0742 17.9514 96.4967 15.4787L97.6958 13.9502C96.3473 12.8829 92.5563 11.9051 90.9497 12.0236ZM16.9734 308.329C15.6842 310.276 15.1874 314.745 15.5847 317.085L16.2753 319.109L17.1348 318.223C18.54 319.17 19.2398 320.216 20.1992 318.18C21.9957 313.677 28.8455 308.673 18.2402 309.296L16.9734 308.329ZM549.971 321.32C547.551 322.115 544.503 325.322 549.118 325.403L549.28 325.835C548.588 326.79 547.708 327.772 547.397 328.921L548.624 330.927L549.28 331.899C553.215 330.412 550.459 327.552 550.712 326.171C550.979 324.719 551.107 322.726 550.343 321.396L549.971 321.32ZM477.37 278.457C475.144 278.66 460.28 284.031 459.242 285.352L461.238 285.333C462.91 285.721 464.945 284.973 466.37 284.059L468.058 282.765C471.48 279.868 475.754 280.791 479.138 278.393C478.537 278.375 477.965 278.349 477.37 278.457ZM102.487 66.8915C99.4181 68.8946 101.647 72.5521 103.638 73.5619L105.017 73.3261C105.913 70.254 104.666 68.9399 102.487 66.8915ZM509.859 282.25C509.403 282.243 509.02 282.155 508.577 282.06C505.619 281.811 504.37 281.397 501.745 282.725L501.354 283.315C503.481 286.823 507.688 284.119 509.859 282.25ZM101.989 280.136C100.187 280.822 98.1165 282.976 96.8667 284.448L98.3327 284.98L100.502 285.134C101.432 284.19 103.205 281.531 103.573 280.412L101.989 280.136ZM16.6188 326.572C15.2673 328.159 15.3035 332.156 16.1675 334.094L16.9605 333.482C17.8052 331.458 17.914 329.286 18.1021 327.122L16.6188 326.572ZM138.549 50.7202L138.149 51.4156C138.779 52.5817 140.504 53.8288 141.915 53.4551C142.669 51.3112 140.361 50.0417 138.549 50.7202ZM70.3519 282.228C69.2257 282.538 62.491 285.255 67.3081 284.529C68.9629 284.304 70.3888 284.054 71.7173 282.945L71.6269 282.462C71.1738 282.159 70.883 282.202 70.3519 282.228Z"/>
	<path fill="#121415" d="M501.291 431.757C503.032 431.731 505.143 431.502 506.719 432.363L506.167 433.711L505.337 434.489C504.225 434.447 502.22 432.489 501.291 431.757Z"/>
	<path fill="#E7F6BC" d="M102.737 59.4531C105.221 61.8523 104.902 60.2139 107.248 60.4943L108.198 62.3743C106.486 62.5148 105.493 64.2291 104.51 63.8219L103.914 62.4912C102.215 63.8617 99.549 62.5494 102.416 59.5439L102.737 59.4531Z"/>
	<path fill="#28482A" d="M103.086 52.2409C103.986 52.0949 104.163 52.1258 104.881 52.6993L105.561 53.3949C106.467 53.6607 107.383 54.1147 108.309 53.904C108.309 54.7424 108.295 55.4482 108.585 56.2423C108.7 57.7837 109.415 60.264 107.248 60.4943C104.902 60.2139 105.221 61.8523 102.737 59.4531L102.416 59.5439C101.902 58.2692 101.307 57.2052 101.052 55.8283L100.364 55.5875L99.6826 55.1389C99.6902 54.2289 100.02 54.0095 100.555 53.2952C101.093 52.9173 101.686 52.8003 102.311 52.6369L103.085 52.5747L103.086 52.2409Z"/>
	<path fill="#3C7148" d="M103.086 52.2409C103.986 52.0949 104.163 52.1258 104.881 52.6993L105.561 53.3949L105.486 54.1222C104.013 55.3386 103.663 53.789 103.085 52.5747L103.086 52.2409Z"/>
	<path fill="#121415" d="M101.052 55.8283L102.67 55.8982C103.363 56.7946 103.287 58.4818 102.737 59.4531L102.416 59.5439C101.902 58.2692 101.307 57.2052 101.052 55.8283Z"/>
	<path fill="#82D164" d="M100.555 53.2952C101.093 52.9173 101.686 52.8003 102.311 52.6369C103.125 55.3047 103.077 55.5357 100.364 55.5875L99.6826 55.1389C99.6902 54.2289 100.02 54.0095 100.555 53.2952Z"/>
	<path fill="#2B392B" d="M98.8649 43.6805C100.355 45.6607 101.09 46.7858 103.232 45.1921L103.837 43.8667C104.626 43.6362 105.5 44.1918 106.263 44.497C107.448 45.1752 108.557 45.8436 109.633 46.6899L111.702 48.1941C111.94 48.3995 112.312 48.6583 112.492 48.9108C113.371 49.8729 113.287 51.1127 114.214 52.1294L111.743 52.2387C111.94 53.0407 112.502 54.5338 112.15 55.2593L110.495 54.6668C109.836 54.1662 109.099 54.0717 108.309 53.904C107.383 54.1147 106.467 53.6607 105.561 53.3949L104.881 52.6993C104.163 52.1258 103.986 52.0949 103.086 52.2409L103.085 52.5747L102.311 52.6369C101.686 52.8003 101.093 52.9173 100.555 53.2952L100.55 52.8125C100.418 51.8057 100.076 51.2952 99.2898 50.7382C97.2381 51.3103 99.5053 47.5478 97.6683 49.8466L97.1458 49.891C97.1274 49.1371 97.1484 48.635 97.4854 47.9483L97.6986 47.5416C98.6982 45.5623 98.9446 46.0607 98.8649 43.6805Z"/>
	<path fill="#659165" d="M112.492 48.9108C113.371 49.8729 113.287 51.1127 114.214 52.1294L111.743 52.2387C110.983 50.7514 111.506 50.1358 112.492 48.9108Z"/>
	<path fill="#121415" d="M99.2898 50.7382L101.841 49.9978L103.086 52.2409L103.085 52.5747L102.311 52.6369C101.686 52.8003 101.093 52.9173 100.555 53.2952L100.55 52.8125C100.418 51.8057 100.076 51.2952 99.2898 50.7382Z"/>
	<path fill="#3C7148" d="M106.263 44.497C107.448 45.1752 108.557 45.8436 109.633 46.6899L111.702 48.1941C105.374 47.4513 106.106 48.6195 106.252 44.8582L106.263 44.497Z"/>
	<path fill="white" d="M520.919 287.204L521.367 286.406C526.134 286.56 542.018 297.672 545.034 303.297C545.863 304.522 546.842 305.061 547.88 306.034L547.292 308.606C547.544 311.091 550.884 311.414 548.874 315.639L549.155 316.18C551.564 317.4 551.476 322.362 544.535 319.903C544.674 319.112 545.966 318.116 546.4 317.322L547.209 315.975L546.893 315.793C546.299 315.919 545.817 316.058 545.224 315.835L544.955 315.727C543.753 315.254 542.91 314.936 542.094 313.866L542.328 313.581C542.414 312.98 542.428 312.671 542.204 312.102L541.353 312.613L541.629 313.581C539.509 312.312 542.18 310.099 543.116 308.929C542.494 307.992 541.696 307.194 540.935 306.37C538.118 304.684 537.498 299.689 533.279 300.301L533.866 298.931C531.852 297.108 521.419 288.258 520.919 287.204Z"/>
	<path fill="#3C7148" d="M114.214 52.1294C114.827 51.9866 115.409 51.881 115.954 51.5494L117.816 52.3502C120.023 54.6225 121.505 54.1084 124.286 54.8069C126.483 55.3586 128.541 56.7782 130.834 56.8826C137.047 58.3315 133.717 58.1692 137.225 60.1084L148.194 66.1371C151.31 67.9896 154.187 70.1122 157.503 71.61C151.536 82.0505 146.71 93.4053 142.845 104.792L136.359 124.555C129.575 120.151 112.708 109.833 111.375 101.026L111.342 100.609C111.28 99.9213 110.774 99.1766 110.453 98.5661L108.237 94.2164C107.439 92.5563 107.3 92.6956 108.523 91.1446L107.963 90.1989C107.29 89.0303 107.556 87.5789 107.626 86.2756C107.675 85.2047 107.902 84.6064 107.589 83.5226C106.604 82.0366 105.763 80.7081 106.03 78.926L106.452 78.6265C106.076 77.8598 104.846 76.4859 104.697 75.7937C104.542 75.0718 105.348 74.2901 105.017 73.3261C105.913 70.254 104.666 68.9399 102.487 66.8915C103.779 67.1671 104.293 64.5875 104.51 63.8219C105.493 64.2291 106.486 62.5148 108.198 62.3743L107.248 60.4943C109.415 60.264 108.7 57.7837 108.585 56.2423C108.295 55.4482 108.309 54.7424 108.309 53.904C109.099 54.0717 109.836 54.1662 110.495 54.6668L112.15 55.2593C112.502 54.5338 111.94 53.0407 111.743 52.2387L114.214 52.1294Z"/>
	<path fill="#82D164" d="M106.03 78.926C107.931 80.33 109.53 81.4178 107.589 83.5226C106.604 82.0366 105.763 80.7081 106.03 78.926Z"/>
	<path fill="#28482A" d="M107.626 86.2756C111.002 88.4191 109.581 88.6565 108.523 91.1446L107.963 90.1989C107.29 89.0303 107.556 87.5789 107.626 86.2756Z"/>
	<path fill="#3C7148" d="M467.616 12.5764C468.728 12.3762 469.845 12.7312 470.743 13.3813C478.449 18.9591 470.53 41.9732 467.455 48.8313L463.304 57.0589C459.949 63.1847 460.447 60.4491 461.432 66.0332C460.598 65.8928 460.332 65.4345 459.737 64.8523C455.552 67.0862 456.101 80.6512 457.614 83.9669C459.27 87.5928 459.79 95.6216 458.205 99.3674C452.543 112.746 439.483 125.963 426.226 131.343L424.763 127.745L409.351 86.5084C432.361 71.1805 452.97 51.1517 461.801 24.2118C462.902 20.8539 463.674 13.8865 467.616 12.5764Z"/>
	<path fill="white" d="M188.339 55.9674L200.391 43.1321C224.513 21.6914 254.763 11.439 287.177 13.3966L293.404 14.1903L304.829 15.9007C304.174 16.4693 303.42 17.0555 302.882 17.7389C298.081 25.6575 292.116 25.1966 284.213 25.9593C247.972 29.4569 211.94 50.041 191.605 80.2258C186.251 88.1744 181.904 96.7408 177.839 105.405L169.839 122.766C167.651 127.517 166.88 133.718 161.513 133.596C158.048 133.042 155.407 131.988 152.394 130.231C149.841 126.752 153.013 121.118 154.221 117.439C161.545 95.131 173.058 73.8442 188.339 55.9674ZM188.339 55.9674C190.15 56.8215 190.466 55.85 191.753 54.7022L196.377 50.5718C214.508 34.3416 242.076 21.336 266.417 17.3735L267.247 17.2437C267.861 17.0781 268.29 17.0583 268.905 16.9531L271.528 16.4461C272.31 16.299 273.092 16.6359 273.816 16.1895L273.929 15.4987C274.537 15.2762 275.19 15.2273 275.828 15.0785L293.525 15.3115L293.404 14.1903L287.177 13.3966C254.763 11.439 224.513 21.6914 200.391 43.1321L188.339 55.9674Z"/>
	<path fill="#D1F1A2" d="M293.404 14.2577L304.829 15.9007C304.174 16.4693 303.42 17.0555 302.882 17.7389L302.443 17.4697C294.383 17.7129 286.651 13.9942 278.413 15.4129L273.816 16.1544L273.929 15.4987C274.537 15.2762 275.19 15.2273 275.828 15.1415L293.525 15.3115L293.404 14.2577Z"/>
	<defs>
		<linearGradient id="gradient_0" gradientUnits="userSpaceOnUse" x1="231.05499" y1="23.3561" x2="237.589" y2="36.612801">
			<stop offset="0" stop-color="#B8C8B8"/>
			<stop offset="1" stop-color="#E2EEB9"/>
		</linearGradient>
	</defs>
	<path fill="url(#gradient_0)" d="M188.339 55.9674L200.391 43.1321C224.513 21.6914 254.763 11.439 287.177 13.3966L293.404 14.1903L293.525 15.3115L275.828 15.0785C275.19 15.2273 274.537 15.2762 273.929 15.4987L273.816 16.1895C273.092 16.6359 272.31 16.299 271.528 16.4461L268.905 16.9531C268.29 17.0583 267.861 17.0781 267.247 17.2437L266.417 17.3735C242.076 21.336 214.508 34.3416 196.377 50.5718L191.753 54.7022C190.466 55.85 190.15 56.8215 188.339 55.9674ZM287.177 13.53C282.695 13.8718 278.131 13.9549 273.822 14.2892C272.708 14.3756 272.145 15.0112 270.841 14.9972L275.828 15.0785L293.525 15.3115L293.404 14.1903L287.177 13.53Z"/>
	<path fill="#3C7148" d="M73.9941 431.582C78.8366 430.882 84.7326 431.765 89.4781 432.803L88.7909 436.152C91.9357 436.196 95.4209 435.964 98.5249 436.418C106.577 437.595 117.144 444.147 123.07 449.332L120.047 449.704C112.571 455.34 119.315 457.183 125.828 460.183C130.92 462.529 134.035 465.342 136.899 470.399L131.574 470.162C131.148 470.115 130.928 470.056 130.499 470.164L131.413 470.783C131.297 472.692 131.711 473.645 132.521 475.354L130.925 476.936C126.846 480.505 122.504 480.389 117.423 480.299L106.47 479.757L95.4767 478.98C89.1892 478.468 82.9541 477.791 76.6333 477.895C65.421 478.078 50.5956 483.044 41.1938 475.271C31.4769 467.238 34.1526 455.276 41.657 446.655C49.7497 437.357 61.8988 432.463 73.9941 431.582Z"/>
	<path d="M80.3955 463.392L82.0811 463.268C87.9273 463.428 86.8096 469.854 83.3095 472.399C76.3507 474.351 75.5417 465.19 80.3955 463.392Z"/>
	<path fill="#3C7148" d="M469.429 433.462C476.124 432.655 474.514 435.961 477.727 435.288C495.114 431.643 511.29 443.126 520.827 456.952C522.918 459.985 524.867 463.448 524.106 467.254C520.825 483.654 502.675 479.483 491.158 479.168L477.371 479.295L455.177 480.857C446.311 481.213 435.779 481.863 428.001 476.709C416.914 469.361 422.49 453.98 432.705 448.35C438.02 445.421 444.112 444.871 449.649 442.527C456.403 439.668 462.111 434.804 469.429 433.462Z"/>
	<path fill="#9BE472" d="M304.829 15.9007C352.202 24.7242 382.574 59.709 399.652 103.405C411.159 132.844 419.516 167.469 446.471 187.054C455.156 193.365 464.998 198.027 474.066 203.768C510.265 226.687 538.93 263.655 547.88 306.034C546.842 305.061 545.863 304.522 545.034 303.297C542.018 297.672 526.134 286.56 521.367 286.406L520.919 287.204C520.958 285.863 517.251 284.374 516.165 284.282C514.297 287.875 511.865 282.508 509.859 282.25C509.403 282.243 509.02 282.155 508.577 282.06L509.523 281.744C503.115 275.204 476.847 274.743 468.54 275.386C461.424 275.938 454.656 277.67 448.045 280.338C437.829 284.461 440.286 286.287 440.848 296.858L448.087 364.138L462.159 431.974C455.93 436.244 448.872 441.706 441.358 443.154L440.946 443.238C437.591 443.883 433.813 443.517 430.387 443.722C416.86 444.532 410.551 458.896 412.699 470.831L413.518 474.066C413.09 474.185 411.319 474.827 411.014 474.709C407.924 474.31 404.112 475.464 400.981 475.806L348.734 480.057L323.136 481.366L270.011 481.345L233.71 480.171C230.843 480.009 227.975 479.428 225.101 479.158L196.957 476.079L149.498 467.614L149.234 466.156C146.888 454.834 138.242 440.054 124.78 440.88C121.046 441.109 122.226 442.451 117.967 440.867C113.478 439.199 108.027 437.047 104.298 434.068L115.46 377.236C119.678 352.524 122.536 327.384 123.844 302.353L124.573 291.141C124.759 289.11 125.273 287.005 125.155 284.973C121.917 277.881 109.504 278.843 102.782 276.497C97.5459 274.67 84.036 274.805 78.1659 275.485C61.4962 277.418 44.5704 286.601 33.9608 299.711C24.2876 311.664 30.8873 303.751 17.3588 305.971L16.9579 306.038C17.5106 301.194 18.8955 296.361 20.1396 291.655C30.0052 254.334 57.9429 223.102 89.801 202.265C93.953 199.55 98.4986 197.501 102.875 195.185C128.021 181.879 138.886 165.231 148.49 138.794L149.722 135.165C150.112 133.734 150.432 131.505 151.311 130.343L152.394 130.231C155.407 131.988 158.048 133.042 161.513 133.596C166.88 133.718 167.651 127.517 169.839 122.766L177.839 105.405C181.904 96.7408 186.251 88.1744 191.605 80.2258C211.94 50.041 247.972 29.4569 284.213 25.9593C292.116 25.1966 298.081 25.6575 302.882 17.7389C303.42 17.0555 304.174 16.4693 304.829 15.9007Z"/>
	<path fill="white" d="M149.722 135.165C150.643 135.698 151.563 136.189 152.362 136.899L160.336 139.035L160.791 139.584C159.911 144.292 154.076 147.245 151.818 141.694L151.65 141.25C150.661 140.329 149.479 139.714 148.49 138.794L149.722 135.165Z"/>
	<path fill="#D1F1A2" d="M149.722 135.165C150.643 135.698 151.563 136.189 152.362 136.899C151.939 138.346 151.704 139.744 151.65 141.25C150.661 140.329 149.479 139.714 148.49 138.794L149.722 135.165Z"/>
	<path fill="#82D164" d="M152.394 130.231C155.407 131.988 158.048 133.042 161.513 133.596L161.777 133.658C162.629 133.847 163.297 133.89 164.162 133.788L164.437 134.056C163.632 135.769 161.918 137.966 160.336 139.035L152.362 136.899C151.563 136.189 150.643 135.698 149.722 135.165C150.112 133.734 150.432 131.505 151.311 130.343L152.394 130.231Z"/>
	<path d="M385.703 349.513L385.998 349.667C367.055 372.551 340.113 392.55 311.377 400.482C270.1 411.876 222.524 397.217 191.507 368.811C186.516 364.24 182.284 359.214 178.042 353.969L174.103 348.943C181.177 354.163 187.291 360.62 194.268 366.008C244.552 404.835 306.413 408.544 359.063 371.347C368.441 364.722 376.907 356.873 385.703 349.513Z"/>
	<path d="M318.202 180.064C299.086 173.652 299.606 137.434 304.797 121.99C310.402 105.316 329.92 77.7378 350.974 84.9117C366.001 90.0316 374.984 106.223 381.475 119.644C388.47 134.108 392.738 150.73 387.26 166.455C382.339 180.584 371.139 190.128 356.656 192.929C355.298 193.192 353.704 193.529 352.324 193.384C357.029 191.418 361.982 189.228 366.054 186.122C392.701 165.794 382.249 128.734 364.467 106.147C353.975 92.8209 344.937 86.0825 330.193 97.8991C306.667 116.754 304.002 145.549 314.347 172.129C315.423 174.895 316.29 177.747 318.202 180.064Z"/>
	<path d="M226.089 192.893C222.288 195.946 213.4 192.014 209.836 190.002C173.314 169.384 182.999 93.6403 223.443 83.0796C231.179 81.0594 238.559 83.3018 245.304 87.2624C270.178 101.868 287.534 142.965 271.251 169.811C268.683 174.044 262.08 180.072 257.15 181.104L256.786 181.171C258.816 179.352 260.225 177.203 261.712 174.942C277.029 151.653 270.062 122.657 252.254 102.91C247.076 97.1682 239.233 91.0568 231.181 90.6417C211.828 89.6439 195.13 118.404 194.582 134.825C193.717 160.701 201.524 182.432 226.089 192.893Z"/>
	<path fill="white" d="M318.202 180.064C316.29 177.747 315.423 174.895 314.347 172.129C304.002 145.549 306.667 116.754 330.193 97.8991C344.937 86.0825 353.975 92.8209 364.467 106.147C382.249 128.734 392.701 165.794 366.054 186.122C361.982 189.228 357.029 191.418 352.324 193.384C351.062 193.789 349.901 194.407 348.598 194.781C336.804 198.169 327.881 185.145 318.589 180.261L318.202 180.064Z"/>
	<path d="M338.261 149.871C341.882 149.609 350.936 154.372 349.926 158.969C348.63 159.783 346.949 159.815 345.5 160.291C349.086 162.189 354.693 163.95 356.381 167.924C358.352 172.57 355.263 183.238 350.935 186.224C347.734 188.432 342.885 187.727 339.262 189.369L338.941 189.516C338.184 190.022 337.535 190.68 336.87 191.3L326.137 182.599L328.661 179.617C327.111 178.383 323.881 176.129 323.44 174.119C322.079 167.922 327.697 169.063 331.29 163.694C330.795 163.696 330.345 163.714 329.858 163.805L329.43 163.888C324.344 160.859 331.093 151.237 338.261 149.871Z"/>
	<path fill="white" d="M226.089 192.893C201.524 182.432 193.717 160.701 194.582 134.825C195.13 118.404 211.828 89.6439 231.181 90.6417C239.233 91.0568 247.076 97.1682 252.254 102.91C270.062 122.657 277.029 151.653 261.712 174.942C260.225 177.203 258.816 179.352 256.786 181.171C252.378 184.443 248.191 189.17 242.729 190.604C240.365 191.224 237.77 191.048 235.488 191.735C232.012 192.782 229.728 194.467 226.089 192.893Z"/>
	<path d="M230.436 149.052L232.317 148.977C238.399 148.844 246.564 156.312 244.788 160.66C244.45 161.486 243.59 162.496 243.603 163.374C246.449 164.277 252.548 170.618 254.253 173.048C253.106 180.047 246.514 186.243 240.405 189.166C238.943 189.727 237.261 190.187 235.696 190.304C234.214 187.73 232.083 189.063 229.658 189.224C219.107 189.924 213.951 171.797 220.479 164.665L220.727 164.397C220.76 163.091 220.312 162.733 219.579 161.698C220.979 156.13 224.628 150.517 230.436 149.052Z"/>
	<path fill="white" d="M236.595 174.273C237.707 174.303 239.654 175.296 240.889 175.548C240.275 176.95 239.238 178.247 238.367 179.506L238.021 179.571C232.13 179.993 235.523 176.253 236.595 174.273Z"/>
	<path d="M198.977 233.619C204.18 233.327 206.351 236.316 210.666 238.608L225.15 246.168C246.725 256.38 262.915 259.392 286.064 259.376C314.83 259.355 332.072 255.402 355.432 239.688C358.893 237.36 367.117 229.619 370.336 237.645C372.126 242.109 366.859 265.99 365.791 271.034C362.087 288.527 357.68 305.346 349.516 321.347C333.442 354.466 295.748 369.639 260.98 360.327C227.659 351.402 211.569 318.925 202.543 288.368C198.099 273.32 194.767 258.506 194.501 242.717C194.428 238.386 194.721 235.77 198.977 233.619Z"/>
	<path fill="white" d="M339.762 259.406L340.231 259.557C342.981 268.78 341.544 278.275 332.022 282.647C330.71 281.32 329.672 279.901 328.614 278.368C325.736 273.934 323.718 269.905 322.312 264.785C323.925 263.579 327.227 263.054 329.216 262.498L339.762 259.406Z"/>
	<path fill="white" d="M307.472 265.237L309.835 264.965C309.848 269.079 309.957 273.097 309.369 277.173C308.337 284.331 302.353 288.873 296.051 282.948C292.083 278.127 291.279 272.42 290.278 266.456L307.472 265.237Z"/>
	<path fill="white" d="M227.709 256.089C229.086 255.999 242.52 261.835 245.227 263.013C243.726 268.617 241.893 272.32 238.688 277.086L237.505 278.561C230.567 286.585 224.511 271.692 225.708 265.823C226.422 262.325 227.701 259.783 227.709 256.089Z"/>
	<path fill="white" d="M255.538 264.699L274.906 265.876C275.04 274.928 276.144 276.773 270.181 283.681C262.794 291.788 254.428 278.153 254.342 274.136C254.319 273.074 256.55 271.622 256.633 270.708C256.744 269.488 255.722 266.128 255.538 264.699Z"/>
	<path fill="#3C7148" d="M206.73 248.449C224.25 257.091 216.451 254.236 215.842 267.974C215.192 282.666 231.708 298.066 244.713 285.434C250.709 295.496 263.791 302.247 275.17 296.684C276.789 295.893 280.584 293.353 281.042 291.583L281.48 291.009C285.777 296.778 294.478 299.673 301.391 298.668L301.793 298.605C309.373 297.463 315.94 291.915 317.853 284.42C327.053 296.9 338.337 291.056 344.89 279.757C349.035 272.609 349.403 264.485 347.354 256.593C348.608 255.645 350.31 255.073 351.687 254.259L358.969 249.458L356.794 260.434C353.181 279.951 347.186 301.089 337.778 318.639L333.755 312.752C327.011 303.133 317.612 303.256 306.917 304.923L294.496 306.805C284.944 308.05 274.765 306.9 265.275 305.733C244.514 303.18 241.587 300.021 227.698 317.29C216.08 300.066 208.777 268.472 206.73 248.449Z"/>
	<path fill="white" d="M313.614 313.275L319.278 313.223C325.686 316.614 328.353 325.062 332.84 330.362L333.051 330.608C323.01 355.694 278.577 357.515 256.676 349.719C250.54 347.22 237.185 339.506 237.945 331.271C238.373 326.635 242.007 319.156 245.638 316.226C248.218 314.144 252.461 315.002 255.526 315.276C255.364 316.114 255.218 316.918 255.177 317.772C260.151 313.096 264.977 316.229 271.9 316.87C288.569 318.414 297.604 315.337 313.614 313.275Z"/>
</svg>
