<?xml version="1.0" encoding="utf-8" ?>
<svg xmlns="http://www.w3.org/2000/svg" xmlns:xlink="http://www.w3.org/1999/xlink" width="566" height="452">
	<path transform="scale(0.884375 0.884375)" d="M55.5092 499.707C51.2414 498.148 46.8517 492.76 46.7716 488.243C46.7414 486.537 48.5426 485.96 48.5837 484.721C48.925 474.439 50.6252 475.42 53.446 467.784C57.3512 457.212 60.4344 441.399 71.5231 436.17L71.8835 436.004C54.2727 428.807 43.1242 411.064 48.9741 392.303C53.6401 377.339 66.8089 371.46 79.5587 364.73C69.3913 363.13 55.8356 353.51 52.1031 343.875C43.2836 321.108 61.8541 302.007 81.9443 294.174C68.6298 286.056 56.0902 273.297 58.6787 256.3L58.7504 255.844C60.7682 242.517 71.9056 234.49 83.6015 229.55C82.8433 228.929 81.6711 228.601 80.7812 228.169C62.8413 219.46 55.5974 200.725 71.0817 185.744C82.7191 174.486 98.084 170.117 113.547 166.853L107.656 163.781C72.6647 143.561 30.1687 97.2026 19.8156 57.7649C16.4793 45.0561 16.678 31.4292 18.3564 18.4902C19.2619 11.5094 20.3186 5.60999 28.1869 3.74509L28.5938 3.65345C37.3542 1.61424 52.8042 8.78221 60.8032 12.0925C89.8068 24.0954 118.078 39.3279 141.204 60.8356C148.936 68.026 155.698 76.2284 163.295 83.5913C168.093 92.1861 155.431 89.8035 150.86 90.3054C130.732 92.5151 124.069 118.414 122.655 135.139L123.047 135.258C129.408 137.247 128.33 144.406 122.344 145.727L121.969 145.813C114.498 147.347 101.978 140.456 95.8791 136.244C94.4795 135.277 87.2042 130.278 86.7985 129.072C85.9577 128.571 85.36 128.357 84.3831 128.274C91.672 135.569 98.7318 142.345 107.07 148.467C112.449 152.415 119.005 155.59 123.762 160.302C133.817 170.262 119.57 177.274 111.62 179.915C103.999 182.448 96.4118 184.962 89.2641 188.674C81.5957 192.657 72.8022 205.284 69.0781 213.254C72.785 220.418 84.009 228.008 91.6954 230.459L92.563 230.709C82.2473 240.986 65.8615 245.977 65.7532 263.201C65.674 275.79 73.4335 284.557 83.3581 290.997C85.5168 292.398 87.8436 293.55 89.8214 295.21C86.9774 300.124 83.1984 303.374 78.9926 307.083C62.1315 321.953 54.702 347.419 77.5143 360.727C80.654 362.558 94.041 363.13 89.8642 369.44C80.3097 383.872 54.0406 389.688 58.9317 415.795C60.5084 424.211 66.727 429.285 73.4067 433.928C74.9915 435.029 78.1965 435.122 80.125 435.615C71.5 443.041 66.5982 451.348 62.255 461.944C60.9304 465.176 58.7046 473.813 55 475.2C52.2265 476.238 52.7112 476.428 52.4232 480.233L52.3964 484.247C58.2079 484.837 56.082 487.362 55.7209 492.103L55.5092 499.707ZM55.8504 30.4762C67.436 34.1629 78.4408 37.1917 87.9245 45.128C90.6053 47.3714 92.662 50.2621 95.1799 52.6797L109.685 65.713C118.304 74.1996 110.557 71.2509 105.292 67.8254C99.4867 64.0487 94.0952 59.5082 88.0061 56.1892C82.7889 53.3454 63.4779 48.0516 56.2564 46.4873C60.9936 48.6994 65.9738 50.2986 70.4962 52.9811C75.9349 56.2071 80.4751 60.5963 85.6632 64.139C89.0255 66.4349 92.8736 68.0209 96.4453 69.9773C101.684 73.5905 105.087 78.1033 109.431 82.6033C115.741 89.1381 121.778 93.0802 126.04 101.757C131.874 95.1119 138.534 88.5068 147.193 85.7977L128.83 67.0293C115.415 54.3036 99.395 45.6435 82.258 38.9606L73.437 35.983C68.4218 34.1842 62.0777 30.2349 56.6061 30.3716L55.8504 30.4762Z"/>
	<path fill="#1A1B1C" transform="scale(0.884375 0.884375)" d="M104.737 95.8046C106.162 95.4042 109.872 97.2925 111.312 97.8442L106.301 97.5951L99.0632 96.8829L104.737 95.8046Z"/>
	<path fill="#1A1B1C" transform="scale(0.884375 0.884375)" d="M59.4545 64.59C66.0721 64.6218 76.5373 66.9592 83.1109 69.2357C78.8827 70.1411 63.2809 66.1631 59.4545 64.59Z"/>
	<path fill="#3D3E3D" transform="scale(0.884375 0.884375)" d="M89.3405 109.404L108.272 110.569C110.053 110.703 113.407 110.406 114.844 111.333C107.041 112.186 96.4471 112.578 89.3405 109.404Z"/>
	<path fill="#3D3E3D" transform="scale(0.884375 0.884375)" d="M71.2294 82.5673C78.8372 83.4756 85.9335 87.8036 93.0914 90.3159C86.013 90.2835 82.1569 88.7868 76.4062 85.3515L71.2294 82.5673Z"/>
	<path fill="#2C472C" transform="scale(0.884375 0.884375)" d="M84.3831 128.274C79.2276 124.282 74.5861 118.572 70.3763 113.594C45.1963 83.8197 31.0662 63.2504 31.2784 22.8821C32.127 25.976 34.3477 29.8554 35.6568 33.0211C40.1468 43.8797 43.1424 55.3803 48.6151 65.8111C58.396 84.4529 70.0854 97.7346 80.852 114.559C81.9034 116.202 82.4431 118.143 83.419 119.832C83.9957 120.83 85.8981 122.388 86.1821 123.314C86.7223 125.074 86.0621 127.099 86.7985 129.072C85.9577 128.571 85.36 128.357 84.3831 128.274Z"/>
	<path transform="scale(0.884375 0.884375)" d="M164.339 83.0858C155.193 72.3097 152.503 50.7384 162.161 39.5141C167.476 33.3372 176.25 28.9208 184.219 27.5513L184.711 27.4619C200.388 24.7091 217.828 34.2153 228.541 45.4327C229.725 36.933 231.642 30.5206 238.795 25.1861C262.273 7.67799 286.784 22.308 299.825 44.0898C300.681 40.3723 301.254 36.5975 302.486 32.9691C309.909 11.1067 337.47 0.264983 356.92 13.2845C367.868 20.6127 374.277 33.2918 377.051 45.8662C384.411 26.7513 409.453 11.9845 429.225 19.685C452.239 28.6484 460.883 51.147 460.725 74.0513L460.901 73.7615C461.817 72.3015 462.729 72.0679 463.994 71.1111L467.297 68.3792C493.897 46.1075 524.924 32.0988 556.031 17.4728L581.529 6.16871C586.898 4.09986 595.604 -0.18512 601.175 3.3C611.972 10.0539 610.196 27.01 608.281 37.594C600.5 80.5966 576.197 110.871 541.094 136.449C535.513 140.515 524.027 146.494 521.282 153.162C523.352 156.466 535.54 156.941 539.222 157.558C560.424 161.109 603.04 171.273 585.419 201.907C577.814 215.129 565.994 217.639 559.333 226.597C561.929 226.968 564.631 226.994 567.177 227.599C595.672 234.365 618.016 266.062 590.995 285.5C585.921 289.15 579.9 290.859 574.856 294.393C581.558 297.253 588.962 300.205 591.845 307.53C600.927 330.603 573.671 343.732 562.045 356.638C575.07 363.05 586.081 368.702 591.179 383.656C597.745 402.918 593.696 419.431 577.283 431.217C576.596 431.71 574.539 432.711 574.741 433.503L575.021 434.124L574.864 434.187C559.382 430.539 587.41 431.009 583.766 406.408C581.915 393.917 576.03 383.302 568.053 373.775C564.567 369.612 556.07 364.477 560.008 358.105C561.249 356.096 557.028 356.428 556.029 357.003L555.721 356.806C560.388 350.575 568.325 346.787 574.481 338.147C581.508 328.285 587.084 320.048 578.063 309.191C575.269 305.828 566.03 300.346 569.289 295.54C576.009 285.63 593.583 285.739 592.142 270.54C590.571 253.97 572.221 242.378 558.118 236.898C553.701 235.181 553.904 238.074 549.996 238.228C546.648 238.36 544.441 234.779 544.722 231.746C545.901 219.014 594.296 206.948 574.6 186.006C564.652 175.428 547.945 171.409 534.039 169.384C526.348 168.264 511.022 168.504 511.874 156.958C512.208 152.421 515.525 149.997 518.72 147.301C509.483 149.016 506.271 142.468 509.48 134.032C511.208 129.489 513.14 124.705 513.66 119.836C515.31 104.398 503.839 85.4654 488.177 82.9493C485.425 82.5072 480.977 83.6103 478.594 82.2378L478.751 81.4971C477.639 80.9842 476.675 80.9961 475.584 80.5354C463.915 90.5599 451.926 92.0158 448.3 75.3134L446.292 66.7439C442.077 51.9381 434.364 37.4241 420.042 30.357C410.476 25.6363 399.365 25.6921 393.921 35.9613C392.289 39.0397 391.889 43.0702 390.671 46.3834C388.971 51.0113 385.016 56.7225 384.653 61.6039C384.382 65.2457 386.598 69.4057 383.459 72.2405C375.09 79.7974 368.981 60.163 367.01 55.504C360.528 40.1783 351.162 20.1149 332.783 16.7783C325.256 15.4117 312.539 21.6006 309.903 29.2656C306.579 38.9288 304.996 53.3872 307.572 63.0759C308.18 65.3609 309.286 68.1462 309.304 70.4876C309.353 77.068 301.975 77.8902 298.246 72.2352C295.141 67.5273 293.123 61.8152 290.561 56.7794C283.738 43.368 272.855 31.2347 257.527 28.0572C245.309 25.5247 238.29 27.7226 236.315 40.6228C235.158 48.1854 235.884 54.969 238.927 62.0192C239.821 64.09 241.211 66.4718 241.391 68.7178C241.672 72.2348 237.864 74.9791 234.565 74.2689C224.754 72.1567 213.286 35.2487 183.641 36.3003C177.635 36.5134 170.246 38.0056 165.958 42.587L165.61 42.9534C164.721 44.2485 164.998 47.4749 165.038 49.0291C165.469 65.7244 167.096 70.1442 179.639 81.4261C182.62 84.1074 177.915 93.5215 164.339 83.0858ZM562.846 47.942C546.283 49.9948 521.1 60.5663 506.053 69.2879L491.011 78.9369C498.93 81.8719 505.414 87.0204 511.047 93.2378L512.031 94.0794C516.647 92.7845 520.499 89.1816 524.157 86.2555C519.174 87.0798 514.58 88.4716 509.751 89.9084C512.597 83.6349 517.763 80.6596 523.236 76.72L537.997 65.8615C546.263 59.499 552.531 52.4744 562.5 48.7356L563.906 47.9545L562.846 47.942ZM484.016 73.5071C481.031 75.5408 478.239 78.0889 475.584 80.5354C476.675 80.9961 477.639 80.9842 478.751 81.2558C480.679 79.4379 483.26 78.227 485.281 76.4113C486.223 76.1552 487.564 74.9233 488.42 74.3266L497.479 68.0662C504.663 63.4801 512.488 59.9749 519.784 55.5722C526.386 51.5882 532.456 46.5706 538.774 42.1386C526.189 46.3818 514.268 54.3699 502.92 61.0686L490.244 68.7653C488.144 70.1588 485.762 71.6983 484.016 73.5071Z"/>
	<path fill="#2C472C" transform="scale(0.884375 0.884375)" d="M562.629 78.1873C562.07 77.1295 561.465 77.2473 560.469 76.6538C561.924 74.9332 563.273 74.0742 565.308 73.2288C564.565 74.9926 563.646 76.5693 562.629 78.1873Z"/>
	<path fill="#1A1B1C" transform="scale(0.884375 0.884375)" d="M545.152 69.2357C549.433 68.5075 552.611 69.3896 556.37 71.4077C552.913 70.4792 549.037 70.3026 545.469 69.9342L545.152 69.2357Z"/>
	<defs>
		<linearGradient id="gradient_0" gradientUnits="userSpaceOnUse" x1="550.29797" y1="70.774597" x2="574.63501" y2="82.558403">
			<stop offset="0" stop-color="#273D26"/>
			<stop offset="1" stop-color="#315430"/>
		</linearGradient>
	</defs>
	<path fill="url(#gradient_0)" transform="scale(0.884375 0.884375)" d="M565.308 73.2288C573.747 66.9552 588.302 46.8438 585.065 35.7837L584.624 34.565C583.729 32.1702 581.664 30.1599 579.375 29.0764L577.719 28.2924C582.611 25.0855 588.387 20.9133 593.882 19.0256C598.544 42.3016 581.67 70.7396 569.531 89.071C561.024 101.919 549.599 111.992 537.577 121.455C532.714 125.282 527.41 128.952 523.001 133.296C525.528 128 527.611 122.275 527.532 116.321C539.503 113.618 546.936 108.903 554.976 99.7118C560.095 93.8587 565.175 88.0545 564.914 79.7472L562.629 78.1873C563.646 76.5693 564.565 74.9926 565.308 73.2288Z"/>
	<path fill="#E77474" transform="scale(0.884375 0.884375)" d="M164.339 83.0858C177.915 93.5215 182.62 84.1074 179.639 81.4261C167.096 70.1442 165.469 65.7244 165.038 49.0291C164.998 47.4749 164.721 44.2485 165.61 42.9534L165.958 42.587C170.246 38.0056 177.635 36.5134 183.641 36.3003C213.286 35.2487 224.754 72.1567 234.565 74.2689C237.864 74.9791 241.672 72.2348 241.391 68.7178C241.211 66.4718 239.821 64.09 238.927 62.0192C235.884 54.969 235.158 48.1854 236.315 40.6228C238.29 27.7226 245.309 25.5247 257.527 28.0572C272.855 31.2347 283.738 43.368 290.561 56.7794C293.123 61.8152 295.141 67.5273 298.246 72.2352C301.975 77.8902 309.353 77.068 309.304 70.4876C309.286 68.1462 308.18 65.3609 307.572 63.0759C304.996 53.3872 306.579 38.9288 309.903 29.2656C312.539 21.6006 325.256 15.4117 332.783 16.7783C351.162 20.1149 360.528 40.1783 367.01 55.504C368.981 60.163 375.09 79.7974 383.459 72.2405C386.598 69.4057 384.382 65.2457 384.653 61.6039C385.016 56.7225 388.971 51.0113 390.671 46.3834C391.889 43.0702 392.289 39.0397 393.921 35.9613C399.365 25.6921 410.476 25.6363 420.042 30.357C434.364 37.4241 442.077 51.9381 446.292 66.7439L448.3 75.3134C451.926 92.0158 463.915 90.5599 475.584 80.5354C476.675 80.9961 477.639 80.9842 478.751 81.2558L478.594 82.2378C480.977 83.6103 485.425 82.5072 488.177 82.9493C503.839 85.4654 515.31 104.398 513.66 119.836C513.14 124.705 511.208 129.489 509.48 134.032C506.271 142.468 509.483 149.016 518.72 147.301C515.525 149.997 512.208 152.421 511.874 156.958C511.022 168.504 526.348 168.264 534.039 169.384C547.945 171.409 564.652 175.428 574.6 186.006C594.296 206.948 545.901 219.014 544.722 231.746C544.441 234.779 546.648 238.36 549.996 238.228C553.904 238.074 553.701 235.181 558.118 236.898C572.221 242.378 590.571 253.97 592.142 270.54C593.583 285.739 576.009 285.63 569.289 295.54C566.03 300.346 575.269 305.828 578.063 309.191C587.084 320.048 581.508 328.285 574.481 338.147C568.325 346.787 560.388 350.575 555.721 356.806L556.029 357.003C557.028 356.428 561.249 356.096 560.008 358.105C556.07 364.477 564.567 369.612 568.053 373.775C576.03 383.302 581.915 393.917 583.766 406.408C587.41 431.009 559.382 430.539 574.864 434.187L575.021 434.124C578.588 437.484 583.467 457.426 584.558 462.802C586.394 471.849 589.212 488.594 584.604 496.84L583.627 498.362C581.595 501.815 581.201 504.525 577.136 505.681L575.606 505.992C573.451 506.42 571.184 506.295 568.995 506.298L372.031 505.631C367.724 505.538 363.465 504.598 359.118 504.491L281.521 504.474C277.721 504.557 273.982 505.579 270.092 505.639L149.688 506.381L135.595 507.535L74.9036 507.732C68.7186 507.722 61.0767 507.491 57.2256 501.72L56.9636 501.287L55.5107 499.707L55.7209 492.103C56.082 487.362 58.2079 484.837 52.3964 484.247L52.4232 480.233C52.7112 476.428 52.2265 476.238 55 475.2C58.7046 473.813 60.9304 465.176 62.255 461.944C66.5982 451.348 71.5 443.041 80.125 435.615C78.1965 435.122 74.9915 435.029 73.4067 433.928C66.727 429.285 60.5084 424.211 58.9317 415.795C54.0406 389.688 80.3097 383.872 89.8642 369.44C94.041 363.13 80.654 362.558 77.5143 360.727C54.702 347.419 62.1315 321.953 78.9926 307.083C83.1984 303.374 86.9774 300.124 89.8214 295.21C87.8436 293.55 85.5168 292.398 83.3581 290.997C73.4335 284.557 65.674 275.79 65.7532 263.201C65.8615 245.977 82.2473 240.986 92.563 230.709L91.6954 230.459C84.009 228.008 72.785 220.418 69.0781 213.254C72.8022 205.284 81.5957 192.657 89.2641 188.674C96.4118 184.962 103.999 182.448 111.62 179.915C119.57 177.274 133.817 170.262 123.762 160.302C119.005 155.59 112.449 152.415 107.07 148.467C98.7318 142.345 91.672 135.569 84.3831 128.274C85.36 128.357 85.9577 128.571 86.7985 129.072C87.2042 130.278 94.4795 135.277 95.8791 136.244C101.978 140.456 114.498 147.347 121.969 145.813L122.344 145.727C128.33 144.406 129.408 137.247 123.047 135.258L122.655 135.139C124.069 118.414 130.732 92.5151 150.86 90.3054C155.431 89.8035 168.093 92.1861 163.295 83.5913L164.339 83.0858ZM56.9636 501.287L57.2256 501.72C61.0767 507.491 68.7186 507.722 74.9036 507.732L135.595 507.535L149.688 506.381L270.092 505.639C273.982 505.579 277.721 504.557 281.521 504.474L359.118 504.491C363.465 504.598 367.724 505.538 372.031 505.631L568.995 506.298C571.184 506.295 573.451 506.42 575.606 505.992L577.136 505.681C581.201 504.525 581.595 501.815 583.627 498.362L583.336 498.435C579.424 500.065 584.345 501.801 575.03 501.729C564.089 501.645 553.516 500.078 542.657 498.887L482.889 494.325C480.23 494.077 477.669 493.623 474.984 493.502L457.258 493.317C453.613 493.142 450.114 492.534 446.42 492.505L408.622 492.423C402.438 492.41 396.119 492.656 389.953 492.29L390.262 492.22C392.459 491.694 394.916 490.173 397.104 489.307C432.953 475.106 462.208 436.981 452.428 397.068C428.825 300.735 243.806 293.095 195.095 374.45C171.531 413.806 185.972 461.527 224.455 484.391L232.644 488.855C235.213 490.183 237.579 491.978 240.466 492.368L183.687 492.519C180.166 492.57 176.768 493.282 173.255 493.328L144.763 493.28C141.603 493.391 138.518 494.388 135.38 494.597L106.992 496.435L65.7459 499.81C62.7386 499.988 59.7566 500.055 56.9636 501.287ZM424.297 163.293C398.058 166.107 374.233 180.039 357.687 200.497C341.616 220.369 344.615 222.676 348.299 243.612C349.218 248.836 349.779 254.116 351.023 259.282C362.082 305.229 403.231 323.442 446.799 327.274C451.903 327.302 457.095 327.511 462.188 327.163C493.31 325.04 524.63 306.719 524.835 272.59C525.151 219.997 485.351 163.298 429.633 163.109L424.297 163.293ZM206.602 163.295C158.833 167.416 125.711 205.752 117.129 251.785C112.756 275.236 114.756 294.851 134.305 311.184C152.061 326.018 177.559 329.14 199.916 327.079L202.237 326.748C238.977 322.189 278.123 300.954 287.145 262.544C287.859 259.504 294.426 226.283 294.207 224.635C291.984 207.867 276.149 192.78 263.206 182.994C247.177 170.873 226.899 162.488 206.602 163.295Z"/>
	<path transform="scale(0.884375 0.884375)" d="M206.602 163.295C226.899 162.488 247.177 170.873 263.206 182.994C276.149 192.78 291.984 207.867 294.207 224.635C294.426 226.283 287.859 259.504 287.145 262.544C278.123 300.954 238.977 322.189 202.237 326.748L199.916 327.079C177.559 329.14 152.061 326.018 134.305 311.184C114.756 294.851 112.756 275.236 117.129 251.785C125.711 205.752 158.833 167.416 206.602 163.295ZM206.466 175.785C158.461 181.117 122.457 231.321 128.339 278.239C129.545 287.859 136.583 296.533 144.041 302.247C159.203 313.863 181.957 316.35 200.644 313.725L202.526 313.428C231.135 309.252 262.306 294.273 272.979 265.546C275.633 258.403 276.243 250.72 277.702 243.287L280.349 230.627C281.326 224.827 280.748 221.825 277.747 216.634C265.19 194.91 231.342 173.885 206.466 175.785Z"/>
	<path transform="scale(0.884375 0.884375)" d="M197.246 213.333C197.46 213.397 197.625 213.526 197.813 213.646C193.057 219.639 194.205 225.75 200.586 230.465C207.676 235.703 223.234 228.346 223.653 220.991C223.856 217.436 221.136 215.092 218.901 212.756C244.084 221.452 249.403 254.275 232.702 273.291C225.79 281.439 212.975 285.655 202.653 283.957C167.098 278.11 162.866 229.447 188.82 216.635C191.519 215.303 194.495 214.582 197.246 213.333ZM218.067 248.202C207.035 251.834 211.887 264.045 217.969 263.421C225.27 261.28 227.755 248.247 218.067 248.202ZM188.178 242.09C180.694 245.059 185.607 256.955 193.756 254.931C201.445 250.307 195.199 240.474 188.178 242.09Z"/>
	<path transform="scale(0.884375 0.884375)" d="M424.297 163.293L429.633 163.109C485.351 163.298 525.151 219.997 524.835 272.59C524.63 306.719 493.31 325.04 462.188 327.163C457.095 327.511 451.903 327.302 446.799 327.274C403.231 323.442 362.082 305.229 351.023 259.282C349.779 254.116 349.218 248.836 348.299 243.612C344.615 222.676 341.616 220.369 357.687 200.497C374.233 180.039 398.058 166.107 424.297 163.293ZM424.651 175.785C402.931 178.492 380.302 192.04 366.811 209.269C354.514 224.973 358.668 226.479 361.673 243.874C362.54 248.891 363.117 254.043 364.317 258.984C373.046 294.933 411.733 311.391 445.338 314.195C451.147 314.256 457.09 314.517 462.882 314.085C482.76 312.602 507.311 300.539 511.231 278.915C513.193 268.099 510.844 252.237 507.865 242.022C497.818 207.57 462.817 172.906 424.651 175.785Z"/>
	<path transform="scale(0.884375 0.884375)" d="M431.127 212.368C431.345 212.274 431.223 212.308 431.56 212.294C455.42 211.286 468.798 232.133 466.114 254.526C462.561 284.17 424.742 293.225 403.891 272.868C392.018 258.955 390.775 230.061 405.217 218.244C406.964 216.814 409.127 215.756 411.1 214.665C409.1 216.877 407.46 218.687 407.579 221.832C407.761 226.614 412.401 238.127 418.703 237.634C426.256 237.043 435.873 230.258 440.748 224.723C437.996 218.89 433.857 215.919 428.293 213.021L431.127 212.368ZM443.25 243.028C436.233 245.938 436.916 254.116 443.156 257.157L444.552 257.163C453.352 252.968 450.067 241.353 443.25 243.028ZM406.108 252.093C402.106 256.837 407.934 267.613 414.192 266.6L414.724 266.477L416.218 265.221C416.437 259.93 412.103 253.953 407.188 251.991L406.108 252.093Z"/>
	<path transform="scale(0.884375 0.884375)" d="M56.9636 501.287C59.7566 500.055 62.7386 499.988 65.7459 499.81L106.992 496.435L135.38 494.597C138.518 494.388 141.603 493.391 144.763 493.28L173.255 493.328C176.768 493.282 180.166 492.57 183.687 492.519L240.466 492.368C237.579 491.978 235.213 490.183 232.644 488.855L224.455 484.391C185.972 461.527 171.531 413.806 195.095 374.45C243.806 293.095 428.825 300.735 452.428 397.068C462.208 436.981 432.953 475.106 397.104 489.307C394.916 490.173 392.459 491.694 390.262 492.22L389.953 492.29C396.119 492.656 402.438 492.41 408.622 492.423L446.42 492.505C450.114 492.534 453.613 493.142 457.258 493.317L474.984 493.502C477.669 493.623 480.23 494.077 482.889 494.325L542.657 498.887C553.516 500.078 564.089 501.645 575.03 501.729C584.345 501.801 579.424 500.065 583.336 498.435L583.627 498.362C581.595 501.815 581.201 504.525 577.136 505.681L575.606 505.992C573.451 506.42 571.184 506.295 568.995 506.298L372.031 505.631C367.724 505.538 363.465 504.598 359.118 504.491L281.521 504.474C277.721 504.557 273.982 505.579 270.092 505.639L149.688 506.381L135.595 507.535L74.9036 507.732C68.7186 507.722 61.0767 507.491 57.2256 501.72L56.9636 501.287ZM350.444 479.348C371.394 479.257 395.706 473.949 412.797 461.032C451.418 432.765 445.59 389.076 408.788 361.446C360.792 325.413 276.368 326.376 229.07 361.543C214.83 372.131 202.439 387.32 199.836 405.349C195.356 436.372 215.234 465.84 244.671 475.504C257.582 479.742 271.633 480.651 285.106 481.209L296.939 482.051C314.88 482.577 332.624 481.509 350.444 479.348Z"/>
	<path fill="#3C7148" transform="scale(0.884375 0.884375)" d="M350.444 479.348C332.624 481.509 314.88 482.577 296.939 482.051L285.106 481.209C271.633 480.651 257.582 479.742 244.671 475.504C215.234 465.84 195.356 436.372 199.836 405.349C202.439 387.32 214.83 372.131 229.07 361.543C276.368 326.376 360.792 325.413 408.788 361.446C445.59 389.076 451.418 432.765 412.797 461.032C395.706 473.949 371.394 479.257 350.444 479.348ZM259.004 361.359C242.729 366.493 246.812 393.252 250.645 405.228C252.914 412.318 256.629 422.34 265.754 418.92C281.629 408.266 285.387 360.212 259.004 361.359ZM375.348 361.371C351.593 367.918 361.727 421.963 377.859 419.776C393.968 411.607 399.67 362.077 375.348 361.371Z"/>
	<path fill="#2C472C" transform="scale(0.884375 0.884375)" d="M350.444 479.348C351.239 479.183 351.914 479.05 352.755 478.97L351.717 478.789L353.061 478.107C354.277 477.367 356.152 477.167 357.543 476.852L367.768 474.633C377.718 472.254 388.079 469.963 397.611 466.205L407.031 462.321C409.49 461.23 410.19 460.388 412.797 461.032C395.706 473.949 371.394 479.257 350.444 479.348Z"/>
	<path transform="scale(0.884375 0.884375)" d="M375.348 361.371C399.67 362.077 393.968 411.607 377.859 419.776C361.727 421.963 351.593 367.918 375.348 361.371ZM375.466 371.497C368.118 377.144 370.484 393.804 375.715 400.313L376.345 399.941C380.772 392.718 384.415 377.556 376.255 371.373L375.466 371.497Z"/>
	<path transform="scale(0.884375 0.884375)" d="M259.004 361.359C285.387 360.212 281.629 408.266 265.754 418.92C256.629 422.34 252.914 412.318 250.645 405.228C246.812 393.252 242.729 366.493 259.004 361.359ZM261.381 371.497C252.622 376.474 256.534 391.497 260.496 398.32L261.908 400.558C266.091 393.687 267.934 385.549 266.088 377.596C265.626 375.603 264.192 370.68 261.381 371.497Z"/>
	<path transform="scale(0.884375 0.884375)" d="M323.643 424.728C346.176 424.91 367.873 429.662 386.539 443.135C399.26 452.316 397.793 462.804 380.515 454.505L370.045 449.803C358.561 445.295 347.052 443.066 334.745 442.419L318.292 442.309C300.289 442.839 279.993 445.389 263.366 452.891C259.833 454.485 255.49 457.435 251.562 457.543C244.014 457.75 246.527 450.064 249.89 446.614C256.85 439.472 274.281 432.32 283.612 429.605C296.751 425.782 310.049 424.878 323.643 424.728Z"/>
</svg>
