<?xml version="1.0" encoding="utf-8" ?>
<svg xmlns="http://www.w3.org/2000/svg" xmlns:xlink="http://www.w3.org/1999/xlink" width="566" height="452">
	<path transform="scale(0.884375 0.884375)" d="M403.932 6.6681C414.63 5.14151 428.088 9.47469 437.175 14.5982C442.693 17.7087 445.627 23.0499 436.643 21.1843C411.459 15.9552 388.001 27.1427 376.357 50.4855L389.092 57.0005C409.172 68.5513 426.361 83.43 440.703 101.633C444.961 107.037 449.524 114.255 456.464 116.232L456.875 116.345C475.399 121.741 489.578 91.019 494.844 78.1014C507.374 47.3613 521.295 35.4118 557.151 35.5459C559.159 35.5534 564.588 34.6072 565.206 37.5106C566.298 42.6428 557.818 42.3497 554.569 42.9341C546.295 44.4219 537.81 47.7954 531.25 53.1279C506.764 73.0326 510.352 125.666 466.934 131.713C470.551 135.937 475.227 141.099 477.721 146.036C479.036 148.639 479.701 151.688 480.994 154.392L482.812 153.812C499.485 149.06 512.975 145.575 530.241 145.448C562.168 145.213 590.17 151.097 609.223 178.917C610.478 180.749 613.939 185.31 612.328 187.661C608.038 193.918 602.196 184.529 600.049 182.204C572.899 152.796 522.245 160.349 487.302 166.96C494.64 181.398 498.021 189.277 501.321 205.656C502.199 205.939 503.605 205.569 504.531 205.462L531.972 202.219C572.64 198.817 591.161 208.576 613.101 243.006C615.67 247.038 619.088 252.1 620.547 256.648C621.974 261.098 616.269 261.747 613.69 259.258C610.403 256.085 607.73 251.598 605.061 247.887C593.254 231.474 578.234 213.72 556.9 210.873C546.899 209.539 535.644 211.532 525.743 212.741L502.667 215.171C502.555 231.072 500.555 242.427 493.421 256.625C492.884 257.694 490.007 262.139 490.138 263.1C515.081 276.263 538.604 247.95 581.774 273.758C618.444 295.68 642.329 349.543 633.751 391.971C633.034 395.52 632.398 399.618 630.467 402.745C627.448 407.634 619.552 407.865 619.125 401.035C618.932 397.954 620.014 394.356 620.277 391.257C621.098 381.579 620.916 371.306 618.751 361.807C611 327.804 582.585 282.703 545.312 279.837C522.372 278.074 505.453 292.319 481.292 277.223C470.66 293.646 449.428 307.798 432.588 316.531L419.276 322.779C436.566 336.951 450.763 359.642 453.304 381.851C455.911 404.636 446.492 424.893 437.559 445.066L432.436 457.637C444.962 457.627 468.122 450.518 479.869 446.507C483.963 447.925 485.977 449.904 487.928 453.735C486.687 458.517 474.748 464.111 471.049 468.049L476.406 464.865C482.739 461.567 496.463 460.239 503.716 461.916C512.483 463.945 509.085 465.255 520.383 465.41C525.268 465.477 530.393 469.998 527.205 475.01C521.353 484.21 498.324 479.462 488.948 479.581C483.357 479.653 478.419 480.712 473.012 481.978C473.25 482.157 489.099 485.938 493.261 487.944C502.899 492.588 504.213 501.308 494.092 501.035C487.642 500.86 461.666 494.021 454.02 491.667C449.755 490.355 445.46 487.674 440.938 487.589L440.296 488.244C440.569 490.721 443.582 491.958 445.581 492.963C457.404 498.91 458.402 500.796 466.128 509.862C462.172 510.156 443.499 510.878 440.021 509.61C426.783 504.786 408.27 491.313 402.112 478.64C388.737 451.11 423.224 415.263 420.151 383.527C418.368 365.105 404.561 349.564 392.36 336.804C386.4 330.572 387.677 333.701 377.801 335.724C339.964 343.478 290.746 343.756 253.393 331.12C239.238 342.732 228.806 356.572 221.108 373.13C210.607 394.202 214.681 406.743 223.284 425.93C233.568 448.864 237.268 461.312 230.681 485.118C231.618 486.306 233.814 484.487 232.63 488.263L232.071 489.849C231.518 491.109 230.887 491.508 229.688 491.965C226.678 490.212 229.136 488.36 224.691 492.359C213.06 502.826 208.438 505.02 192.897 508.37C185.44 509.977 180.891 510.045 173.181 509.995C178.441 497.153 182.842 499.155 194.587 492.576C197.882 490.731 201.02 488.43 204.09 486.234C198.837 487.971 193.55 490.152 188.182 491.477C181.548 493.116 174.689 493.722 167.969 494.956C159.758 496.464 151.562 498.634 143.281 499.65C138.678 500.215 136.965 495.084 138.359 491.456C140.863 484.937 159.03 480.205 165.442 477.41C161.934 477.533 158.55 478.405 155.08 478.847L144.101 479.959C134.048 481.1 124.413 482.207 114.268 480.94C104.238 479.687 99.1189 472.205 108.646 467.761C111.099 466.617 114.083 467.274 116.685 466.502C118.936 465.834 121.027 464.547 123.153 463.566C132.021 459.475 144.62 458.725 153.784 462.83C158.121 464.772 161.333 468.189 164.862 471.234C166.736 470.22 168.674 469.046 170.815 468.755L171.094 468.722C166.217 466.209 154.798 458.561 151.503 453.914C149.017 450.409 151.859 446.941 155.916 447.299C159.557 447.62 163.304 449.323 166.961 449.97L206.905 457.229C202.176 438.662 188.722 430.026 188.479 404.949C188.119 367.81 205.07 344.618 229.219 319.999C205.701 310.743 179.187 294.735 163.292 275.407C162.037 275.994 160.919 276.985 159.736 277.724C135.418 292.919 112.793 275.189 88.9546 280.689L85.1545 281.582C46.0551 292.319 15.0557 352.823 19.7309 390.877C20.1001 393.882 20.8535 396.926 20.9079 399.964C20.9951 404.842 16.0454 407.728 12.0312 404.988C5.75908 400.707 4.7235 382.805 4.71434 374.895C4.66433 331.727 34.7072 279.516 76.7997 265.533C83.5233 263.3 90.6892 261.623 97.8125 261.729C118.213 262.031 134.191 273.201 154.666 263.626C144.838 247.083 140.12 235.079 139.152 215.538L108.21 212.038C77.5033 208.539 59.6477 213.671 40.1562 240.96C36.1907 246.512 32.9376 252.605 28.8645 258.059C24.5446 263.844 18.7702 262.022 19.2922 257.641C19.5365 255.59 22.0114 252.257 23.0292 250.418C46.1854 208.578 66.5665 197.27 115.027 202.738L139.039 205.75C140.246 192.045 142.044 177.412 147.465 164.652L142.314 163.562C131.827 161.922 121.097 161.568 110.501 161.544C86.0064 161.489 57.919 163.03 40.2047 182.18C37.9595 184.607 31.3902 193.312 28.3514 187.077C26.6261 183.537 30.7875 179.238 32.8367 176.726C53.6812 151.169 92.2366 144.233 123.679 145.63L135.312 146.73C141.312 147.358 147.608 148.023 153.289 150.142C156.468 143.116 160.447 137.098 164.898 130.842C150.402 122.4 140.408 111.638 133.14 96.2577L124.688 76.2786C114.985 54.0957 105.172 47.4612 81.5474 42.0485C79.5363 41.5878 76.1565 41.314 74.5312 39.9794C73.0632 38.774 73.752 36.0029 75.5138 35.4382C77.4266 34.8251 80.0546 35.1537 82.0634 35.1989C159.151 36.9325 131.989 95.2173 175.245 116.778C178.872 114.147 181.889 109.376 185.003 106.075L204.464 87.3963C218.994 74.779 235.469 65.5248 252.554 56.8796L261.022 52.7316C262.963 51.8624 264.979 51.1674 266.836 50.1228C252.124 29.6729 231.629 18.3043 205.605 20.8542C203.196 21.0903 196.358 22.963 197.969 18.1568C215.33 6.54194 241.924 6.20467 259.913 15.8761C268.931 20.7244 286.2 35.7139 289.312 46.3678L289.397 46.671C310.753 43.8667 335.209 41.7799 356.113 48.684C359.939 27.2044 382.788 8.56578 403.932 6.6681ZM191.085 285.584C191.284 285.925 191.185 285.832 191.485 286.062C221.884 309.389 274.664 322.981 312.283 323.125L335.217 322.792C377.322 320.359 421.867 309.413 453.718 280.442C465.702 269.542 478.374 252.904 483.753 237.347C492.704 211.458 482.701 187.314 470.695 164.345C467.015 157.305 463.299 150.301 458.689 143.815L429.685 106.027C428.007 103.887 426.199 101.19 424.023 99.5567L423.571 99.8489C383.601 57.8014 328.365 49.6728 275.343 68.3827C227.037 85.4284 179.814 132.599 168.953 182.909C162.181 214.278 167.799 245.845 183.459 273.817C184.374 275.451 191.014 284.948 191.085 285.584ZM191.085 285.584C191.014 284.948 184.374 275.451 183.459 273.817C167.799 245.845 162.181 214.278 168.953 182.909C179.814 132.599 227.037 85.4284 275.343 68.3827C328.365 49.6728 383.601 57.8014 423.571 99.8489L424.023 99.5567C364.338 33.6107 274.391 41.1074 210.375 99.8897C193.155 115.702 174.308 135.914 164.929 157.28C146.349 199.604 146.074 239.396 178.849 274.726C182.386 278.539 186.667 282.814 191.085 285.584Z"/>
	<path fill="#3C7148" transform="scale(0.884375 0.884375)" d="M239.689 328.361C245.844 327.423 232.8 338.398 231.878 339.374C217.943 354.122 204.69 379.446 204.752 400.437C204.817 422.243 222.49 440.674 223.023 459.741L222.413 458.706L207.595 429.876C205.242 424.615 202.981 418.973 201.897 413.297C196.682 385.982 212.631 353.615 231.604 334.759C234.013 332.366 236.542 329.756 239.689 328.361Z"/>
	<path fill="#3C7148" transform="scale(0.884375 0.884375)" d="M404.859 328.987C407.097 328.485 408.662 329.615 410.37 330.987C424.865 342.629 437.943 362.512 440.911 381.271C446.55 416.897 418.052 443.721 416.141 476.061L415.847 478.458C414.854 477.12 414.295 474.912 413.916 473.297C406.674 442.392 455.085 406.613 427.056 357.724C423.79 352.029 404.94 330.613 404.859 328.987Z"/>
	<path fill="#3C7148" transform="scale(0.884375 0.884375)" d="M191.085 285.584C191.014 284.948 184.374 275.451 183.459 273.817C167.799 245.845 162.181 214.278 168.953 182.909C179.814 132.599 227.037 85.4284 275.343 68.3827C328.365 49.6728 383.601 57.8014 423.571 99.8489L424.023 99.5567C426.199 101.19 428.007 103.887 429.685 106.027L458.689 143.815C463.299 150.301 467.015 157.305 470.695 164.345C482.701 187.314 492.704 211.458 483.753 237.347C478.374 252.904 465.702 269.542 453.718 280.442C421.867 309.413 377.322 320.359 335.217 322.792L312.283 323.125C274.664 322.981 221.884 309.389 191.485 286.062C191.185 285.832 191.284 285.925 191.085 285.584ZM326.162 73.2829C275.94 75.8797 239.192 122.898 241.919 171.843C244.568 219.386 280.482 249.377 327.157 249.236C368.769 247.628 405.195 217.326 410.08 175.145C413.176 148.407 404.411 115.651 384.387 97.1666C368.795 82.7743 347.612 72.8608 326.162 73.2829Z"/>
	<path transform="scale(0.884375 0.884375)" d="M326.162 73.2829C347.612 72.8608 368.795 82.7743 384.387 97.1666C404.411 115.651 413.176 148.407 410.08 175.145C405.195 217.326 368.769 247.628 327.157 249.236C280.482 249.377 244.568 219.386 241.919 171.843C239.192 122.898 275.94 75.8797 326.162 73.2829ZM325.888 84.5335C259.806 88.6909 225.886 177.744 274.869 220.716C289.326 233.398 308.899 238.98 327.868 238.38C369.57 236.256 402.958 201.961 400.724 159.604C398.665 120.556 368.75 82.223 326.997 84.459L325.888 84.5335Z"/>
	<path transform="scale(0.884375 0.884375)" d="M327.082 113.923C361.109 111.408 385.596 156.448 362.472 184.512C354.921 193.676 344.603 198.507 332.889 199.687L330.579 199.896C293.868 202.777 274.411 154.203 296.209 129.354C304.307 120.121 314.849 114.676 327.082 113.923ZM322.647 122.71C302.646 125.011 294.188 139.547 294.282 158.338C294.338 169.632 292.993 169.638 300.467 162.754C302.488 160.892 304.84 159.522 306.871 157.714C305.374 152.519 303.939 147.869 304.677 142.406C305.786 134.21 313.559 127.499 321.483 126.031L321.701 125.966C323.495 125.463 325.443 125.324 327.29 125.089C323.752 130.291 323.245 133.383 329.88 137.885C339.476 144.398 348.024 128.258 347.35 141.304L346.653 151.414C348.899 151.304 359.498 150.375 361.287 149.841C358.846 139.675 351.374 131.199 342.553 125.77C335.927 121.691 330.116 122.314 322.647 122.71Z"/>
	<path fill="#3C7148" transform="scale(0.884375 0.884375)" d="M356.479 154.214L358.75 154.121C359.729 154.153 360.307 154.181 360.996 154.882C365.598 181.484 328.347 200.667 306.117 179.304L303.929 176.738C298.599 169.947 302.373 165.621 308.617 161.203C309.734 161.767 310.846 163.074 311.821 163.918C317.943 169.214 325.87 172.762 334.062 170.406L336.522 169.507C342.888 166.613 346.372 162.324 348.744 155.941C351.191 154.926 353.874 154.59 356.479 154.214Z"/>
</svg>
