<?xml version="1.0" encoding="utf-8" ?>
<svg xmlns="http://www.w3.org/2000/svg" xmlns:xlink="http://www.w3.org/1999/xlink" width="566" height="452">
	<path transform="scale(0.884375 0.884375)" d="M573.869 12.6797C590.335 12.0038 609.476 12.7081 623.764 22.1105C626.706 24.0461 630.757 28.1674 629.294 32.1588L629.141 34.255C629.416 34.0356 629.605 33.8464 629.826 33.5659L630.331 33.602C630.471 46.545 626.958 58.2435 622.635 70.3126C605.477 118.207 575.257 145.505 523.51 151.411L506.562 152.835C501.403 153.121 496.291 153.22 491.173 153.997C497.599 168.001 506.129 180.679 511.366 195.28C518.175 214.267 520.994 233.865 521.643 253.992L522.006 276.452C523.581 307.314 533.06 354.344 546.93 382.491C547.963 384.586 549.343 386.801 550.004 389.036L550.108 389.405C550.65 391.204 550.828 392.601 550.132 394.401L549.736 395.328C543.947 405.626 522.457 398.369 514.722 394.022C514.084 394.914 513.774 396.187 513.403 397.22L507.045 416.757C487.186 473.549 420.972 495.753 365.757 498.43C349.246 499.231 332.877 497.576 316.479 495.945C271.016 491.42 185.315 480.235 157.576 437.332C148.993 424.056 145.091 407.607 140.811 392.564C131.915 403.489 121.833 406.976 107.563 404.302C96.1704 402.168 85.8121 395.423 96.6504 384.374L104.24 376.467C125.989 351.697 135.481 320.247 136.695 287.726L137.121 262.328C138.006 246.062 140.133 230.104 143.565 214.188C146.428 202.919 149.55 191.798 153.965 181.013L166.258 153.311C162.272 151.57 157.785 151.864 153.514 151.69L124.688 147.995C73.6816 138.377 23.6993 103.127 15.2563 49.2619C12.4844 31.5776 18.8748 24.6212 34.1456 18.5485C60.5607 8.04397 87.6903 13.5205 113.799 21.6316C130.51 26.8228 175.299 43.9331 186.385 58.5333C187.977 60.6302 188.276 60.2857 190.797 60.2787L199.688 60.3151C211.935 60.7034 226.264 68.574 235.739 75.6525C233.782 67.8125 229.291 61.4334 224.578 54.9861C221.833 51.2314 215.116 45.0174 219.249 40.2597C229.201 28.8056 255.411 42.6786 264.83 48.1838C271.817 52.2678 278.864 56.5747 285.224 61.5992C292.786 67.5741 299.627 80.2623 298.309 63.6279C296.841 45.0932 283.103 34.6044 282.787 30.4643L282.773 30.1636C282.015 17.4623 299.734 23.7944 305.879 26.7677C322.617 34.8653 336.354 47.2481 346.392 62.761C347.399 61.4789 347.976 59.234 348.757 57.7337L353.915 48.8331C356.895 44.0069 370.365 25.8019 377.67 31.0318C384.769 36.114 375.77 44.325 377.031 51.1918L377.542 51.3716C378.997 50.1652 379.864 48.4465 380.89 46.8864C386.647 38.1315 394.105 31.2282 404.688 28.8282C408.713 27.9153 420.221 26.1935 420.327 32.4997C420.446 39.5851 396.032 49.7978 396.973 65.9681C397.535 75.6342 401.205 69.4167 404.67 65.9039C411.77 58.7054 420.25 54.0219 429.794 50.7103C433.808 49.3172 448.524 42.876 450.315 50.1467L450.46 50.7842C451.46 55.6402 433.145 72.013 436.596 86.5836C438.075 87.6383 444.963 80.7182 446.196 79.6557L472.046 56.225C501.322 31.1618 534.824 15.4311 573.869 12.6797ZM420.824 123.295C396.776 124.86 376.631 139.812 367.086 162.159C355.33 189.682 362.216 230.1 385.168 250.11C396.009 259.561 409.776 267.846 424.297 269.129C439.03 269.169 442.751 260.095 452.63 252.299C462.838 244.243 468.976 241.287 474.972 228.948C488.278 201.562 485.711 162.537 463.518 140.504C453.314 130.373 438.227 123.175 423.697 123.223L420.824 123.295ZM232.067 125.17C219.853 125.973 213.411 129.392 204.178 136.745C178.38 157.29 173.438 180.317 175.605 212.74C177.228 237.008 189.959 248.571 208.138 261.384C218.467 268.664 223.798 271.672 236.654 267.77C248.972 263.376 268.744 250.368 277.823 240.31C294.448 221.892 299.067 190.904 290.899 168.057C286.542 155.871 279.268 146.876 269.507 138.617C261.895 132.176 245.063 124.93 235.028 125.066C234.172 125.078 232.859 124.949 232.067 125.17ZM610.21 47.8703C605.374 47.7066 598.648 47.5159 593.957 48.25C562.84 53.1207 517.943 84.4072 500.862 112.235C521.398 107.536 542.575 98.6884 558.121 84.1801C562.473 80.1183 565.706 74.9048 570.119 71.0423C568.68 82.2282 561.889 91.8519 553.724 99.268C545.9 105.748 537.438 110.398 528.115 114.372C515.131 119.907 491.818 124.394 483.065 136.278C488.199 135.418 493.203 134.261 498.403 133.8C506.296 133.1 514.124 133.238 522.031 132.179C567.768 126.049 603.69 93.9097 611.691 47.6679C611.114 47.4445 610.802 47.5317 610.21 47.8703ZM32.4895 48.7573C34.7509 55.812 38.5634 62.5273 42.3428 68.872C63.1169 103.747 86.9201 121.134 126.12 129.063C135.392 130.939 144.917 132.025 153.788 135.507C148.154 127.727 140.427 122.926 132.269 118.159L110.302 105.514C98.9243 98.4874 88.8297 90.1026 88.5877 75.9495L89.2188 72.7638C91.6051 74.475 93.0323 78.4359 94.9954 80.7576C112.319 101.245 142.792 104.173 162.836 124.217C138.559 86.7845 113.228 62.4012 69.5312 53.1439L50.9742 50.1685C44.9173 49.3577 38.6039 48.6651 32.4895 48.7573ZM128.089 382.125C121.466 387.812 114.929 391.34 106.955 394.881C107.286 395.09 107.507 395.209 107.886 395.333C116.964 397.422 129.855 394.177 129.019 382.75L128.089 382.125ZM521.898 376.992C516.984 388.784 519.992 389.984 533.37 391.975L535.156 392.02L521.898 376.992Z"/>
	<path fill="#3C7148" transform="scale(0.884375 0.884375)" d="M579.549 29.8395L591.347 30.2062C542.655 40.4284 505.485 57.8504 481.173 103.11C476.189 112.39 472.278 121.691 470.667 132.161L467.038 129.166C462.705 125.711 458.209 122.987 453.305 120.427L453.325 120.12C457.377 116.063 460.14 110.602 463.129 105.74C469.71 95.0358 476.064 83.4559 484.238 73.883C504.41 50.2605 549.719 32.2954 579.549 29.8395Z"/>
	<path fill="#3C7148" transform="scale(0.884375 0.884375)" d="M60.6306 26.8207C96.033 26.9293 149.061 47.1856 174.091 73.9553C184.249 84.8195 190.26 99.1552 198.716 111.277C200.069 113.216 202.481 116.833 204.83 117.57C207.162 118.303 212.986 116.468 213.796 113.857L213.875 113.565C216.226 105.139 207.45 88.0208 204.427 80.2771C224.019 87.735 232.619 96.4856 244.094 113.621L244.591 114.403C244.123 114.73 242.068 114.246 241.406 114.196C223.708 112.863 205.116 119.938 191.833 131.379C188.191 134.516 184.928 137.7 180.784 140.208C179.756 134.416 179.597 128.553 178.374 122.762C174.65 105.13 164.189 89.865 152.227 76.7632C128.754 51.0542 98.585 36.7269 64.7376 31.2667L51.9531 29.234C47.9847 28.7841 44.04 28.7297 40.0557 28.5541C47.0529 27.0472 53.5112 26.8239 60.6306 26.8207Z"/>
	<path transform="scale(0.884375 0.884375)" d="M223.336 159.545L223.582 159.516C232.072 158.638 240.734 161.285 248.466 164.55C267.111 172.423 278.845 190.107 269.956 210.364C265.21 221.181 266.189 219.864 257.779 226.408C248.95 233.279 247.197 235.447 234.3 236.393L232.419 236.604C221.644 237.608 210.879 234.916 202.466 227.851C187.824 215.556 177.134 194.664 191.696 178.232C199.356 169.588 211.495 160.296 223.336 159.545ZM219.855 170.406C211.657 173.167 191.616 185.441 195.387 196.298C196.634 199.889 199.796 201.597 203.36 201.829C216.297 200.851 240.097 168.583 219.855 170.406ZM247.087 180.431C236.709 184.505 238.082 202.316 249.78 202.269C263.71 199.079 257.571 180.099 247.087 180.431Z"/>
	<path transform="scale(0.884375 0.884375)" d="M412.799 160.805C427.09 159.554 446.308 168.223 453.845 180.117C461.1 191.565 458.102 199.722 454.89 210.989C454.14 213.62 449.599 219.808 447.637 221.839L443.183 226.776C436.98 233.75 424.649 236.181 415.9 236.715C415.694 236.757 415.803 236.74 415.498 236.762C387.782 238.788 356.475 204.569 377.344 180.652C386.887 169.716 398.182 161.798 412.799 160.805ZM408.104 171.372C398.807 173.062 369.52 193.916 386.454 202.432C399.823 206.356 421.695 172.278 408.104 171.372ZM433.115 180.825C422.493 183.649 421.838 199.169 433.508 200.868C447.897 198.891 440.984 179.26 433.115 180.825Z"/>
	<path fill="#3C7148" transform="scale(0.884375 0.884375)" d="M401.317 115.516C376.455 125.057 358.635 146.685 353.987 173.056C346.396 216.124 365.213 247.73 400.821 269.552C415.434 278.507 432.508 285.314 446.572 271.103C450.093 267.545 453.025 263.421 456.58 259.907C462.952 253.608 471.316 250.109 477.136 243.028C487.42 230.517 490.696 213.538 493.294 197.985L494.761 200.906C502.909 218.842 503.769 239.261 503.792 258.627L503.894 295.367C503.981 298.779 504.885 302.037 505.026 305.392L505.257 326.013C505.267 335.748 505.185 345.247 503.992 354.93C498.534 399.229 471.144 444.994 429.773 463.743C403.646 475.584 375.726 483.277 346.959 483.352L311.49 480.952C241.805 472.607 172.758 457.559 149.917 380.718C142.335 355.211 149.33 333.183 151.459 307.422L155.41 239.341C156.787 227.076 158.85 214.845 163.23 203.257C164.933 208.124 165.632 212.823 166.807 217.801C172.856 243.406 183.176 251.781 202.494 266.521C216.206 276.984 220.864 281.561 238.986 274.325C250.872 269.58 273.419 256.091 282.845 246.659C309.047 220.441 308.242 164.979 283.981 137.689C279.65 132.817 274.558 128.834 269.959 124.249C270.345 123.53 270.54 123.603 271.292 123.359L271.478 107.576C271.485 102.406 271.636 97.1361 270.864 92.0147L266.186 68.4446C270.754 70.0467 281.041 79.9459 284.459 83.3521C289.638 88.5121 294.477 96.6259 301.406 99.3683C314.617 104.597 318.203 84.5037 317.564 75.1138C316.864 64.8165 314.142 53.6445 309.601 44.3268C325.918 56.597 333.195 74.8346 342.498 92.167L347.778 101.373C348.462 102.479 349.801 105.07 350.781 105.771C353.619 100.599 360.44 98.7145 363.5 93.2932C366.892 87.2836 367.403 79.7638 368.01 73.0211C368.548 67.0454 367.777 65.6612 374.112 64.3149L378.748 84.9793C380.574 91.2089 387.27 109.854 393.083 112.728C395.04 113.695 396.872 113.01 398.82 112.434L399.192 112.114C405.266 106.847 408.008 80.4331 420.026 73.1976C418.608 78.952 417.164 84.6225 417.409 90.6089C417.603 95.3563 420.546 108.057 424.531 111.187C431.346 112.248 432.364 107.814 436.081 103.352C439.755 98.9413 444.5 95.2025 449.288 92.0468C447.393 97.9964 442.261 109.572 443.906 115.5C444.674 116.321 445.642 116.482 446.47 117.141C443.016 116.606 439.554 114.934 436.119 114.108C424.18 111.24 413.046 112.312 401.317 115.516Z"/>
	<path transform="scale(0.884375 0.884375)" d="M322.753 295.139L335.206 295.154C337.805 295.184 340.705 295.084 343.246 295.649L351.048 297.007C359.724 298.768 386.614 309.085 376.572 321.637C373.342 325.673 368.899 328.873 364.983 332.202L346.309 348.727C337.594 356.472 334.53 357.382 332.025 369.575C329.505 381.843 329.485 393.6 329.516 406.068L329.753 426.15C367.99 422.811 399.195 413.657 420.892 378.53C422.959 375.183 424.74 371.522 427.48 368.665C424.009 397.55 392.817 424.774 366.364 432.982C354.907 436.537 342.907 437.895 330.973 438.464C304.494 439.067 284.707 432.636 263.169 416.718C250.752 407.541 230.831 390.017 228.612 374.006C227.434 365.509 234.908 379.047 235.608 380.02C254.814 406.737 288.363 421.391 319.898 426.522L319.356 406.826C318.607 376.426 316.252 369.928 296.098 349.803L279.676 333.074C276.416 329.711 272.54 326.099 269.959 322.191C255.188 299.825 312.063 295.639 322.753 295.139Z"/>
	<path fill="#2E3831" transform="scale(0.884375 0.884375)" d="M322.212 314.278L354.537 314.719C350.501 317.189 346.751 319.852 343.125 322.892L333.982 331.089C331.211 333.618 328.606 336.135 325.021 337.426C323.521 337.284 321.574 333.555 320.603 332.211C316.195 326.111 310.07 320.08 303.125 316.986C300.053 315.618 296.422 316.687 293.138 315.904C302.489 313.827 312.683 314.338 322.212 314.278Z"/>
</svg>
