<?xml version="1.0" encoding="utf-8" ?>
<svg xmlns="http://www.w3.org/2000/svg" xmlns:xlink="http://www.w3.org/1999/xlink" width="566" height="492">
	<path fill="#FFEE6A" d="M383.895 44.3563C389.849 41.2882 390.96 45.5055 388.814 50.8157C386.382 50.1772 384.509 46.576 383.895 44.3563Z"/>
	<path fill="#FFCF01" d="M185.964 46.9956C190.347 55.4201 196.09 63.5069 205.276 67.0002C205.824 67.2088 206.677 67.3776 207.093 67.7857C204.232 71.5766 200.6 74.9227 198.166 78.9758L198.078 79.0993L197.802 79.1409C196.235 80.6305 194.669 81.0668 194.61 78.0843C195.341 76.9565 195.976 75.9104 196.201 74.5671L196.804 71.8142C185.334 65.0041 180.862 62.3634 179.635 46.9966C181.607 47.2838 183.645 47.3944 185.614 47.0576L185.964 46.9956Z"/>
	<path d="M185.964 46.9956L179.875 33.6174C178.832 30.547 177.103 24.3118 178.782 21.2831C182.639 14.3273 187.035 25.3784 188.286 27.7888C192.513 35.9383 198.072 44.7306 206.207 49.4708C215.427 54.8433 222.698 48.8152 230.774 44.4503C236.169 41.5337 241.542 38.7411 247.356 36.7274C273.625 27.6289 304.875 29.259 329.898 41.0658C337.385 44.5982 347.814 52.5174 356.614 50.1036L356.928 50.0137C368.47 47.0207 374.99 35.2988 379.694 25.2942C380.828 22.8828 385.099 12.5156 389.062 19.0308L389.209 19.2868C391.904 23.7931 385.775 39.4629 383.728 43.5229L383.895 44.3563C384.509 46.576 386.382 50.1772 388.814 50.8157C387.448 54.2334 385.883 57.6187 383.421 60.4042C376.574 68.1518 373.627 65.7076 373.205 78.9044L372.86 85.9686C384.363 113.837 406.144 133.842 433.888 145.378C452.487 153.111 476.037 158.813 495.432 150.625C508.431 145.137 519.58 133.178 522.23 119.054C522.713 116.479 522.286 113.178 523.508 110.872C526.054 106.067 532.17 107.307 533.941 112.22L534.596 114.801C535.23 117.723 534.984 121.066 534.813 124.027C532.727 160.213 495.981 210.988 460.023 218.103C439.135 222.236 419.062 215.346 404.1 200.648C396.09 230.989 376.452 261.893 352.676 281.992C364.051 299.907 373.679 318.321 381.776 337.939L387.999 352.969C396.59 376.661 400.299 401.675 400.227 426.815L420.546 424.647C427.174 423.993 434.423 423.176 441.036 424.268C449.766 425.71 462.334 431.865 466.285 440.473C467.173 442.408 467.6 444.536 468.381 446.515C469.661 449.756 473.58 448.086 472.14 453.112L472.061 453.411C470.24 459.669 458.78 459.493 453.504 456.848C450.841 455.513 447.024 459.145 444.872 460.594C438.119 465.142 432.065 468.242 427.82 459.535L428.109 463.545C428.427 466.687 426.828 472.282 422.85 471.71C421.392 471.5 421.966 470.622 420.044 470.95L416.087 471.434C407.067 472.274 390.649 472.917 384.54 464.411C383.405 462.831 377.07 449.979 376.727 447.913L376.659 447.537C376.436 446.16 376.667 445.017 377.485 443.875L377.883 443.36C378.921 441.823 379.905 440.599 381.569 439.698C381.553 439.206 381.597 439.255 381.303 438.792L381.037 438.804C373.953 439.2 367.236 445.038 363.438 450.648C361.711 453.199 360.281 458.209 356.514 458.256C350.918 455.808 355.757 448.997 358.053 445.862C363.479 438.453 371.996 431.038 380.518 427.252C379.219 410.666 359.6 376.58 349.881 361.698L311.014 308.334C310.464 307.663 308.376 308.915 307.6 309.151C297.074 312.351 282.748 314.093 271.642 312.271L255.241 309.366C254.994 309.724 255.07 309.555 254.941 309.997C253.572 314.659 250.418 318.314 247.627 322.197L229.764 349.121L209.161 385.764C202.039 399.599 194.89 413.507 192.583 429.118C193.444 430.196 208.591 435.719 213.132 439.253C220.215 444.765 226.699 457.947 213.842 450.069C210.987 448.32 207.753 447.07 204.512 446.271L204.21 447.188C204.334 448.503 203.809 449.726 203.405 450.954C198.436 466.038 187.138 469.581 173.162 469.614L156.674 469.69C153.617 469.738 150.378 469.663 147.352 470.128C141.945 470.958 136.469 473.15 132.471 468.018C132.018 467.438 125.844 468.005 124.508 467.797L124.089 467.728C117.958 466.813 115.014 461.276 110.099 460.067L107.943 459.523C101.561 461.784 102.299 458.87 97.55 457.791L97.1431 457.723C92.0736 456.709 87.6708 452.061 94.0661 448.706C94.826 448.308 95.2094 446.634 95.5525 445.817C104.038 425.607 122.58 421.697 141.827 423.635C153.024 424.763 163.559 427.651 174.165 428.753C174.452 421.361 173.984 413.936 174.566 406.554C176.87 377.31 186.957 346.324 199.366 320.025L212.447 293.065C213.504 290.984 214.268 291.204 212.345 289.975C185.98 273.12 163.774 232.924 155.144 202.285C140.035 214.19 131.72 220.901 110.373 220.395C72.1771 219.489 43.3445 181.44 34.1424 147.328C30.7276 134.669 30.0659 120.942 33.4858 108.212C35.3625 101.226 42.6635 96.951 46.5229 104.268L46.701 104.619C47.3652 105.866 47.4334 107.464 47.1644 108.848C43.8568 125.869 54.3579 143.138 69.4384 150.59C93.066 162.264 144.549 144.779 163.551 129.285C179.247 116.486 189.316 96.9674 198.078 79.0993L198.166 78.9758C200.6 74.9227 204.232 71.5766 207.093 67.7857C206.677 67.3776 205.824 67.2088 205.276 67.0002C196.09 63.5069 190.347 55.4201 185.964 46.9956ZM229.313 59.3154C212.254 73.4947 204.59 86.1095 194.193 105.653C187.236 118.73 165.501 146.418 150.073 150.628L150.363 151.485C147.942 151.335 142.345 154.608 141.393 156.684L141.277 157.045L140.802 157.15C140.031 157.048 139.115 157.028 138.464 156.583L138.881 154.889L133.656 157.364C133.262 157.354 132.297 157.929 131.897 158.114C123.686 161.912 123.122 160.683 114.58 161.95C109.462 162.708 104.465 164.184 99.3825 165.139C84.063 168.018 67.6679 164.112 54.8658 155.281L49.4777 150.614C50.5043 153.035 51.5204 155.646 52.8743 157.899C53.0182 158.492 53.5693 159.263 53.8676 159.805L56.9356 164.937C67.2348 181.448 82.9709 199.316 102.73 203.791C118.268 207.31 136.143 201.392 147.659 190.779C156.54 182.593 161.589 170.45 167.039 189.618L169.731 198.378C179.326 228.126 196.549 261.007 222.86 279.429C257.652 303.79 301.317 303.943 335.579 279.19C362.894 259.456 382.021 224.763 390.404 192.709C391.449 188.715 392.271 184.337 392.602 180.229C392.93 176.16 392.349 170.824 393.707 167.014C394.967 163.48 399.127 163.198 401.464 165.997C403.369 168.28 404.412 172.033 405.704 174.746C416.71 197.86 438.28 210.743 463.606 201.482C481.95 194.775 505.518 171.293 513.907 152.978C485.609 173.995 436.056 165.77 408.494 145.863C394.656 135.868 383.482 123.982 374.876 109.208L360.397 84.4416C352.008 70.9386 346.052 65 332.462 55.5098C331.446 58.0548 324.811 53.9828 322.496 53.0183C323.327 52.5792 323.739 52.6263 324.317 51.8286L322.157 49.3391C314.614 45.484 305.103 42.0987 296.593 41.4606C280.441 38.2141 250.537 44.5722 237.433 53.2466L229.313 59.3154ZM383.466 372.157L357.226 305.882C354.579 299.303 350.664 293.169 347.136 287.031L346.88 286.962C338.086 293.644 328.057 298.65 318.102 303.376C326.249 311.987 333.192 321.373 340.184 330.921L365.613 369.298C373.756 383.168 380.829 397.16 385.291 412.637L388.384 423.461C389.29 426.499 390.157 429.477 391.861 432.177C394.799 417.975 387.705 385.484 383.466 372.157ZM204.854 325.763C206.229 326.542 207.059 328.101 207.021 329.666L206.329 330.586C205.098 332.078 203.709 335.603 201.886 336.278L200.73 336.011L186.791 385.377C184.849 392.89 180.479 420.572 182.416 428.032C186.488 428.492 185.736 425.157 186.469 421.979L188.848 412.884C192.332 401.463 196.577 390.678 201.751 379.917L212.984 358.279C216.995 350.851 221.048 343.431 225.63 336.335L238.834 316.678C241.075 313.305 243.562 309.911 245.297 306.245L221.09 294.703C215.733 303.148 208.594 316.261 204.854 325.763ZM204.854 325.763C203.318 328.779 201.545 332.728 200.73 336.011L201.886 336.278C203.709 335.603 205.098 332.078 206.329 330.586L207.021 329.666C207.059 328.101 206.229 326.542 204.854 325.763ZM150.073 150.628L138.881 154.889L138.464 156.583C139.115 157.028 140.031 157.048 140.802 157.15L141.277 157.045L141.393 156.684C142.345 154.608 147.942 151.335 150.363 151.485L150.073 150.628Z"/>
	<path fill="#FFF6A9" d="M322.157 49.3391C325.807 51.0989 329.095 53.2767 332.462 55.5098C331.446 58.0548 324.811 53.9828 322.496 53.0183C323.327 52.5792 323.739 52.6263 324.317 51.8286L322.157 49.3391Z"/>
	<path fill="#FFCF01" d="M383.728 43.5229L383.895 44.3563C384.509 46.576 386.382 50.1772 388.814 50.8157C387.448 54.2334 385.883 57.6187 383.421 60.4042C376.574 68.1518 373.627 65.7076 373.205 78.9044L372.86 85.9686L360.892 65.9672C376.8 57.9605 376.083 57.0363 383.728 43.5229Z"/>
	<path fill="#FFEE6A" d="M372.339 64.8169L372.704 65.0964C372.733 66.4808 369.578 73.6329 368.864 74.491C366.567 74.086 370.436 66.5287 372.339 64.8169Z"/>
	<path fill="#FFCF01" d="M381.569 439.698L381.939 439.842C395.322 435.398 413.342 435.294 427.367 435.283C432.056 435.28 440.333 433.6 442.415 439.207L442.175 439.657C441.11 439.319 440.633 439.074 439.562 439.591L438.398 440.386C438.113 444.221 448.348 450.308 437.045 455.173C433.711 452.083 430.223 444.515 425.454 444.722C423.797 444.794 414.888 447.793 414.427 448.599C413.395 450.404 414.397 454.802 414.683 456.804C410.904 454.413 405.536 449.835 400.852 451.012C393.33 452.903 412.255 464.166 415.597 465.359C407.213 465.838 393.83 465.532 387.037 459.547C384.761 457.542 377.678 449.086 377.559 445.84L377.883 443.36C378.921 441.823 379.905 440.599 381.569 439.698Z"/>
	<path fill="#FFCF01" d="M131.422 434.32C147.971 433.022 160.591 437.804 175.914 439.615C179.789 440.073 183.348 438.855 187.187 439.705C192.625 440.909 197.972 443.623 203.034 445.913C202.97 446.607 202.455 447.356 202.134 447.973C193.562 464.493 169.165 465.567 168.518 461.962C167.827 458.108 167.809 454.611 165.329 451.384C162.33 449.144 160.765 451.147 158.989 453.645C155.606 458.402 154.657 463.139 148.824 463.186C144.667 463.219 143.265 465.523 142.302 461.449C141.036 456.099 140.073 449.81 135.271 446.265C130.244 442.554 129.305 456.615 128.189 458.97C126.094 463.391 120.842 456.268 119.875 453.254C118.396 448.644 122.767 442.735 124.751 438.792L124.365 438.363C121.099 438.184 118.309 439.898 115.372 441.138C119.241 436.132 125.537 435.234 131.422 434.32Z"/>
	<path fill="#FFCF01" d="M204.854 325.763C208.594 316.261 215.733 303.148 221.09 294.703L245.297 306.245C243.562 309.911 241.075 313.305 238.834 316.678L225.63 336.335C221.048 343.431 216.995 350.851 212.984 358.279L201.751 379.917C196.577 390.678 192.332 401.463 188.848 412.884L186.469 421.979C185.736 425.157 186.488 428.492 182.416 428.032C180.479 420.572 184.849 392.89 186.791 385.377L200.73 336.011L201.886 336.278C203.709 335.603 205.098 332.078 206.329 330.586L207.021 329.666C207.059 328.101 206.229 326.542 204.854 325.763ZM207.021 329.666L206.329 330.586C205.098 332.078 203.709 335.603 201.886 336.278L200.73 336.011L186.791 385.377C190.217 381.869 191.978 375.189 194.055 370.832L205.421 347.699C207.263 344.251 215.367 333.491 215.028 331.685C213.375 329.872 209.288 328.297 207.021 329.666Z"/>
	<path fill="#FFCF01" d="M383.466 372.157C387.705 385.484 394.799 417.975 391.861 432.177C390.157 429.477 389.29 426.499 388.384 423.461L385.291 412.637C380.829 397.16 373.756 383.168 365.613 369.298L340.184 330.921C333.192 321.373 326.249 311.987 318.102 303.376C328.057 298.65 338.086 293.644 346.88 286.962L347.136 287.031C350.664 293.169 354.579 299.303 357.226 305.882L383.466 372.157ZM383.466 372.157L357.226 305.882C345.956 317.864 349.806 316.975 358.428 329.845C363.533 337.465 368.74 345.466 372.882 353.648L378.797 365.737C379.668 367.609 380.704 372.106 382.354 373.362L383.466 372.157Z"/>
	<path fill="#FFCF01" d="M229.313 59.3154L237.433 53.2466C250.537 44.5722 280.441 38.2141 296.593 41.4606C305.103 42.0987 314.614 45.484 322.157 49.3391L324.317 51.8286C323.739 52.6263 323.327 52.5792 322.496 53.0183C324.811 53.9828 331.446 58.0548 332.462 55.5098C346.052 65 352.008 70.9386 360.397 84.4416L374.876 109.208C383.482 123.982 394.656 135.868 408.494 145.863C436.056 165.77 485.609 173.995 513.907 152.978C505.518 171.293 481.95 194.775 463.606 201.482C438.28 210.743 416.71 197.86 405.704 174.746C404.412 172.033 403.369 168.28 401.464 165.997C399.127 163.198 394.967 163.48 393.707 167.014C392.349 170.824 392.93 176.16 392.602 180.229C392.271 184.337 391.449 188.715 390.404 192.709C382.021 224.763 362.894 259.456 335.579 279.19C301.317 303.943 257.652 303.79 222.86 279.429C196.549 261.007 179.326 228.126 169.731 198.378L167.039 189.618C161.589 170.45 156.54 182.593 147.659 190.779C136.143 201.392 118.268 207.31 102.73 203.791C82.9709 199.316 67.2348 181.448 56.9356 164.937L53.8676 159.805C53.5693 159.263 53.0182 158.492 52.8743 157.899C51.5204 155.646 50.5043 153.035 49.4777 150.614L54.8658 155.281C67.6679 164.112 84.063 168.018 99.3825 165.139C104.465 164.184 109.462 162.708 114.58 161.95C123.122 160.683 123.686 161.912 131.897 158.114C132.297 157.929 133.262 157.354 133.656 157.364L138.881 154.889L138.464 156.583C139.115 157.028 140.031 157.048 140.802 157.15L141.277 157.045L141.393 156.684C142.345 154.608 147.942 151.335 150.363 151.485L150.073 150.628C165.501 146.418 187.236 118.73 194.193 105.653C204.59 86.1095 212.254 73.4947 229.313 59.3154ZM200.994 149.673C197.945 152.568 200.94 158.116 202.237 161.263C216.19 195.134 243.666 220.107 282.053 220.561C309.238 220.882 332.268 207.842 348.112 185.88C351.39 181.018 361.958 161.976 361.145 156.521L361.074 156.235C358.465 154.896 351.077 160.669 348.775 161.924C314.309 180.713 277.369 182.257 240.927 169.537C229.633 165.595 219.613 161.326 209.678 154.591C207.808 153.324 203.408 149.05 200.994 149.673ZM296.593 41.4606C294.892 41.6086 287.426 42.1068 286.455 41.9032L286.779 42.2802C290.565 43.1693 286.25 43.0954 285.402 43.3389C295.671 44.3924 312.814 48.7561 322.496 53.0183C323.327 52.5792 323.739 52.6263 324.317 51.8286L322.157 49.3391C314.614 45.484 305.103 42.0987 296.593 41.4606ZM150.363 151.485C147.942 151.335 142.345 154.608 141.393 156.684L141.277 157.045C149.074 156.67 151.927 155.555 158.263 151.004C154.88 151.047 153.691 154.446 150.518 151.628L150.363 151.485ZM254.967 51.1756L250.059 51.8274L251.394 52.1022C251.618 52.4438 251.785 52.733 251.914 53.1277C259.03 52.7255 263.284 52.3791 270.468 51.4083C265.701 49.9689 259.959 51.0834 254.967 51.1756Z"/>
	<path fill="#FFEE6A" d="M133.656 157.364L138.881 154.889L138.464 156.583C139.115 157.028 140.031 157.048 140.802 157.15C138.803 157.149 135.37 158.183 133.656 157.364Z"/>
	<path fill="#FFFFD6" d="M240.97 56.2838L241.026 55.0387C243.45 53.2861 247.189 52.5802 250.059 51.8274L251.394 52.1022C251.618 52.4438 251.785 52.733 251.914 53.121C248.175 53.7793 244.5 54.8928 240.97 56.2838Z"/>
	<path fill="#FFEE6A" d="M229.313 59.3154L237.433 53.2466C250.537 44.5722 280.441 38.2141 296.593 41.4606C294.892 41.6086 287.426 42.1068 286.455 41.9032L286.779 42.2802C290.565 43.1693 286.25 43.0954 285.402 43.3389C272.789 43.2916 272.036 44.2222 261.305 47.7994C258.47 48.7444 255.397 49.3387 252.732 50.7202L254.967 51.1756L250.059 51.8274C247.189 52.5802 243.45 53.2861 241.026 55.0387L240.97 56.2838C239.096 57.4667 231.208 61.4356 229.313 59.3154Z"/>
	<path d="M328.992 66.1776C336.191 66.4162 341.685 67.4058 346.947 72.7915C359.48 85.6213 359.248 100.766 346.256 113.153C348.048 121.59 342.332 127.714 334.587 129.44C329.993 129.176 326.037 125.833 322.725 122.906C314.317 115.477 307.17 106.157 306.526 94.4967C305.738 80.2169 314.011 67.0436 328.992 66.1776Z"/>
	<path fill="white" d="M324.479 112.796C330.762 114.715 335.616 114.752 342.111 114.382C341.395 115.72 340.669 116.821 339.664 117.959C333.067 123.36 327.728 119.315 324.479 112.796Z"/>
	<path fill="white" d="M331.147 72.769C354.464 72.2597 358.521 108.187 335.939 111.176C308.619 113.377 309.975 76.5224 331.147 72.769Z"/>
	<path d="M331.44 75.258C344.611 74.5071 351.032 93.9122 336.852 96.4014C324.932 97.106 318.001 79.1493 331.44 75.258Z"/>
	<path fill="white" d="M332.283 77.8079C333.674 77.552 335.636 77.8988 336.162 79.4663C333.819 82.7632 336.612 86.5327 331.779 89.1332C324.952 88.0634 327.718 80.421 332.283 77.8079Z"/>
	<path d="M242.289 67.5467L242.387 67.5203C269.277 64.7511 273.653 98.6593 259.777 116.572C254.715 123.108 248.034 128.175 239.732 129.262C225.754 130.36 216.179 114.208 214.616 102.207C212.215 83.7581 224.11 69.8036 242.289 67.5467Z"/>
	<path fill="white" d="M238.803 84.1652C243.505 83.4882 243.85 87.4858 240.369 90.9488C236.179 93.2299 235.463 85.726 238.803 84.1652Z"/>
	<path fill="white" d="M242.935 76.3433C263.874 75.3285 259.597 107.302 252.894 110.338L252.428 110.472C243.025 113.333 235.973 109.723 227.607 108.089C231.962 117.408 243.548 116.752 252.238 114.57L251.981 115.075C247.48 122.477 239.926 125.753 232.227 121.123C227.442 117.545 225.885 112.033 224.809 106.461C222.538 94.6942 223.342 82.3214 235.906 77.3827C222.363 91.4427 235.559 106.461 243.404 98.6016C249.053 92.9415 251.924 82.8561 241.127 80.686C234.637 79.3816 239.579 77.0372 242.935 76.3433Z"/>
	<path d="M200.994 149.673C203.408 149.05 207.808 153.324 209.678 154.591C219.613 161.326 229.633 165.595 240.927 169.537C277.369 182.257 314.309 180.713 348.775 161.924C351.077 160.669 358.465 154.896 361.074 156.235L361.145 156.521C361.958 161.976 351.39 181.018 348.112 185.88C332.268 207.842 309.238 220.882 282.053 220.561C243.666 220.107 216.19 195.134 202.237 161.263C200.94 158.116 197.945 152.568 200.994 149.673ZM217.127 171.523C219.676 175.75 222.123 180.167 226.27 183.028L229.297 180.266C230.12 179.633 231.108 179.014 231.786 178.233L217.127 171.523Z"/>
	<path fill="white" d="M345.382 173.72L345.838 173.714C343.447 181.744 328.071 183.295 321.553 183.955L321.148 182.842C321.912 182.226 342.103 175.248 345.382 173.72Z"/>
	<path fill="white" d="M234.116 179.514C242.153 182.205 250.075 184.674 258.412 186.264L273.549 188.624C287.688 191.342 301.159 187.786 315.165 186.961C309.717 191.554 302.202 194.909 298.625 201.244C307.494 199.681 315.94 190.797 327.182 187.908L333.84 186.649C330.764 191.02 326.881 194.073 322.492 197.031C305.712 208.336 288.337 210.809 268.588 207.23C259.517 205.586 234.138 197.025 232.432 188.784C232.923 187.576 233.895 187.041 235.152 187.039L235.05 186.65C232.654 187.455 234.109 182.304 234.116 179.514Z"/>
	<path d="M248.876 189.437C258.82 190.018 267.919 196.486 276.318 196.7L286.692 196.541C294.334 196.207 294.109 195.969 289.299 202.429C285.983 204.901 257.261 197.443 252.892 196.082C249.238 194.943 239.865 190.555 248.876 189.437Z"/>
</svg>
