<?xml version="1.0" encoding="utf-8" ?>
<svg xmlns="http://www.w3.org/2000/svg" xmlns:xlink="http://www.w3.org/1999/xlink" width="566" height="452">
	<path transform="scale(0.884375 0.884375)" d="M378.421 29.0946L380.047 29.0403C390.772 29.5828 407.285 54.4837 410.906 63.7561C411.758 65.9396 413.909 70.4544 411.406 72.2172L410.469 71.9807C407.04 68.4998 405.275 63.6477 402.942 59.4101C398.075 50.5698 391.365 42.5689 383.114 36.6927C379.276 33.9592 372.665 32.1761 378.421 29.0946Z"/>
	<path transform="scale(0.884375 0.884375)" d="M407.1 326.689C410.997 330.704 413.808 332.551 418.45 335.551C444.984 352.695 450.718 378.726 458.969 406.179C467.499 434.564 483.222 465.984 514.929 472.983C519.713 474.039 523.389 474.209 528.223 473.562C540.095 471.971 532.885 488.047 503.563 476.469C477.239 466.075 461.348 440.052 449.196 415.922L439.655 396.568C431.812 379.887 424.965 362.198 408.561 351.926C402.769 348.299 397.633 348.129 395.626 338.993L395.538 338.582C393.629 340.438 387.339 346.848 385.129 347.278L384.814 347.572C386.233 353.645 364.643 364.886 360.096 367.466C345.376 375.819 325.306 380.904 308.656 375.81C308.137 375.651 307.687 376.222 307.188 376.32C303.025 377.139 296.305 373.502 292.567 372.038C275.184 365.227 261.566 355.321 250.4 340.044C244.204 347.798 241.645 346.966 233.906 351.138C216.737 360.396 210.987 374.036 203.08 390.528C185.624 426.936 166.357 474.834 120.312 479.899C105.131 481.57 102.414 472.045 114.129 473.605C133.649 476.203 154.341 459.262 164.7 444.309C175.204 429.147 180.458 410.836 185.436 393.298C188.95 380.918 190.443 374.266 197.259 363.465C210.826 341.967 221.266 339.04 241.812 326.569L235.355 318.149C230.84 312.241 227.435 306.813 224.245 300.104C223.548 298.639 222.679 296.096 221.425 295.084C214.847 289.777 173.897 303.374 165.312 304.751C160.437 305.534 155.169 306.206 150.241 306.395L102.344 308.174C64.0209 312.19 39.742 326.792 41.1647 368.416C41.3536 373.942 36.0867 373.905 35.155 366.599C32.6619 347.049 41.532 327.839 56.5373 315.39C88.083 289.218 124.953 294.165 161.4 287.495L198.049 280.086C203.624 279.127 209.688 277.851 215.338 278.38L210.352 263.707C205.468 263.655 200.288 263.898 195.468 263.06L181.978 261.188L131.287 249.335C89.1262 238.457 45.8543 222.41 17.5689 266.9C14.5707 271.615 12.1723 276.569 9.45702 281.433C7.92243 284.183 4.41874 283.958 4.73749 280.85C4.99835 278.306 6.84313 275.079 7.98883 272.767C35.9374 216.382 93.0753 224.793 145.947 235.969L205.258 248.281C204.989 246.662 203.436 233.206 203.26 233.011C203.014 232.738 201.688 232.617 201.306 232.566L188.941 231.3C156.077 226.592 126.692 211.808 103.829 187.559C93.3363 176.43 84.452 162.952 68.4563 159.635C58.1834 157.506 60.1796 160.548 64.3397 167.006L71.6797 178.056C76.1725 185.087 73.9549 189.031 69.8566 184.256C62.595 175.797 41.8478 149.881 68.75 153.762C85.8502 156.228 100.115 170.505 114.121 179.633C134.035 192.612 156.071 204.689 178.698 212.117L199.874 218.152C199.037 212.837 197.806 207.522 197.329 202.16C194.154 166.476 207.635 128.964 235.83 106.255C239.122 103.604 245.537 100.849 246.113 98.1189C247.843 89.9175 249.471 82.1317 252.822 74.3932C283.857 2.72266 409.52 16.7792 410.252 107.103C410.266 108.91 409.821 112.454 410.418 113.989L414.38 114.368C425.139 116.039 443.799 131.717 449.902 140.232C464.594 160.731 459.863 195.667 456.074 218.93C474.459 214.188 490.016 202.518 505.64 192.249L534.6 173.233C546.775 164.974 559.62 154.288 575.025 153.645C581.12 153.391 588.004 156.537 585.102 163.974C583.043 169.251 578.421 174.505 574.965 178.976C566.797 189.542 562.622 186.215 569.844 176.086C575.404 168.288 587.885 156.383 569.728 161.095C552.357 165.603 541.455 182.392 528.991 194.071C502.318 219.062 483.622 223.487 450.886 233.568C448.966 237.893 448.297 243.273 446.959 247.842C457.481 247.804 475.552 241.852 485.774 238.999L512.34 232.363C560.704 221.892 608.119 224.198 632.005 272.695C633.253 275.229 638.753 283.61 632.969 284.432C629.774 282.308 627.669 276.536 625.868 273.113C616.417 255.151 599.982 240.066 579.165 237.401C564.63 235.54 549.087 239.21 535.029 242.565L497.06 252.626C478.939 257.685 461.704 262.15 442.803 263.007L434.925 278.841C451.433 278.361 465.654 284.646 481.481 287.414C513.854 293.075 538.23 290.366 569.418 306.04C594.752 318.772 609.547 340.128 605.273 369.621C604.783 373 600.548 372.512 600.183 369.322C599.952 367.29 600.138 365.107 600.108 363.057C599.091 294.504 517.532 311.938 472.931 303.757C458.502 301.11 449.12 295.138 432.447 294.19C422.613 293.631 428.685 296.497 423.764 303.23C422.35 305.164 420.324 306.746 419.044 308.758C417.053 311.892 415.245 315.441 413.052 318.869C411.064 321.449 408.584 323.769 407.1 326.689Z"/>
	<path fill="#2C2D30" transform="scale(0.884375 0.884375)" d="M407.1 326.689C406.475 324.998 403.799 327.511 402.89 328.113C404.418 326.265 410.954 314.37 412.234 314.023L413.052 318.869C411.064 321.449 408.584 323.769 407.1 326.689Z"/>
	<path fill="#FFF001" transform="scale(0.884375 0.884375)" d="M245.161 116.136C245.629 118.643 245.77 121.195 246.281 123.702C264.299 212.093 393.202 210.706 409.198 122.345C415.097 127.217 423.944 131.233 428.323 137.135C428.727 141.549 427.386 146.554 426.084 150.74C423.324 158.883 417.732 165.346 411.491 171.105C382.036 198.285 340.395 206.672 301.94 197.828C274.868 191.602 222.94 170.985 225.48 135.764C225.763 131.846 229.784 129.141 232.492 126.761L245.161 116.136Z"/>
	<path fill="white" transform="scale(0.884375 0.884375)" d="M325.757 34.5397L326.567 34.4813C393.607 31.2341 428.657 109.555 382.526 159.387C369.469 173.49 349.751 181.525 330.687 182.242L330.479 182.239C328.045 182.662 324.633 182.118 322.19 181.956C286.787 179.607 255.6 151.556 252.955 115.4C249.601 69.5397 280.825 37.6235 325.757 34.5397Z"/>
	<path transform="scale(0.884375 0.884375)" d="M326 80.1461C375.983 78.1274 386.146 154.834 333.685 158.585C300.847 161.666 278.027 120.403 299.96 94.1493C306.624 86.1737 315.612 81.1086 326 80.1461Z"/>
	<path fill="white" transform="scale(0.884375 0.884375)" d="M324.398 99.7836C337.283 99.171 338.33 116.154 325.422 118.862C310.262 118.849 311.693 102.082 324.398 99.7836Z"/>
	<path fill="white" transform="scale(0.884375 0.884375)" d="M213.401 171.897C214.12 164.329 215.681 156.296 218.023 149.068C231.416 181.325 274.207 199.053 306.78 205.167C348.487 212.996 391.818 201.023 422.012 170.529L428.602 163.308C430.598 160.942 432.442 158.047 435.185 156.519C448.986 162.916 444.683 197.686 442.267 210.52C439.504 225.199 433.962 239.59 428.261 253.349L420.595 271.53C416.871 279.496 412.288 286.636 408.016 294.268C404.511 300.532 401.421 307.397 397.055 313.122C395.476 315.006 389.466 322.103 387.012 319.949C382.482 324.512 375.07 332.965 372.416 338.202C370.742 341.505 371.217 339.897 367.904 341.585C365.933 342.588 352.833 351.484 352.797 351.97C352.734 352.846 352.773 353.876 351.658 353.562C344.642 351.592 339.847 358.835 334.639 362.019C327.258 366.531 323.286 362.471 316.184 359.932C307.286 356.75 298.531 354.78 290.059 350.2L275.769 341.847C260.589 331.397 242.232 301.127 233.936 283.418C227.385 269.433 217.939 242.977 215.184 228.133C211.946 209.69 210.312 190.492 213.401 171.897Z"/>
	<path fill="#FFFB98" transform="scale(0.884375 0.884375)" d="M227.589 243.685L229.804 243.561C230.116 244.627 230.344 245.738 230.993 246.655C229.911 246.566 229.338 246.955 228.452 247.567L227.589 243.685Z"/>
	<path fill="#512934" transform="scale(0.884375 0.884375)" d="M229.804 243.561C235.094 242.097 235.122 244.84 230.993 246.655C230.344 245.738 230.116 244.627 229.804 243.561Z"/>
	<path transform="scale(0.884375 0.884375)" d="M218.963 194.161C219.748 191.828 220.358 189.536 222.344 187.932L223.053 188.015C223.868 190.766 220.639 195.482 218.493 197.053L218.963 194.161Z"/>
	<path transform="scale(0.884375 0.884375)" d="M222.944 222.937C226.503 220.024 229.916 225.743 225.781 227.346C224.404 227.109 223.775 226.231 223.242 225.048L222.944 222.937Z"/>
	<path fill="#E3E3DE" transform="scale(0.884375 0.884375)" d="M387.012 319.949C388.97 316.748 392.492 314.811 395.252 312.402L397.055 313.122C395.476 315.006 389.466 322.103 387.012 319.949Z"/>
	<path transform="scale(0.884375 0.884375)" d="M219.621 207.787C225.845 202.72 225.385 209.333 221.816 212.785L220.949 213.547C219.834 211.519 219.759 210.074 219.621 207.787Z"/>
	<defs>
		<linearGradient id="gradient_0" gradientUnits="userSpaceOnUse" x1="273.578" y1="321.54599" x2="265.76099" y2="323.46701">
			<stop offset="0" stop-color="#422A1C"/>
			<stop offset="1" stop-color="#2E2326"/>
		</linearGradient>
	</defs>
	<path fill="url(#gradient_0)" transform="scale(0.884375 0.884375)" d="M260.869 314.809C261.479 316.567 266.236 321.427 268.558 321.537C272.13 321.707 274.395 321.156 275.918 325.089C274.929 325.477 273.956 325.351 272.916 325.303L269.177 325.009C265.471 324.281 262.131 318.868 260.148 315.84L260.869 314.809Z"/>
	<path fill="#2C2D30" transform="scale(0.884375 0.884375)" d="M259.496 305.482C263.818 306.822 269.073 311.086 260.303 312.828C260.163 313.524 260.599 314.16 260.869 314.809L260.148 315.84C258.98 314.28 258.035 312.732 257.222 310.962L256.159 308.856L257.031 307.754L256.406 305.945L257.778 306.364L259.496 305.482Z"/>
	<path fill="#FED5A5" transform="scale(0.884375 0.884375)" d="M256.159 308.856L257.031 307.754L256.406 305.945L257.778 306.364L258.019 306.576C259.347 307.723 260.783 308.344 262.114 309.607C261.407 312.576 259.282 311.864 257.222 310.962L256.159 308.856Z"/>
	<path transform="scale(0.884375 0.884375)" d="M238.673 275.031C241.979 282.776 245.213 291.185 250.766 297.626C251.996 299.094 253.201 300.742 254.692 301.949L254.583 302.277C254.059 304.053 258.255 304.91 259.496 305.482L257.778 306.364L256.406 305.945L257.031 307.754L256.159 308.856C255.792 307.929 255.723 307.215 255.697 306.219L255.69 305.856C247.463 299.469 240.359 284.803 238.673 275.031Z"/>
	<path transform="scale(0.884375 0.884375)" d="M240.448 266.989C247.253 267.299 244.06 281.739 252.031 286.864C253.278 287.666 261.528 290.703 256.828 292.158L255.588 291.745C246.631 288.682 242.642 275.593 240.448 266.989Z"/>
	<defs>
		<linearGradient id="gradient_1" gradientUnits="userSpaceOnUse" x1="227.77299" y1="275.58899" x2="263.34698" y2="253.631">
			<stop offset="0" stop-color="#FFF700"/>
			<stop offset="1" stop-color="#FF9"/>
		</linearGradient>
	</defs>
	<path fill="url(#gradient_1)" transform="scale(0.884375 0.884375)" d="M213.401 171.897L213.474 172.197C213.815 173.704 213.536 175.014 213.516 176.527C213.901 175.885 213.809 175.229 213.828 174.496C214.549 175.264 214.965 179.418 214.942 180.591C214.379 179.58 214.217 178.36 213.594 177.231C212.945 178.307 211.993 190.209 212.497 191.922C214.411 193.27 216.436 194.436 217.967 196.22C218.198 195.47 218.198 194.721 218.702 194.093L218.963 194.161L218.493 197.053C216.011 198.683 218.385 205.858 219.621 207.787C219.759 210.074 219.834 211.519 220.949 213.547C219.053 216.203 220.07 221.051 222.031 223.469L222.944 222.937L223.242 225.048L222.533 229.561C223.731 234.519 225.943 238.916 227.589 243.685L228.452 247.567L236.342 267.178L238.118 272.932C238.29 273.534 238.699 274.444 238.673 275.031C240.359 284.803 247.463 299.469 255.69 305.856L255.697 306.219C255.723 307.215 255.792 307.929 256.159 308.856L257.222 310.962C258.035 312.732 258.98 314.28 260.148 315.84C262.131 318.868 265.471 324.281 269.177 325.009L272.916 325.303C273.956 325.351 274.929 325.477 275.918 325.089C276.248 326.756 275.307 327.055 276.476 329.097L276.746 329.508C277.941 331.48 276.714 334.36 278.845 336.278C281.763 338.905 286.343 338.478 288.441 342.769C288.971 345.18 289.814 347.766 290.059 350.2L275.769 341.847C260.589 331.397 242.232 301.127 233.936 283.418C227.385 269.433 217.939 242.977 215.184 228.133C211.946 209.69 210.312 190.492 213.401 171.897Z"/>
	<path fill="#FFFB98" transform="scale(0.884375 0.884375)" d="M275.918 325.089C276.248 326.756 275.307 327.055 276.476 329.097C275.321 329.554 274.38 329.938 273.443 330.792C272.05 330.199 270.545 327.421 269.831 326.078C270.617 325.315 271.84 325.43 272.916 325.303C273.956 325.351 274.929 325.477 275.918 325.089Z"/>
	<path transform="scale(0.884375 0.884375)" d="M276.476 329.097L276.746 329.508C277.941 331.48 276.714 334.36 278.845 336.278C281.763 338.905 286.343 338.478 288.441 342.769C287.228 342.924 286.315 343.012 285.144 342.532L283.87 341.992C280.7 340.607 271.092 335.101 273.443 330.792C274.38 329.938 275.321 329.554 276.476 329.097Z"/>
</svg>
