<?xml version="1.0" encoding="utf-8" ?>
<svg xmlns="http://www.w3.org/2000/svg" xmlns:xlink="http://www.w3.org/1999/xlink" width="566" height="452">
	<path transform="scale(0.884375 0.884375)" d="M566.1 23.5739L580.619 24.163C596.627 26.2335 640.661 46.1552 637.858 66.5273C636.441 76.8249 625.334 72.5473 619.639 71.7747C612.239 70.7709 603.842 71.5825 596.562 73.0111C548.956 82.3542 521.451 133.526 509.179 176.784C506.928 184.718 507.277 182.768 510.38 190.581L516.094 205.407C520.855 218.377 524.25 231.267 526.924 244.789C527.764 244.758 528.715 243.928 529.43 243.479L536.329 239.216C553.306 229.776 573.398 230.177 591.062 237.939C593.274 238.911 600.1 241.706 600.975 243.954C595.87 243.047 591.074 241.044 585.896 240.356C571.313 238.417 541.44 248.286 529.113 257.733L531.372 276.874C550.598 268.188 570.55 288.259 589.233 285.335C590.801 285.089 592.662 284.072 594.182 284.288C600.839 292.171 583.567 294.746 578.9 294.767C561.965 294.843 550.603 286.884 532.385 289.573L532.821 311.711C539.197 310.868 545.016 311.48 551.128 313.467C558.368 315.82 587.595 328.545 590.741 334.734L590.545 335.297C588.034 335.543 583.697 332.931 581.267 331.896C566.001 325.393 549.636 322.985 533.061 323.9L531.153 334.115C515.671 401.324 475.493 468.519 403.037 482.624C385.665 486.006 368.165 486.007 350.553 485.596L328.35 484.546C284.074 481.639 239.394 476.521 199.035 456.672C151.107 433.1 116.751 392.782 106.524 340.192C100.236 340.925 94.3516 342.481 88.2264 344L66.7463 349.567C62.0548 350.88 57.2826 352.502 52.5 353.45C48.4887 354.245 50.4366 351.629 52.2364 350.486C56.3388 347.881 60.9494 345.935 65.1985 343.555C78.0914 336.335 91.0707 327.32 105.705 324.071L105.741 307.033C105.757 303.759 106.042 300.428 105.704 297.17C88.8764 291.945 65.5953 289.187 49.5732 298.082C46.7985 299.623 43.5077 302.897 40.4688 303.504L39.9447 303.043C38.1308 297.415 43.9212 292.596 47.8365 289.564L51.7321 286.777L58.2322 283C73.0873 275.343 91.8247 277.577 107.236 282.457L112.094 247.014C110.647 245.818 108.286 244.967 106.555 244.193C91.0742 237.276 76.3236 233.715 59.6875 240.07C56.8875 241.14 53.7747 243.195 50.9375 243.81L50.2901 243.341C50.623 241.546 52.08 240.593 53.3719 239.443C72.345 222.558 94.0538 220.973 116.295 230.528C118.572 218.214 123.693 195.698 129.462 184.244C116.502 168.349 110.967 147.888 98.9981 131.438C78.6271 103.442 48.895 96.7734 16.7503 102.023C10.8358 102.989 6.69734 103.648 2.85176 97.9944C0.272962 94.2029 4.11746 90.4268 6.3667 87.6187C24.0228 65.5756 51.2777 45.1331 80.7678 45.6109C83.4421 45.6542 86.3911 45.6781 88.9867 46.3447L94.2468 47.5027C122.661 55.2259 149.444 79.8184 166.082 104.026C171.217 111.498 175 119.364 179.461 127.196L184.3 123.949C199.426 113.32 200.399 107.549 193.906 90.9192L188.891 77.5248C188.213 75.4491 186.904 71.896 187.335 69.7211L187.67 68.1941C188.913 63.6937 194.869 61.7545 198.939 63.0336C215.484 68.2324 223.878 86.2704 231.357 100.521C286.845 83.0218 245.087 62.6055 245.612 37.5187C245.716 32.5287 250.616 28.7741 255.469 29.2911C269.294 30.7638 286.458 60.3305 290.871 71.6547C292.038 74.65 293.187 79.9705 295.208 82.3245C296.7 82.8216 305.517 82.7704 305.82 82.3594C306.139 81.9247 306.165 79.056 306.229 78.4495L307.515 69.9683C309.84 58.0448 315.503 39.5077 323.914 30.5849C331.502 22.5348 345.445 22.7354 345.771 32.652C345.831 34.4711 345.148 36.4113 344.624 38.1343L342.015 46.6973C337.36 63.7993 336.616 91.0484 360.693 91.6216C363.008 87.1255 364.333 81.8285 366.402 77.1483C369.519 70.098 381.543 47.5574 392.039 53.0086C398.678 56.4565 393.136 64.4496 390.93 69.0794C384.385 82.8139 383.164 101.092 402.303 104.58C406.162 105.283 410.367 94.958 413.018 91.1853C418.9 82.8173 427.187 72.5892 437.103 69.4652C445.598 72.2699 442.167 77.688 439.754 83.6599C437.321 89.6813 434.484 96.4023 433.668 102.873L433.615 103.306C433.35 105.316 433.209 107.727 433.627 109.716L433.697 110.027C435.828 120.33 462.658 131.487 471.903 140.347C479.909 91.2945 509.578 25.1235 566.1 23.5739ZM329.378 59.2399C326.343 65.3684 323.731 72.0611 321.621 78.5747C320.563 81.8418 319.964 86.219 318.331 89.1908C315.725 93.9366 307.638 90.8459 303.46 90.981C295.021 91.2537 293.051 94.1966 286.531 86.1353C284.026 83.038 270.382 60.2184 268.39 60.2935C271.943 84.0184 273.422 92.8745 248.125 104.406C234.292 110.712 228.188 115.174 217.89 101.436C213.73 95.887 210.61 90.9071 205.216 86.4405C212.479 118.224 201.907 118.419 180.928 137.368C157.165 158.832 144.787 193.898 136.081 223.656L125.271 270.847C120.727 296.819 117.783 323.327 123.472 349.314C139.984 424.747 196.769 452.826 265.312 465.758C272.387 467.093 279.946 468.819 287.116 469.289C292.978 470.404 299.091 470.874 305.041 471.354L312.633 472.098C340.321 473.482 391.16 470.288 417.295 462.364C467.355 447.187 509.858 397.919 519.704 346.803C532.373 281.03 503.441 181.903 451.632 137.953C432.65 121.851 427.395 125.857 422.202 100.532C413.907 108.532 414.82 117.05 402.537 112.797C388.856 108.061 377.565 100.459 378.172 84.6114C370.631 97.77 372.561 102.747 356.488 100.161C338.83 97.321 328.828 75.7776 329.378 59.2399Z"/>
	<path fill="#3C7148" transform="scale(0.884375 0.884375)" d="M562.137 40.7694C586.182 40.4637 595.789 49.3949 614.723 58.3817L615.111 58.563C578.31 55.0993 544.256 77.5511 524.36 107.221C517.922 116.821 512.74 127.255 507.98 137.767L496.779 171.253C493.049 166.551 488.608 162.465 488.213 156.139C486.842 134.221 494.594 111.41 503.858 91.8322C515.633 66.9469 531.942 42.4705 562.137 40.7694Z"/>
	<path fill="#3C7148" transform="scale(0.884375 0.884375)" d="M73.9779 65.7681C113.336 62.2579 145.591 109.238 165.701 136.653C154.919 145.675 147.215 154.439 139.067 165.926C136.45 164.293 133.959 158.183 132.61 155.544C125.915 142.188 119.65 127.464 109.547 116.267C89.8996 94.4946 59.272 82.0368 30.1021 86.1062L39.6084 79.1837C50.267 72.0065 61.1183 67.1399 73.9779 65.7681Z"/>
	<path transform="scale(0.884375 0.884375)" d="M345.689 371.462C351.662 370.338 368.161 376.286 366.248 381.656C361.984 384.818 351.016 374.252 340.554 382.725C345.668 384.519 350.252 386.124 354.965 388.906C360.824 392.363 366.68 399.324 373.39 400.577C381.323 402.059 389.465 399.677 396.959 397.233C398.913 396.595 401.742 395.315 402.066 398.379C399.576 401.745 393.21 404.283 389.341 405.861C372.273 412.821 361.328 409.673 345.323 402.9C346.656 407.84 350.102 420.645 353.992 424.245C355.687 425.813 358.185 425.872 359.886 427.395C359.132 431.068 353.789 430.823 351.022 430.168C345.24 428.8 336.055 407.55 332.599 402.025C330.191 401.423 328.152 401.487 325.696 401.623C320.419 402.674 322.514 411.797 322.493 416.604C322.467 422.318 318.914 431.152 315.552 421.892C313.312 415.722 312.703 408.659 312.179 402.147C307.523 403.714 303.599 406.497 299.375 408.917C290.635 413.924 274.16 418.594 265.52 411.124C264.432 410.184 263.129 407.004 265.202 406.441C266.485 406.093 268.471 406.422 269.817 406.462C287.759 406.994 296.865 394.544 311.366 385.657C304.902 376.666 289.153 384.515 281.719 385.286L281.719 383.454C282.098 382.634 283.054 381.861 283.73 381.269C292.714 373.411 306.634 371.123 317.397 376.286C320.662 377.852 323.671 379.84 326.999 381.301L327.464 380.709C332.173 375.086 338.446 372.155 345.689 371.462Z"/>
	<path transform="scale(0.884375 0.884375)" d="M197.928 219.556C207.042 218.369 221.747 219.907 230.271 222.18C266.361 231.805 301.214 277.626 279.252 314.706C269.771 330.713 252.15 339.075 234.741 343.465C228.896 344.934 222.884 345.884 216.865 346.185C184.35 347.814 150.045 322.262 148.534 288.468C147.408 263.287 171.055 220.736 197.928 219.556ZM161.081 306.685C166.069 321.933 181.47 332.471 196.571 336.147L196.579 336.183C209.912 341.519 247.219 331.416 259.908 321.565C267.741 315.484 275.276 305.195 276.529 295.199C278.53 279.239 265.865 264.638 256.805 252.843C261.26 267.561 259.782 287.543 249.039 299.013C232.149 317.045 209.114 313.384 192.305 297.192C179.483 284.84 173.329 263.428 173.085 245.725C171.492 249.004 169.23 252.074 167.427 255.264C159.138 269.928 154.563 287.568 160.483 303.899C160.735 304.594 161.264 305.592 161.148 306.34L161.081 306.685ZM226.949 262.095C215.467 267.89 211.899 268.473 200.284 270.944C201.587 277.767 205.634 282.767 212.008 285.4C223.032 290.121 233.483 281.001 237.565 271.157C235.215 267.627 231.277 264.147 227.661 261.981L226.949 262.095ZM206.725 233.602C201.408 234.232 197.408 236.736 196.523 242.247L196.435 242.749C194.941 251.58 203.648 255.62 211.614 253.153L211.959 253.044C227.465 246.234 229.086 230.967 206.761 233.583L206.725 233.602Z"/>
	<path fill="#3C7148" transform="scale(0.884375 0.884375)" d="M161.081 306.685L161.148 306.34C161.264 305.592 160.735 304.594 160.483 303.899C154.563 287.568 159.138 269.928 167.427 255.264C169.23 252.074 171.492 249.004 173.085 245.725C173.329 263.428 179.483 284.84 192.305 297.192C209.114 313.384 232.149 317.045 249.039 299.013C259.782 287.543 261.26 267.561 256.805 252.843C265.865 264.638 278.53 279.239 276.529 295.199C275.276 305.195 267.741 315.484 259.908 321.565C247.219 331.416 209.912 341.519 196.579 336.183L196.571 336.147C181.47 332.471 166.069 321.933 161.081 306.685ZM161.081 306.685C166.069 321.933 181.47 332.471 196.571 336.147L196.879 335.827C196.502 335.448 196.679 335.537 196.208 335.378C186.982 332.252 180.758 325.358 175.85 317.185C172.461 311.541 169.107 306.185 161.081 306.685Z"/>
	<path transform="scale(0.884375 0.884375)" d="M426.054 218.056L436.428 217.862C451.913 218.621 464.442 225.14 474.71 236.598C486.353 249.59 497.428 269.794 496.461 287.961C495.614 303.88 487.443 321.212 475.562 331.884C461.53 344.489 443.043 348.393 424.761 347.405L418.631 346.505C396.607 342.31 379.935 330.401 367.517 312.051C347.115 281.906 363.094 256.835 383.466 232.22C385.612 229.627 387.224 224.484 391.406 225.373C392.689 226.383 392.517 228.93 394.258 227.841C404.075 221.706 414.47 219.003 426.054 218.056ZM449.369 332.04C447.534 330.411 416.61 332.703 405.312 328.178C392.122 322.895 385.692 310.556 374.692 302.646L374.387 302.429L373.905 302.259C372.721 301.822 371.591 301.114 370.486 300.505C380.654 325.203 399.766 339.588 427.562 338.918C438.435 338.656 440.756 337.301 449.369 332.04ZM437.206 260.605C426.284 267.04 423.768 267.526 412.386 270.486C414.639 276.753 418.202 281.309 424.348 284.228L425.858 284.863C436.146 288.336 445.125 279.876 448.729 270.672C445.901 266.787 441.431 262.923 437.206 260.605ZM424.279 232.074C418.551 232.336 407.79 233.004 406.53 240.371L406.442 240.872C405.462 246.64 409.225 252.088 415.155 252.756L415.588 252.774C417.663 252.784 419.535 252.822 421.562 252.295L421.95 252.207C432.397 249.76 440.785 231.004 424.279 232.074Z"/>
	<path fill="#3C7148" transform="scale(0.884375 0.884375)" d="M374.387 302.429L386.544 302.334C387.804 302.334 390.164 302.498 391.271 301.888C384.901 300.471 375.554 300.15 370.127 296.134C360.374 278.984 375.227 254.019 386.682 240.271C381.481 252.874 385.189 268.931 390.161 280.985C398.252 300.603 423.95 318.119 445.339 308.929C467.644 299.347 473.935 270.01 468.2 248.362L475.809 261.676C481.651 272.662 486.571 284.317 483.607 297.006C479.494 314.609 465.968 326.519 449.369 332.04C447.534 330.411 416.61 332.703 405.312 328.178C392.122 322.895 385.692 310.556 374.692 302.646L374.387 302.429Z"/>
</svg>
