<?xml version="1.0" encoding="utf-8" ?>
<svg xmlns="http://www.w3.org/2000/svg" xmlns:xlink="http://www.w3.org/1999/xlink" width="566" height="492">
	<path fill="#121111" d="M92.9717 492L0 492L0 0L264.31 0L301.967 0L566 0L566 492L475.252 492L463.022 492L384.048 492L373.206 492L190.693 492L182.126 492L101.882 492L92.9717 492ZM107.064 365.129C110.826 363.08 112.897 358.256 116.709 355.928C129.596 362.034 126.875 375.378 132.697 384.064C138.562 392.813 155.271 391.617 164.031 389.591C169.432 388.343 173.546 387.295 178.533 390.314C189.304 396.834 179.106 404.193 192.655 410.449C206.283 416.742 217.046 402.181 230.241 399.445C249.478 395.457 260.274 410.105 276.367 411.234C288.03 412.053 297.742 406.219 308.476 402.801C318.67 399.555 331.88 397.1 342.615 399.229C355.759 401.836 360.923 406.713 376.15 407.53L376.651 404.242C377.905 398.435 381.633 391.358 386.829 388.164C394.529 383.429 403.737 388.648 411.444 390.658L412.894 391.013C419.431 392.12 428.725 390.095 434.092 386.171C438.274 383.114 436.641 376.062 438.135 371.584L438.265 371.211C439.792 366.674 443.151 363.393 447.173 360.966C451.064 360.395 454.723 362.75 458.723 362.669L457.542 357.468L452.741 321.597C452.076 317.735 449.775 313.833 449.572 310.07C449.365 306.223 450.8 302.604 451.8 298.948C454.884 287.674 453.974 275.161 453.754 263.621L448.889 211.173C447.11 197.47 444.492 183.95 441.42 170.484L435.102 145.725C416.53 85.5033 379.002 36.3227 315.888 18.7522C301.396 14.7178 286.002 12.2913 270.966 14.5977L259.728 16.3539C198.151 29.0963 156.571 70.8483 135.602 129.182L131.011 143.499C118.15 184.33 111.692 226.956 111.61 269.767L111.614 287.332C111.623 290.685 111.395 294.244 111.947 297.549L112.15 298.463C113.07 302.075 114.476 306.947 114.455 310.58C114.432 314.635 112.314 318.608 111.781 322.642C110.775 330.252 110.925 337.956 110.287 345.585C109.735 352.186 108.426 358.661 107.064 365.129ZM301.967 0C305.666 1.00876 309.513 1.53673 313.262 2.3555C400.309 21.3631 446.904 99.1033 459.794 182.88L488.441 155.517C515.053 128.311 542.189 91.1254 542.255 51.3546L541.948 30.2662C541.887 27.3867 541.454 23.213 545.578 23.2225C553.863 23.2415 557.854 61.9821 558.444 67.9681C559.571 79.3909 559.362 90.5941 559.367 102.077C559.37 110.657 559.714 119.459 558.917 128.008L551.51 177.491C549.926 185.341 551.181 186.532 551.653 194.222C551.882 197.966 551.757 201.785 551.76 205.537L551.604 219.206C551.02 229.963 548.249 240.632 544.989 250.855C530 297.869 506.967 320.539 463.613 340.319L463.692 340.63C468.048 358.173 470.577 371.417 483.801 385.939C502.63 406.617 539.341 411.82 546.683 441.693C548.563 449.338 546.855 457.642 538.736 460.615C536.242 461.529 535.133 460.629 535.077 463.536C534.922 471.593 533.199 483.131 523.725 485.19C516.109 486.845 495.882 472.981 490.586 467.149C493.047 478.707 492.197 487.695 479.45 491.048C478.064 491.413 476.612 491.55 475.252 492L566 492L566 0L301.967 0ZM92.9717 492C82.0306 487.203 73.2024 489.007 74.7278 472.758C74.8491 471.466 75.3621 469.951 75.2273 468.683L57.1709 480.219C41.3586 489.414 33.1618 484.688 30.6866 466.334C30.2974 463.448 30.9697 463.106 28.5549 461.549C24.6237 459.015 20.8549 455.738 19.6741 451.003L19.5612 450.539C15.4743 434.47 34.1791 417.129 46.4048 409.939L65.1274 399.633C87.359 386.093 93.5007 372.321 100.05 349.099C100.891 346.116 101.987 343.234 102.725 340.216L89.0427 334.23C52.1686 315.867 32.2708 287.924 20.4551 249.008C16.697 236.631 14.1554 224.492 13.8662 211.512L14.2312 193.287C14.4663 189.754 15.6242 185.535 15.1397 182.103C13.803 172.636 11.1692 163.332 9.65804 153.866L7.38535 135.59C5.84028 120.464 5.97617 105.443 6.37335 90.2429C6.61454 81.0121 6.82757 71.9304 7.77217 62.7329C8.10359 59.5059 13.847 11.2885 24.1133 25.2117C25.7289 27.4029 24.0741 32.9601 23.7832 35.5695C19.5077 73.9176 38.3271 110.612 62.5106 139.17C67.5537 145.125 73.2274 150.654 78.6758 156.239L92.9003 170.325C97.1154 174.288 101.898 178.172 105.486 182.731L105.776 183.104C106.553 180.188 106.926 177.109 107.561 174.151L112.53 152.361C115.415 141.013 119.5 129.9 123.92 119.071C148.109 59.8083 188.927 15.4839 253.457 2.17491C257.072 1.42945 260.749 0.980034 264.31 0L0 0L0 492L92.9717 492ZM107.064 365.129L106.963 365.373C105.676 368.548 104.847 371.951 103.662 375.181C97.5517 391.839 88.9009 407.75 75.3101 419.459C62.2115 430.743 46.2209 439.219 43.9128 458.254C43.4932 461.714 43.3589 465.683 44.5839 468.984L45.186 469.448C45.9035 469.335 46.5556 469.291 47.2052 468.95C51.384 467.921 56.2221 465.447 59.6536 462.831C63.4752 461.66 71.6601 451.927 76.0168 448.998C81.3493 445.412 87.699 443.301 93.5938 440.833L101.712 437.086C106.528 442.493 95.156 454.235 93.0472 458.305C95.3055 459.56 98.0687 459.628 100.598 460.032L117.732 462.432C126.67 463.63 134.995 462.943 143.411 459.457C148.003 457.555 166.027 447.768 171.047 451.23C171.442 451.503 171.425 452.607 171.382 453.086C171.203 460.155 170.278 474.015 180.057 476.218L182.873 477.214C191.487 479.533 200.695 472.67 207.86 468.911L219.521 462.86L219.724 462.785C222.422 461.736 224.807 459.882 227.507 458.746C245.114 451.336 254.816 459.562 268.791 466.428C276.478 470.205 288.003 471.403 296.045 468.289C300.558 466.541 304.446 463.456 308.656 461.122C318.262 455.796 329.749 454.968 339.853 459.382L356.506 468.581C356.323 467.921 356.342 467.961 355.754 467.607L356.099 467.431C356.891 467.054 357.241 466.868 357.763 466.124L360.245 465.606C361.6 465.642 362.866 465.326 364.232 465.249C373.23 463.671 386.76 467.451 394.762 462.834C395.595 457.917 392.554 451.008 399.568 450.07C403.513 447.996 410.36 452.707 413.673 454.472C424.468 460.224 430.072 463.312 442.204 463.281C452.169 463.255 463.456 462.401 472.543 458.018C468.588 452.101 463.85 445.328 468.126 438.118C470.526 434.072 473.341 438.423 475.895 440.221C479.42 442.701 483.165 444.768 486.645 447.369L500.359 458.663C505.603 462.853 511.398 467.075 517.701 469.511C524.153 472.005 522.999 465.621 522.624 460.352C520.741 433.923 491.219 426.033 478.514 409.569C468.067 396.029 462.739 379.031 458.723 362.669C454.723 362.75 451.064 360.395 447.173 360.966C443.151 363.393 439.792 366.674 438.265 371.211L438.135 371.584C436.641 376.062 438.274 383.114 434.092 386.171C428.725 390.095 419.431 392.12 412.894 391.013L411.444 390.658C403.737 388.648 394.529 383.429 386.829 388.164C381.633 391.358 377.905 398.435 376.651 404.242L376.15 407.53C360.923 406.713 355.759 401.836 342.615 399.229C331.88 397.1 318.67 399.555 308.476 402.801C297.742 406.219 288.03 412.053 276.367 411.234C260.274 410.105 249.478 395.457 230.241 399.445C217.046 402.181 206.283 416.742 192.655 410.449C179.106 404.193 189.304 396.834 178.533 390.314C173.546 387.295 169.432 388.343 164.031 389.591C155.271 391.617 138.562 392.813 132.697 384.064C126.875 375.378 129.596 362.034 116.709 355.928C112.897 358.256 110.826 363.08 107.064 365.129ZM190.669 491.742L190.693 492L373.206 492C362.474 488.143 357.73 487.099 347.117 480.468C339.72 475.846 329.067 467.996 319.91 470.113L319.48 470.221C313.068 471.772 309.237 476.823 304.224 480.656C291.927 490.062 274.762 489.926 262.49 480.806C257.372 477.001 252.198 471.088 245.547 470.348C229.86 468.602 210.912 490.28 190.905 491.727L190.669 491.742ZM93.0472 458.305C90.6383 461.713 84.0406 473.564 84.2858 477.136C100.618 483.396 129.691 469.52 144.264 463.003C153.227 458.994 161.712 454.753 171.49 453.086C171.425 452.607 171.442 451.503 171.047 451.23C166.027 447.768 148.003 457.555 143.411 459.457C134.995 462.943 126.67 463.63 117.732 462.432L100.598 460.032C98.0687 459.628 95.3055 459.56 93.0472 458.305ZM399.568 450.07C414.288 459.421 458.937 482.192 477.422 477.93L480.322 477.064L479.808 473.569C478.785 468.443 475.675 462.217 472.543 458.018C463.456 462.401 452.169 463.255 442.204 463.281C430.072 463.312 424.468 460.224 413.673 454.472C410.36 452.707 403.513 447.996 399.568 450.07ZM384.048 492L463.022 492L452.78 489.501C436.214 485.098 425.243 478.119 409.911 472.166C404.759 488.281 397.022 488.138 384.048 492ZM101.882 492L182.126 492L182.154 491.71L181.905 491.686C168.482 490.307 161.202 484.322 155.922 472.547C143.088 477.866 130.769 484.421 117.463 488.522C112.325 490.105 107.072 490.725 101.882 492ZM364.232 465.249C366.139 467.273 370.944 472.831 370.98 475.667C383.073 480.753 394.164 476.842 394.762 462.834C386.76 467.451 373.23 463.671 364.232 465.249ZM356.506 468.581C361.108 471.14 366.037 473.87 370.98 475.667C370.944 472.831 366.139 467.273 364.232 465.249C362.866 465.326 361.6 465.642 360.245 465.606L357.763 466.124C357.241 466.868 356.891 467.054 356.099 467.431L355.754 467.607C356.342 467.961 356.323 467.921 356.506 468.581Z"/>
	<path fill="#3C7148" d="M492.585 411.102C505.346 414.091 527.94 431.731 532.893 443.413C520.991 432.821 500.338 422.093 492.585 411.102Z"/>
	<path fill="#1C4929" d="M64.5501 412.444L66.604 412.345C68.7769 412.47 69.8378 413.782 71.235 415.258C66.8572 422.887 45.7096 432.294 37.6856 439.216L33.142 442.991C34.9632 439.83 36.2427 436.449 38.3856 433.471C43.1256 426.882 56.9453 415.259 64.5501 412.444Z"/>
	<defs>
		<linearGradient id="gradient_0" gradientUnits="userSpaceOnUse" x1="82.8871" y1="266.884" x2="45.790199" y2="279.23599">
			<stop offset="0" stop-color="#1B3D2A"/>
			<stop offset="1" stop-color="#427A3D"/>
		</linearGradient>
	</defs>
	<path fill="url(#gradient_0)" d="M29.7133 228.601C33.2315 233.724 35.1769 240.033 38.4937 245.375C42.4027 251.67 47.0005 257.662 51.6274 263.447L69.9493 284.538C76.1362 291.014 96.3291 304.998 98.1324 310.834L98.204 311.093C98.7047 312.779 98.7995 314.647 98.9936 316.395C95.6496 314.922 92.7007 312.322 89.8193 310.1L76.9706 299.813C60.7708 285.877 31.3774 251.295 29.7133 228.601Z"/>
	<path fill="#3C7148" d="M534.872 230.107C536.145 234.184 527.875 251.334 525.734 255.301C514.27 276.55 489.611 304.102 467.536 315.683C466.78 308.515 469.525 306.153 474.205 301.45C479.425 296.204 485.249 291.631 490.698 286.629C509.962 268.946 522.708 253.017 534.872 230.107Z"/>
	<path fill="#3C7148" d="M545.767 111.507C546.327 118.757 544.767 126.58 543.818 133.771L540.711 154.622C539.835 160.092 538.997 165.591 537.645 170.969L530.12 196.197C527.322 206.93 525.383 217.703 521.362 228.109C513.365 248.803 499.089 266.211 483.47 281.658L473.042 292.012C470.776 294.311 468.48 296.554 466.554 299.156L466.974 296.062C469.114 281.64 469.792 266.623 468.552 252.081L465.226 216.411C464.137 197.802 478.815 188.201 492.088 177.254L503.549 167.425C521.743 150.815 534.292 133.368 545.767 111.507Z"/>
	<path fill="#3C7148" d="M20.5442 112.635L20.8713 112.783C24.2799 117.25 26.8908 122.498 29.8104 127.305C39.3513 143.015 50.6244 156.179 64.2783 168.427L76.3019 178.948C84.8626 186.204 97.3032 195.721 100.814 206.97L100.914 207.303C102.179 211.405 101.066 217.104 100.525 221.309L96.7463 257.345C96.1441 269.179 96.6564 281.171 98.028 292.927L98.8338 298.362C94.6627 293.941 89.9387 290.014 85.563 285.794C69.3112 270.119 54.3595 251.284 45.5795 230.375C40.4131 218.071 38.243 204.937 34.9704 192.075L28.0358 168.796C25.197 157.801 19.152 124.414 20.5442 112.635Z"/>
	<path fill="#B0D944" d="M107.064 365.129C110.826 363.08 112.897 358.256 116.709 355.928C129.596 362.034 126.875 375.378 132.697 384.064C138.562 392.813 155.271 391.617 164.031 389.591C169.432 388.343 173.546 387.295 178.533 390.314C189.304 396.834 179.106 404.193 192.655 410.449C206.283 416.742 217.046 402.181 230.241 399.445C249.478 395.457 260.274 410.105 276.367 411.234C288.03 412.053 297.742 406.219 308.476 402.801C318.67 399.555 331.88 397.1 342.615 399.229C355.759 401.836 360.923 406.713 376.15 407.53L376.651 404.242C377.905 398.435 381.633 391.358 386.829 388.164C394.529 383.429 403.737 388.648 411.444 390.658L412.894 391.013C419.431 392.12 428.725 390.095 434.092 386.171C438.274 383.114 436.641 376.062 438.135 371.584L438.265 371.211C439.792 366.674 443.151 363.393 447.173 360.966C451.064 360.395 454.723 362.75 458.723 362.669C462.739 379.031 468.067 396.029 478.514 409.569C491.219 426.033 520.741 433.923 522.624 460.352C522.999 465.621 524.153 472.005 517.701 469.511C511.398 467.075 505.603 462.853 500.359 458.663L486.645 447.369C483.165 444.768 479.42 442.701 475.895 440.221C473.341 438.423 470.526 434.072 468.126 438.118C463.85 445.328 468.588 452.101 472.543 458.018C463.456 462.401 452.169 463.255 442.204 463.281C430.072 463.312 424.468 460.224 413.673 454.472C410.36 452.707 403.513 447.996 399.568 450.07C392.554 451.008 395.595 457.917 394.762 462.834C386.76 467.451 373.23 463.671 364.232 465.249C362.866 465.326 361.6 465.642 360.245 465.606L357.763 466.124C357.241 466.868 356.891 467.054 356.099 467.431L355.754 467.607C356.342 467.961 356.323 467.921 356.506 468.581L339.853 459.382C329.749 454.968 318.262 455.796 308.656 461.122C304.446 463.456 300.558 466.541 296.045 468.289C288.003 471.403 276.478 470.205 268.791 466.428C254.816 459.562 245.114 451.336 227.507 458.746C224.807 459.882 222.422 461.736 219.724 462.785L219.521 462.86L207.86 468.911C200.695 472.67 191.487 479.533 182.873 477.214L180.057 476.218C170.278 474.015 171.203 460.155 171.382 453.086C171.425 452.607 171.442 451.503 171.047 451.23C166.027 447.768 148.003 457.555 143.411 459.457C134.995 462.943 126.67 463.63 117.732 462.432L100.598 460.032C98.0687 459.628 95.3055 459.56 93.0472 458.305C95.156 454.235 106.528 442.493 101.712 437.086L93.5938 440.833C87.699 443.301 81.3493 445.412 76.0168 448.998C71.6601 451.927 63.4752 461.66 59.6536 462.831C56.2221 465.447 51.384 467.921 47.2052 468.95C46.5556 469.291 45.9035 469.335 45.186 469.448L44.5839 468.984C43.3589 465.683 43.4932 461.714 43.9128 458.254C46.2209 439.219 62.2115 430.743 75.3101 419.459C88.9009 407.75 97.5517 391.839 103.662 375.181C104.847 371.951 105.676 368.548 106.963 365.373L107.064 365.129ZM180.057 476.218L182.873 477.214C191.487 479.533 200.695 472.67 207.86 468.911L219.521 462.86C213.221 460.377 197.912 459.178 191.585 461.864C181.495 466.148 184.932 472.057 182.79 474.146C181.949 474.965 180.855 475.333 180.057 476.218Z"/>
	<path fill="#DEEA87" d="M47.2052 468.95C46.5192 468.18 48.4704 468.209 49.0552 467.953L48.4334 466.365C48.2351 466.812 48.0374 467.229 47.7791 467.644L47.0168 467.743C48.076 464.857 51.8225 463.208 54.3552 461.878L60.5404 458.513L60.0731 459.581C60.4162 460.387 60.6527 460.655 61.3535 461.181L61.0347 461.332C60.4413 461.629 59.7205 462.163 59.1946 462.568L59.6536 462.831C56.2221 465.447 51.384 467.921 47.2052 468.95Z"/>
	<defs>
		<linearGradient id="gradient_1" gradientUnits="userSpaceOnUse" x1="81.619301" y1="451.159" x2="78.869102" y2="445.35599">
			<stop offset="0" stop-color="#FAF9BB"/>
			<stop offset="1" stop-color="white"/>
		</linearGradient>
	</defs>
	<path fill="url(#gradient_1)" d="M60.5404 458.513C65.8034 454.946 70.2655 450.298 75.6971 447.003C78.4533 445.331 100.004 433.806 101.712 437.086L93.5938 440.833C87.699 443.301 81.3493 445.412 76.0168 448.998C71.6601 451.927 63.4752 461.66 59.6536 462.831L59.1946 462.568C59.7205 462.163 60.4413 461.629 61.0347 461.332L61.3535 461.181C60.6527 460.655 60.4162 460.387 60.0731 459.581L60.5404 458.513Z"/>
	<path fill="#DEEA87" d="M447.173 360.966C449.951 353.422 451.951 349.098 456.659 358.082L457.542 357.468L458.723 362.669C454.723 362.75 451.064 360.395 447.173 360.966Z"/>
	<path fill="#121111" d="M191.443 106.73C198.947 106.593 205.231 109.799 211.507 113.605C229.33 124.411 241.266 141.086 246.146 161.268C252.652 188.175 242.749 221.396 213 228.401L212.342 228.543C201.558 230.643 191.131 228.428 182.035 222.307C156.353 205.028 150.878 170.567 161.549 143.054C166.949 129.134 169.711 131.518 178.416 121.51C183.058 116.173 184.28 109.597 191.443 106.73ZM196.999 123.377C173.445 126.532 163.931 157.735 166.939 178.192C169.935 198.563 186.184 217.696 208.059 216.138C247.873 209.156 245.358 149.445 217.234 129.888C211.711 126.048 203.868 122.721 196.999 123.377Z"/>
	<path fill="#121111" d="M199.659 151.003C230.329 146.571 245.892 201.328 213.841 209.067L212.813 209.187C196.506 210.663 183.122 194.63 181.861 179.462C181.546 175.666 181.328 164.943 183.567 162.322L184.334 162.388C189.476 156.608 188.762 152.612 199.659 151.003ZM201.9 167.363C200.142 168.826 201.997 172.053 202.647 173.821L203.248 173.167C203.746 170.486 206.211 166.823 202.171 167.303L201.9 167.363Z"/>
	<path fill="#121111" d="M369.051 107.664C373.591 107.9 390.94 118.487 393.289 122.585C393.225 123.908 392.503 123.601 392.167 124.658L395.674 127.506C406.45 137.819 410.919 164.754 409.292 178.728C406.291 204.503 386.542 229.104 359.165 229.425C334.044 229.75 318.159 204.296 317.082 181.543C315.687 152.053 331.925 123.598 358.625 110.822C361.919 109.246 365.371 107.822 369.051 107.664ZM365.679 122.805C338.676 125.72 324.164 157.482 326.834 181.845L327.092 183.621C329.782 200.572 342.499 216.24 360.59 216.25C383.406 215.804 399.491 191.942 399.666 170.594C399.822 151.668 391.058 128.059 370.544 123.318C369.034 122.969 367.225 122.719 365.679 122.805Z"/>
	<path fill="#121111" d="M359.149 151.262C364.553 151.148 370.973 152.224 374.943 156.169C377.886 159.095 376.742 165.496 376.715 169.368C380.066 171.517 384.68 166.342 382.308 181.976C380.191 195.93 371.307 207.105 356.815 209.231C321.151 209.678 329.025 156.322 359.149 151.262ZM362.024 168.469C361.034 169.793 361.209 171.054 361.301 172.615L361.765 173.237C362.517 173.265 362.945 173.241 363.642 172.891C365.561 171.268 364.974 167.091 362.024 168.469Z"/>
	<path fill="#121111" d="M378.338 266.218C379.373 266.21 380.237 266.134 381.161 266.687L381.249 267.18C376.565 271.255 377.417 279.698 376.439 285.388C370.396 320.561 358.624 360.973 326.104 380.137C314.674 386.873 301.085 392.432 287.793 393.753C282.864 394.243 268.485 394.623 263.978 393.372L247.763 390.221C224.576 383.739 213.572 373.655 202.221 353.394C191.559 333.49 186.569 312.571 182.783 290.375L181.062 278.349C180.942 277.087 181.3 275.207 181.008 274.055C180.561 272.291 178.08 271.893 177.662 270.324C178.601 265.212 185.182 268.085 188.256 269.038L211.555 275.99C233.72 281.564 257.507 284.673 280.367 283.669L292.605 283.555L293.714 287.314C299.473 281.724 301.651 282.244 309.412 281.441C331.574 279.148 344.778 276.365 366.516 269.864L378.338 266.218ZM187.471 279.231L192.898 298.482C195.429 306.817 198.06 314.8 201.828 322.68C206.845 333.174 213.139 343.03 217.778 353.719C232.794 344.404 242.36 346.184 258.678 351.941C271.741 356.55 275.09 359.043 288.809 355.269C301.531 351.77 315.229 345.442 328.534 349.541C333.47 351.062 337.394 353.939 341.999 356.051C348.065 349.543 342.966 346.426 344.98 343.008C349.355 335.579 351.043 333.085 354.511 324.451L363.454 299.573C364.587 296.068 366.279 292.131 366.899 288.527C359.044 300.68 347.897 314.409 333.043 317.661C326.385 319.119 318.805 319.328 312.874 315.495C308.702 312.799 304.022 306.111 302.993 301.026L302.604 299.139C301.345 304.955 301.214 314.018 295.872 317.345C288.661 321.836 263.621 319.847 258.36 311.205C256.215 307.682 255.652 303.315 255.453 299.274C249.322 305.548 247.407 316.286 240.465 318.493C227.024 322.767 209.13 309.002 201.164 299.383L187.471 279.231Z"/>
	<path fill="#3C7148" d="M287.359 364.968L292.861 364.829C294.001 375.232 291.802 380.583 280.724 379.97L277.495 379.301C275.943 375.177 275.061 370.675 274.098 366.376C278.166 365.238 283.123 365.328 287.359 364.968Z"/>
	<path fill="#3C7148" d="M313.88 359.675C319.424 359.056 322.554 360.777 326.986 363.78C324.898 365.655 322.369 367 319.99 368.463L310.107 374.492C307.056 376.251 304.118 377.955 300.767 379.083L302.606 363.716C306.056 361.545 309.913 360.452 313.88 359.675Z"/>
	<path fill="#3C7148" d="M273.342 293.844C276.939 293.736 281.584 293.387 285.078 294.267L285.487 294.378C292.618 296.246 292.021 305.222 291.482 311.129L288.059 311.666C284.814 312.143 272.344 312.332 270.089 309.02C269.533 304.49 271.508 297.966 273.342 293.844Z"/>
	<path fill="#3C7148" d="M202.945 286.758L238.648 294.106C238.22 298.914 237.617 303.461 236.37 308.131C235.498 310.783 234.083 310.277 231.596 309.791C218.676 307.269 209.99 297.191 202.945 286.758Z"/>
	<path fill="#3C7148" d="M238.097 358.879L241.445 359.111C249.27 359.914 257.277 363.04 262.277 369.326C264.392 371.985 267.248 376.256 263.525 378.806L263.24 378.994C262.301 379.623 261.305 379.559 260.214 379.527L257.106 379.158C246.232 377.1 236.894 371.19 228.761 363.886C231.614 360.931 233.951 359.383 238.097 358.879Z"/>
	<path fill="#3C7148" d="M358.417 283.392C352.049 294.804 336.273 307.007 323.156 308.336C321.498 308.505 319.596 308.68 318.237 307.565C316.194 303.642 316.918 297.114 316.9 292.736C317.716 292.12 319.697 292.121 320.749 292.023L336.555 290.092C343.727 288.785 352.147 287.158 358.417 283.392Z"/>
</svg>
