<?xml version="1.0" encoding="utf-8" ?>
<svg xmlns="http://www.w3.org/2000/svg" xmlns:xlink="http://www.w3.org/1999/xlink" width="566" height="492">
	<path d="M199.522 468.252L200.223 468.92C201.291 477.003 175.637 483.53 170.202 484.203C158.801 485.615 111.742 485.555 115.169 465.477L115.249 465.051C118.69 445.962 155.63 443.051 170.047 443.19C174.295 443.231 178.683 443.097 182.741 444.504L182.527 444.849C177.075 453.495 167.882 451.136 159.219 451.489C147.971 451.947 126.205 454.245 119.985 463.923C113.632 473.806 153.968 487.168 189.623 472.084C192.462 470.884 196.444 467.935 199.522 468.252Z"/>
	<path fill="#FFCD05" d="M184.324 441.039C190.692 431.697 199.26 404.631 199.94 392.225C205.581 391.444 210.494 390.368 215.724 387.991L209.917 413.78C208.039 421.983 198.218 457.37 201.812 462.972L202.864 464.259C201.481 465.015 200.432 466.958 199.522 468.252C196.444 467.935 192.462 470.884 189.623 472.084C153.968 487.168 113.632 473.806 119.985 463.923C126.205 454.245 147.971 451.947 159.219 451.489C167.882 451.136 177.075 453.495 182.527 444.849L182.741 444.504C183.432 443.512 184.166 442.246 184.324 441.039Z"/>
	<path d="M166.95 457.85C168.374 457.611 170.82 457.479 172.196 457.864L172.372 458.417C171.061 460.9 166.275 461.141 163.84 461.67L141.157 465.862C138.153 466.482 135.313 467.41 132.417 468.398C130.599 468.883 127.919 469.428 126.84 467.4C128.841 459.421 160.406 458.329 166.95 457.85Z"/>
	<path d="M78.037 174.387L79.2674 177.764C81.5979 178.515 82.0215 176.243 82.9723 181.183L83.0575 181.613C83.838 186.101 80.9606 189.095 77.0445 190.358C63.2709 187.906 50.9395 141.334 48.2904 130.187L44.5709 114.21L38.7655 77.1169L33.2237 29.5753C32.8274 26.0642 32.0031 21.8811 32.6655 18.4148C33.7419 12.7825 40.8753 12.784 42.9751 17.6718C62.0817 62.1478 86.1553 94.7118 122.655 127.4C131.668 135.472 140.41 143.198 150.473 149.997C158.622 88.1432 190.757 32.9992 255.362 17.2877C262.894 15.4558 270.291 14.5054 278.026 14.4888C323.523 14.3911 374.042 52.9864 393.504 92.7337C401.313 108.683 407.467 127.98 410.576 145.436L412.311 160.753L434.697 143.462L451.483 128.185C480.402 101.113 507.757 69.1523 522.379 31.8763L526.427 21.4617C527.161 19.5903 527.942 17.1254 529.154 15.5194C530.846 13.2761 534.878 16.452 534.744 18.5593C534.537 21.7917 533.819 25.1532 533.36 28.3701L527.262 78.2225L522.196 114.652C519.37 131.492 501.376 196.797 486.091 188.37L485.836 188.233C481.321 185.661 485.622 168.106 479.865 158.301C474.689 162.275 471.977 167.459 468.492 172.802C454.024 194.983 447.231 200.763 424.343 211.335L424.478 211.591C425.449 213.536 425.873 215.843 426.399 217.947L428.736 228.31C433.054 252.024 435.185 281.347 426.998 304.636C421.955 318.979 413.969 332.435 397.321 331.908C397.194 332.385 397.211 332.478 397.262 332.949C398.899 348.044 393.494 366.036 383.974 377.621C380.464 381.893 376.368 384.678 371.898 387.837L372.05 388.284C373.098 391.522 373.352 395.403 374.001 398.78L378.324 419.266C379.859 426.439 381.336 437.721 385.031 444.117L385.335 444.068C396.291 442.383 408.799 442.79 419.342 445.988C427.192 448.37 438.707 456.531 432.773 465.281C426.622 474.353 410.456 475.685 400.265 475.665C359.206 475.587 356.624 451.295 346.867 419.373L334.94 381.125C331.805 371.018 328.477 370.508 319.342 365.382L319.018 365.683C319.282 367.787 318.441 368.884 317.3 370.664C309.089 383.48 296.509 397.434 280.68 399.389C267.608 401.004 255.92 390.771 247.449 381.898L240.678 374.372C239.576 373.194 238.225 371.644 236.754 370.929C225.102 381.445 224.113 379.704 221.598 394.346L208.009 454.358C207.485 456.75 206.315 464.515 203.222 464.305L202.864 464.259L201.812 462.972C198.218 457.37 208.039 421.983 209.917 413.78L215.724 387.991C210.494 390.368 205.581 391.444 199.94 392.225C199.26 404.631 190.692 431.697 184.324 441.039C179.111 437.332 186.712 419.363 188.206 413.778L191.626 400.615C192.298 398.054 192.812 395.307 193.884 392.884L192.235 392.293C167.483 387.487 160.513 345.832 164.41 326.026C154.807 328.191 146.762 320.573 142.072 312.928C126.152 286.975 133.113 243.251 139.986 214.1C117.751 212.213 103.315 193.706 93.1148 175.891L88.8598 168.15C87.6247 165.794 86.3787 163.182 84.6003 161.193C82.4597 165.18 83.6335 171.591 80.2353 174.826C79.1421 174.955 79.2279 174.106 78.037 174.387ZM157.792 161.503C157.307 167.528 155.902 173.396 155.487 179.388L155.123 193.344C155.156 195.803 155.391 198.308 155.377 200.759L155.715 200.889C163.223 203.851 157.91 207.569 153.057 208.824C150.878 211.307 150.895 214.783 150.33 217.901C145.866 242.526 140.699 279.25 153.184 302.49C164.639 323.814 166.442 300.33 173.609 305.529C177.568 308.401 174.077 319.766 173.832 323.889C172.9 339.628 174.233 359.42 187.12 370.414C207.059 387.424 218.846 358.23 235.05 355.171L235.463 355.088C254.061 351.497 261.864 385.539 284.439 381.612C303.173 378.352 310.261 354.101 321.553 355.878L322.013 355.948C338.416 358.518 351.25 386.824 372.771 372.56C384.856 364.55 390.777 347.337 390.103 333.145C389.927 329.456 386.647 310.523 387.563 308.809C388.52 307.017 390.589 306.484 392.441 306.572C396.466 309.042 393.171 314.254 401.85 317.104C421.688 311.26 421.999 260.407 420.289 240.645L416.172 205.761C414.391 200.276 412.336 194.926 410.987 189.307L407.649 172.184C402.303 172.371 403.739 166.932 403.065 163.343C400.787 151.228 397.334 139.359 393.65 127.6C380.703 86.2816 357.255 57.1697 318.426 36.9663C294.843 24.6959 266.863 22.4151 241.562 30.4885C203.188 42.7336 179.473 79.5607 168.321 116.425L164.621 129.104L159.832 151.474C159.389 154.598 159.596 158.265 158.016 161.12L157.792 161.503ZM78.037 174.387C79.2279 174.106 79.1421 174.955 80.2353 174.826C83.6335 171.591 82.4597 165.18 84.6003 161.193C82.4702 156.684 88.1945 151.066 93.1357 152.898C96.8695 154.282 99.5487 158.301 101.718 161.442L108.149 170.885C118.875 186.304 135.791 200.402 155.319 200.759C155.391 198.308 155.156 195.803 155.123 193.344L155.487 179.388C155.902 173.396 157.307 167.528 157.792 161.503C156.617 161.759 155.036 162.694 153.849 162.323C142.56 158.796 132.842 151.041 123.825 143.613C120.966 140.111 117.074 137.204 113.715 134.189L82.772 101.734C70.8205 87.813 59.8995 73.7211 50.6538 57.8286L41.3016 40.4836L48.2106 80.4353C53.7736 110.186 59.4834 133.094 71.8745 160.607L76.0012 169.773C76.6285 171.214 77.1849 173.087 78.037 174.387Z"/>
	<path fill="#FFCD05" d="M346.492 387.85C353.296 390.295 358.183 391.02 365.362 390.201C364.379 400.4 371.017 428.509 374.398 440.269C377.868 452.339 381.528 452.361 392.571 452.318L407.496 452.26C411.343 452.247 415.327 452.157 419.138 452.759C422.658 453.316 430.529 456.144 424.703 459.771C413.35 464.271 395.871 463.884 384.179 461.707C363.323 457.822 361.817 441.085 356.133 422.846C352.53 411.286 348.856 399.742 346.492 387.85Z"/>
	<path fill="#FFCD05" d="M407.649 172.184C430.467 163.836 455.154 140.961 471.737 122.819L485.279 106.669C495.849 93.4858 505.701 79.5844 514.417 65.0942L523.66 48.5728C522.186 59.635 519.237 70.5952 517.063 81.5393C513.191 101.03 510.925 121.375 504.42 140.224C501.707 148.086 497.731 155.629 494.294 163.198L489.006 174.252C487.705 176.725 485.936 178.912 484.788 181.396C484.519 165.136 481.882 137.7 461.405 161.822L443.81 183.112C436.192 191.483 426.336 200.571 416.172 205.761C414.391 200.276 412.336 194.926 410.987 189.307L407.649 172.184Z"/>
	<path fill="#FFCD05" d="M78.037 174.387C77.1849 173.087 76.6285 171.214 76.0012 169.773L71.8745 160.607C59.4834 133.094 53.7736 110.186 48.2106 80.4353L41.3016 40.4836L50.6538 57.8286C59.8995 73.7211 70.8205 87.813 82.772 101.734L113.715 134.189C117.074 137.204 120.966 140.111 123.825 143.613C132.842 151.041 142.56 158.796 153.849 162.323C155.036 162.694 156.617 161.759 157.792 161.503C157.307 167.528 155.902 173.396 155.487 179.388L155.123 193.344C155.156 195.803 155.391 198.308 155.319 200.759C135.791 200.402 118.875 186.304 108.149 170.885L101.718 161.442C99.5487 158.301 96.8695 154.282 93.1357 152.898C88.1945 151.066 82.4702 156.684 84.6003 161.193C82.4597 165.18 83.6335 171.591 80.2353 174.826C79.1421 174.955 79.2279 174.106 78.037 174.387ZM123.825 143.613C120.966 140.111 117.074 137.204 113.715 134.189L82.772 101.734C70.8205 87.813 59.8995 73.7211 50.6538 57.8286C50.0552 59.8154 53.8787 65.9024 54.9804 67.9543C67.9943 92.1916 91.1203 118.655 113.07 136.072C116.225 138.576 120.066 142.165 123.825 143.613Z"/>
	<path d="M323.883 86.3157L325.626 86.1728C359.691 84.6374 359.083 174.56 314.699 176.111C297.1 174.68 287.921 154.634 288.166 138.812C288.494 117.655 301.249 90.8514 323.883 86.3157ZM327.132 94.0732C302.536 95.8499 287.998 134.851 299.361 156.159L299.566 156.547C302.089 161.26 306.477 165.72 311.651 167.355L312.618 167.617C342.035 173.743 352.05 118.366 334.142 97.962C332.361 95.9327 330.074 94.0926 327.232 94.0457L327.132 94.0732Z"/>
	<path d="M320.184 112.635L320.797 112.786C319.911 116.072 315.8 118.48 314.887 124.323L316.205 125.287C318.034 126.599 321.4 128.477 323.723 128.054L324.041 127.991C332.435 126.734 336.987 113.316 338.573 132.23C339.283 140.694 336.186 146.868 330.813 153.213C313.556 171.353 289.069 130.223 320.184 112.635Z"/>
	<path d="M247.778 87.9664C265.384 85.3375 278.614 107.232 282.447 121.393C288.256 142.853 282.073 174.884 257.44 181.367C254.922 181.61 252.278 181.803 249.767 181.397L249.421 181.336C229.584 177.976 219.986 154.744 219.986 136.56C219.986 120.271 228.538 91.2222 247.778 87.9664ZM249.086 95.7314C242.899 97.6641 238.925 101.563 235.487 106.969L235.25 107.336C228.444 118.046 224.941 134.733 227.85 146.873C231.024 160.113 239.835 175.105 255.424 173.542C273.288 171.318 279.409 145.508 277.457 130.849C275.747 118.009 265.254 94.4738 249.086 95.7314Z"/>
	<path d="M255.918 128.39L256.296 128.41C258.281 128.834 260.755 131.584 261.652 133.235C270.116 148.813 254.743 179.108 237.545 157.323C231.984 149.184 231.002 138.69 237.52 131.052L237.755 136.032C239.723 139.204 242.392 141.45 246.101 142.295C252.948 143.855 254.971 133.118 255.918 128.39Z"/>
	<path d="M194.556 209.653C197.688 209.346 201.547 213.609 204.05 215.34C224.909 229.757 247.129 238.585 272.864 238.563C305.277 238.536 335.972 228.502 363.7 212.323C365.665 213.807 366.685 215.278 367.449 217.582C364.712 231.98 357.42 244.501 349.503 256.632L347.137 259.944C330.71 281.93 304.926 296.546 277.274 296.369C274.695 296.352 271.786 296.453 269.256 295.891L259.957 294.259C247.361 291.486 234.792 284.364 224.958 275.978C210.85 263.947 193.896 239.584 190.455 221.173C189.619 216.704 189.192 211.067 194.556 209.653ZM210.499 236.116C214.533 244.405 223.389 255.895 230.388 261.923L232.757 258.024L235.993 252.595L210.499 236.116ZM245.654 248.349L244.78 248.695C244.468 249.637 244.528 251.259 244.768 252.219L245.924 250.892L248.462 248.902C247.834 248.013 246.598 248.24 245.654 248.349Z"/>
	<path fill="#846005" d="M312.074 246.138L312.369 246.313C309.64 248.854 307.455 251.49 305.241 254.479C304.724 253.981 303.8 253.108 303.739 252.401L305.135 251.523C304.334 251.087 303.477 250.879 302.604 250.634L296.644 250.128L298.911 249.407C302.932 247.781 307.837 247.357 312.074 246.138Z"/>
	<path fill="#FFCD05" d="M279.703 250.562C283.978 249.76 278.166 252.948 277.245 253.731C274.136 256.371 271.391 259.419 269.02 262.73L266.65 251.263L279.703 250.562Z"/>
	<path fill="#FFCD05" d="M332.063 240.483C337.356 237.393 343.434 235.872 348.858 232.984L341.094 245.861C339.78 248.001 338.48 250.323 336.877 252.259C331.504 258.747 323.326 256.938 328.519 269.588C322.388 272.496 317.022 276.67 310.879 279.618C291.297 289.013 268.497 288.532 248.258 281.39C243.332 279.652 237.73 277.144 234.003 273.402C236.533 267.343 238.383 260.256 242.676 255.219L242.767 255.7C244.578 264.849 254.658 253.993 258.011 251.779C270.51 262.98 262.601 281.755 272.284 267.496C275.312 263.035 278.844 259.445 283.353 256.459C286.342 259.897 292.669 271.769 295.575 272.259C300.414 269.309 288.843 256.982 286.913 252.982L286.986 252.755C291.119 252.743 296.526 254.588 300.411 253.589C305.176 252.363 303.656 258.682 304.911 262.605C310.449 257.483 311.989 250.668 319.714 247.892C322.635 246.851 324.892 246.081 327.929 247.14L328.38 247.213C328.941 244.595 330.089 242.296 332.063 240.483Z"/>
	<path fill="#FDD475" d="M332.063 240.483C333.036 242.004 333.108 250.271 328.38 247.213C328.941 244.595 330.089 242.296 332.063 240.483Z"/>
	<path fill="#FDD475" d="M319.714 247.892C322.635 246.851 324.892 246.081 327.929 247.14C326.072 251.006 320.792 255.067 317.376 257.349L318.333 251.141C318.561 249.955 319.148 248.944 319.714 247.892Z"/>
</svg>
