<?xml version="1.0" encoding="utf-8" ?>
<svg xmlns="http://www.w3.org/2000/svg" xmlns:xlink="http://www.w3.org/1999/xlink" width="1935" height="1088">
	<path transform="scale(2.12637 2.12637)" d="M750.469 181.392C765.508 179.34 762.372 196.366 763.335 205.888L764.766 218.942C765.75 226.154 768.18 232.805 759.591 236.25C747.592 236.815 747.238 226.143 746.115 217.138C744.896 207.364 740.042 187.25 750.469 181.392Z"/>
	<path transform="scale(2.12637 2.12637)" d="M788.452 140.519C798.69 141.828 798.02 149.558 799.245 158.002L803.284 183.377C805.756 198.221 809.731 212.68 813.246 227.284C814.647 233.106 810.598 236.984 805.271 238.2C796.478 237.346 795.162 230.586 793.213 223.017L789.437 207.346C785.923 191.832 782.851 176.134 780.886 160.348C779.796 151.599 777.664 142.833 788.452 140.519Z"/>
	<path transform="scale(2.12637 2.12637)" d="M794.762 263.705C795.041 263.703 796.899 263.546 797.309 263.544C814.889 263.444 831.876 261.845 835.529 283.042C837.566 281.707 839.589 280.733 841.818 279.784C862.368 282.329 890.828 302.589 891.986 324.795C893.577 355.291 854.612 379.515 828.88 389.037C827.859 389.414 824.904 390.091 824.183 390.731C823.61 391.24 822.99 402.035 818.465 407.031C806.364 417.252 779.118 414.239 764.245 414.249C756.558 414.254 748.336 414.827 740.708 414.038C728.633 412.789 733.282 393.568 733.66 386.065L734 356.512C733.776 330.07 729.836 304.831 726.157 278.667C723.975 263.155 745.52 265.924 754.781 265.718L774.922 264.621C781.514 264.351 788.208 264.518 794.762 263.705ZM834.503 298.977L830.558 349.414C829.739 356.326 829.187 363.422 827.152 370.106C836.273 366.403 845.062 360.941 852.855 354.952C860.215 349.315 872.154 339.69 873.534 329.778C876.062 311.62 850.791 300.6 836.475 299.09L834.503 298.977Z"/>
	<path fill="#EBF4F5" transform="scale(2.12637 2.12637)" d="M762.391 395.563L751.317 395.896C751.854 393.779 751.786 391.402 751.913 389.223L752.305 375.344C752.429 360.525 752.7 345.613 751.663 330.823L748.259 302.104C747.462 296.217 747.106 289.627 745.613 283.896L745.511 283.514C748.761 283.055 752.392 283.331 755.686 283.31L802.218 281.556C806.777 281.386 811.386 280.955 815.855 282.086L815.966 282.328C816.54 283.995 816.229 286.913 816.278 288.732C802.773 291.341 761.367 293.276 763.82 313.559L765.665 328.024C767.014 342.46 766.885 358.468 765.315 372.837C764.501 380.287 762.413 388.099 762.391 395.563Z"/>
	<path fill="#B5C6E0" transform="scale(2.12637 2.12637)" d="M762.391 395.555C762.413 388.099 764.501 380.287 765.315 372.837C766.885 358.468 767.014 342.46 765.665 328.024L763.82 313.559C761.367 293.276 802.773 291.341 816.278 288.732C816.438 318.116 812.744 347.176 807.873 376.104C804.689 395.015 808.124 395.549 787.642 395.57L762.391 395.555Z"/>
	<path transform="scale(2.12637 2.12637)" d="M654.51 367.243L678.998 368.344C705.738 370.128 708.007 379.203 705.34 402.28C704.125 412.789 698.894 446.32 693.443 453.687L799.337 453.699C818.209 453.668 836.842 453.217 854.833 460.083C877.054 468.563 891.106 493.735 864.613 504.946C858.948 507.343 851.152 509.613 844.987 509.925L111.537 509.876C92.5017 508.91 67.2221 502.114 59.2467 483.191C51.7373 465.374 55.4736 459.892 72.313 456.989C80.6654 455.55 89.0324 455.035 97.4691 454.415L148.774 451.119C150.963 450.933 154.194 451.724 156.166 450.922C162.343 439.513 166.408 422.177 168.212 409.578C168.968 404.297 169.018 398.653 170.066 393.489L59.3581 393.149C17.8861 393.031 21.38 371.478 17.5829 336.468C16.3737 325.319 17.2288 313.469 17.0012 302.225L17.044 87.1937C17.149 75.8859 14.5898 28.034 20.4348 20.8826L21.0319 20.1555C27.4795 12.5159 42.0086 14.7229 50.8765 14.1089L99.216 11.6266C110.287 11.442 121.654 12.1235 132.683 11.3899C142.265 10.7526 148.284 10.0196 158.573 9.97457L309.855 10.0107C314.229 10.1179 318.417 11.343 322.72 11.4486L382.773 11.631C390.67 11.6458 398.857 11.1554 406.704 11.726C416.605 12.446 426.395 30.0077 399.945 29.6022L335.917 29.2524C324.816 28.7743 315.107 28.4413 303.824 28.3936L133.96 28.4632C129.744 28.5638 125.614 29.3094 121.424 29.3893L36.2701 32.4866L35.0923 289.972C35.9722 290.388 37.4644 290.212 38.447 290.224L46.4788 290.305L60.7389 290.124L60.8659 236.947C60.6838 231.148 60.7352 225.371 60.1095 219.597L49.1909 139.066C47.8674 128.356 46.0321 118.102 45.9431 107.273C45.4799 50.8976 52.7979 41.3056 110.739 41.2351C134.678 41.206 156.356 45.0993 179.674 45.6531L311.128 45.8008C317.437 46.003 323.694 46.9799 329.992 47.0379L398.287 46.6687C405.966 46.7473 413.252 49.7557 421.073 49.8295C421.105 47.9402 420.721 45.8235 421.897 44.3258C424.879 44.2799 439.745 44.7501 442.284 45.7533C469.726 30.2821 499.945 24.4066 531.009 33.0179C593.127 50.2371 610.011 118.221 597.493 175.027C603.087 181.769 621.253 203.019 629.705 205.921C661.477 229.451 645.718 264.336 608.553 269.792C598.559 271.26 587.86 270.179 577.956 268.662L577.493 269.338C580.101 274.395 582.648 276.048 587.71 278.739L598.299 284.515C630.241 303.175 651.639 328.362 654.51 367.243ZM310.831 393.133C307.385 393.143 284.436 392.692 283.27 393.44L283.377 393.75C284.326 396.584 284.59 399.59 285.499 402.455C289.863 416.224 309.168 450.691 326.139 450.745L339.361 450.754L363.825 451.423C349.002 440.203 347.231 418.515 347.546 401.308C347.593 398.764 347.435 395.633 348.289 393.22L310.831 393.133ZM44.8861 373.281C45.6912 369.591 44.1845 364.216 43.9428 360.359C43.3153 350.345 42.4679 328.49 44.9067 319.245L141.7 313.443L142.632 311.333C141.087 310.579 139.506 310.131 137.855 309.667L135.699 308.487L45.6724 308.425C30.9168 308.294 35.3989 306.457 35.9905 322.457C36.437 334.533 34.1918 365.849 44.8861 373.281ZM510.964 427.957C511.407 432.802 507.609 436.493 508.125 443.403C528.3 447.074 541.9 452.853 564.6 453.305C566.231 449.642 566.784 445.943 567.283 441.999L566.603 441.138C558.71 431.632 541.447 430.726 530.047 429.607L510.964 427.957ZM631.266 385.767L624.491 385.846L637.771 431.399L644.858 452.55L645.104 452.261C647.209 449.528 645.459 429.697 644.819 424.948C644.418 420.515 642.019 402.601 643.524 399.492C644.617 397.235 651.228 395.864 653.639 395.161L657.868 394.412C657.344 394.198 656.909 394.049 656.343 393.98L655.84 393.922C654.478 392.814 655.829 391.055 654.83 389.806C653.556 388.213 651.315 387.947 650.6 385.656L631.266 385.767ZM650.6 385.782C651.315 387.947 653.556 388.213 654.83 389.806C655.829 391.055 654.478 392.814 655.84 393.922L656.343 393.98C656.909 394.049 657.344 394.198 657.868 394.412C665.255 392.702 685.81 393.631 688.683 390.195C688.221 385.899 655.192 385.798 650.6 385.782Z"/>
	<path fill="#734045" transform="scale(2.12637 2.12637)" d="M408.778 443.723L415.37 443.451L415.782 450.444C414.289 448.304 411.601 444.628 409.034 443.793L408.778 443.723Z"/>
	<path fill="#97A1BB" transform="scale(2.12637 2.12637)" d="M221.441 392.864L250.91 393.144C255.607 393.164 260.81 392.768 265.441 393.416L267.285 403.506C257.756 403.612 224.809 402.917 218.348 397.519C219.512 396.11 220.453 394.407 221.441 392.864Z"/>
	<path fill="#EBF4F5" transform="scale(2.12637 2.12637)" d="M199.318 450.293L175.411 450.295C180.719 443.919 187.896 401.992 188.433 393.192L221.441 393.126C220.453 394.407 219.512 396.11 218.348 397.519C206.517 409.2 202.971 434.728 199.318 450.293Z"/>
	<path fill="#FDEB28" transform="scale(2.12637 2.12637)" d="M657.868 394.412C665.255 392.702 685.81 393.631 688.683 390.195C689.232 407.343 681.987 430.915 676.096 446.688C675.363 448.652 674.743 451.952 673.377 453.437L644.858 453.196L645.104 452.261C647.209 449.528 645.459 429.697 644.897 424.948C644.418 420.515 642.019 402.601 643.524 399.492C644.617 397.235 651.228 395.864 653.639 395.161L657.868 394.412Z"/>
	<path fill="#B5C6E0" transform="scale(2.12637 2.12637)" d="M597.493 175.027C603.087 181.769 621.253 203.019 629.705 205.921C610.518 214.828 624.459 220.393 627.857 231.547C633.636 250.514 594.814 257.219 578.797 248.21L597.493 175.027Z"/>
	<path fill="#B5C6E0" transform="scale(2.12637 2.12637)" d="M199.318 450.304C202.971 434.728 206.517 409.2 218.348 397.519C224.809 402.917 257.756 403.612 267.285 403.532C270.64 418.932 278.204 431.96 287.205 444.681C288.562 446.598 288.886 448.649 290.731 450.213L199.318 450.304Z"/>
	<path fill="white" transform="scale(2.12637 2.12637)" d="M75.026 474.732L74.7894 473.807C79.5632 470.745 94.105 471.56 99.7789 471.241L148.584 468.496L508.172 468.465C512.077 468.527 515.927 469.163 519.833 469.31L554.935 470.489C562.473 470.873 568.298 471.814 576.508 471.852L794.381 471.829C811.943 471.825 830.777 470.552 847.493 477.06L847.126 477.405C845.552 478.729 840.599 478.549 838.595 478.61L553.312 478.647C545.86 478.519 538.34 477.894 530.855 477.689L481.039 476.865C476.569 476.729 472.196 475.673 467.766 475.614L257.937 475.659C252.625 475.726 247.492 476.876 242.254 476.95L86.213 477.173C82.1984 477.118 79.0063 474.794 75.4336 474.733L75.026 474.732Z"/>
	<path fill="white" transform="scale(2.12637 2.12637)" d="M466.364 116.784C486.121 131.576 521.999 150.993 547.4 141.676L549.458 157.222C551.234 178.713 547.755 199.229 533.937 216.417C516.429 238.197 481.778 242.62 459.795 224.848C438.098 207.307 431.308 173.766 433.269 146.924C433.494 143.83 433.796 139.945 435.223 137.164C440.704 135.014 445.872 131.064 450.612 127.634L466.364 116.784Z"/>
	<path transform="scale(2.12637 2.12637)" d="M467.06 155.606C477.474 155.118 480.176 167.459 470.192 171.674C458.676 171.86 456.997 159.677 467.06 155.606Z"/>
	<path transform="scale(2.12637 2.12637)" d="M502.96 151.592C514.182 150.103 518.24 162.447 508.473 167.615C497.101 169.964 493.863 156.953 502.96 151.592Z"/>
	<path transform="scale(2.12637 2.12637)" d="M501.026 197.868C512.711 196.407 516.53 208.521 506.713 214C499.372 218.098 488.921 219.981 480.775 217.728L478.96 217.009C465.352 211.296 470.939 195.756 482.993 199.97C493.913 203.788 489.846 201.832 501.026 197.868Z"/>
	<path fill="#FDEB28" transform="scale(2.12637 2.12637)" d="M75.026 474.732L75.4336 474.733C79.0063 474.794 82.1984 477.118 86.213 477.173L242.254 476.95C247.492 476.876 252.625 475.726 257.937 475.659L467.766 475.614C472.196 475.673 476.569 476.729 481.039 476.865L530.855 477.689C538.34 477.894 545.86 478.519 553.312 478.647L838.595 478.61C840.599 478.549 845.552 478.729 847.126 477.405L847.493 477.06C852.671 478.783 856.344 481.058 859.815 485.305C842.185 495.021 785.437 492.314 765.011 492.325L418.787 493.022L175.938 492.182C171.776 492.039 167.693 491.209 163.569 491.069L126.556 489.572C113.345 488.882 79.981 489.87 75.026 474.732Z"/>
	<path fill="#B5C6E0" transform="scale(2.12637 2.12637)" d="M448.116 61.5828C487.015 38.013 541.765 40.642 566.979 82.6588L567.38 83.3933L570.715 89.0992C585.96 117.492 584.748 144.959 578.95 175.146L562.702 236.644C561.377 236.575 558.653 234.357 557.361 233.662L547.377 228.871L554.451 218.863C571.511 190.296 570.173 157.842 562.243 126.61C559.532 115.935 550.885 93.5116 541.109 87.9686C535.033 84.5237 527.211 90.3611 528.939 97.2253C530.365 102.891 539.005 115.255 541.959 123.741L539.424 124.783C520.831 131.222 489.649 112.64 476.141 100.941C469.502 95.1923 463.153 86.0843 455.251 82.279C445.357 83.0798 444.982 93.2508 449.677 99.5722C454.379 105.902 460.497 111.556 466.364 116.784L450.612 127.634C445.872 131.064 440.704 135.014 435.223 137.164C436.458 124.896 422.355 118.174 417.931 132.677C408.574 163.349 421.333 212.748 443.395 234.974C425.757 244.525 407.699 248.716 387.997 250.352L408.163 241.361C412.012 239.269 423.482 232.819 425.187 228.612C425.965 226.694 413.43 203.796 412.014 200.455C391.583 152.269 398.179 88.6309 448.116 61.5828Z"/>
	<path fill="#EBF4F5" transform="scale(2.12637 2.12637)" d="M448.116 61.5828C487.015 38.013 541.765 40.642 566.979 82.6588L567.38 83.3933L566.408 83.7515C564.392 84.2752 561.542 82.3723 559.561 81.7255L548.361 78.4275C545.579 77.5145 542.898 76.224 540.098 75.3903C539.048 75.0777 537.69 75.3729 536.806 74.8889C537.742 71.4652 541.351 70.4085 544.425 69.5451C546.933 69.1077 550.298 68.9887 548.088 65.9023L537.65 65.3259C513.971 62.5119 476.051 63.1654 455.961 78.2473C452.989 78.3541 451.355 77.6313 448.764 76.2239C448.52 73.9306 454.598 66.3079 456.777 64.78L450.112 76.2222C457.072 79.7934 462.628 72.5179 469.219 70.8889C470.891 70.4756 475.76 69.004 477.06 68.0348L477.217 67.8911C485.907 68.2979 499.834 62.1934 511.276 62.4449L513.869 60.3255C515.811 59.69 518.151 57.5761 519.966 57.5134L520.397 57.5182C525.939 51.375 507.991 47.5883 503.147 47.3283C493.463 46.8085 484.817 47.955 475.499 50.4983C466.751 52.8864 456.951 56.9556 449.232 61.7209L448.116 61.5828Z"/>
	<path fill="#B5C6E0" transform="scale(2.12637 2.12637)" d="M135.699 308.618L169.253 308.496L306.313 311.169L305.499 312.196C305.758 314.487 303.366 317.087 302.103 318.83C315.378 321.946 321.751 322.07 335.732 322.12L367.423 322.173C360.962 333.592 357.024 346.447 353.842 359.087L351.479 369.333C351.191 370.931 351.16 374.076 350.246 375.347L81.2362 375.239C73.2793 375.235 51.2614 377.542 44.8587 373.281C45.6912 369.591 44.1845 364.216 43.9428 360.359C43.3153 350.345 42.4679 328.49 44.9067 319.245L141.7 313.403L142.632 311.333C141.087 310.579 139.506 310.131 137.855 309.667L135.699 308.618Z"/>
	<path fill="#EBF4F5" transform="scale(2.12637 2.12637)" d="M135.699 308.618L169.253 308.496L171.206 309.587C167.472 309.598 164.201 308.322 160.74 310.619L160.183 312.758C163.455 313.361 166.752 313.263 170.066 313.259L141.7 313.4L142.632 311.333C141.087 310.579 139.506 310.131 137.855 309.667L135.699 308.618Z"/>
	<path transform="scale(2.12637 2.12637)" d="M234.072 330.29L336.287 333.06C341.661 333.666 343.51 340.12 337.473 341.82L234.624 340.367C227.945 339.778 229.687 333.179 234.072 330.29Z"/>
	<path fill="#F9BCF0" transform="scale(2.12637 2.12637)" d="M462.204 283.994C464.842 282.008 466.383 279.554 467.938 276.708L464.933 271.845C467.648 269.283 470.499 266.738 472.724 263.725L477.405 256.749C481.217 250.71 482.604 253.799 491.065 253.54C503.839 253.15 514.671 250.282 526.596 245.425C537.303 249.817 548.225 251.241 557.589 258.517C564.35 262.68 570.669 265.635 577.956 268.662L577.493 269.338C580.101 274.395 582.648 276.048 587.71 278.739L598.299 284.515C630.241 303.175 651.639 328.362 654.51 367.243L636.638 367.409C629.267 367.439 623.831 367.243 617.623 371.633C614.829 365.395 607.431 345.167 601.691 342.883C597.038 341.032 592.111 343.17 590.461 347.932C588.998 352.153 591.736 357.072 593.362 360.876L598.033 371.728C603.181 383.502 606.838 394.6 610.359 406.937L623.609 448.99C623.973 450.278 624.092 451.96 624.726 453.128L587.456 452.85C586.726 419.304 557.777 414.364 529.619 411.837C504.149 409.552 478.682 410.219 453.128 410.245L437.339 410.24C401.199 410.143 408.947 387.053 423.798 364.278C425.755 361.276 429.097 358.194 429.89 354.655C431.829 345.999 421.854 340.105 412.74 350.232C398.983 365.518 383.259 400.76 402.543 417.84C410.296 424.706 420.664 426.575 430.647 427.472L510.964 427.764C511.407 432.802 507.609 436.493 508.125 443.403C484.389 436.787 458.217 437.241 433.891 439.579L415.37 443.451L408.778 443.723C391.385 440.683 390.227 449.502 375.748 436.284C369.282 430.38 366.072 422.078 365.695 413.421C364.176 378.582 372.171 339.416 396.415 313.111C408.991 299.466 427.326 286.589 446.194 284.12C451.389 283.44 456.947 284.213 462.204 283.994Z"/>
	<path transform="scale(2.12637 2.12637)" d="M463.115 285.282C476.255 277.371 484.808 305.094 511.239 302.531C524.729 301.223 538.164 292.982 542.034 279.44C545.404 267.65 535.392 266.944 534.541 257.903C533.277 244.469 552.586 255.938 556.802 259.726C569.122 276.94 554.039 300.346 539.694 310.564C501.259 337.942 449.512 300.277 463.115 285.282Z"/>
	<path fill="white" transform="scale(2.12637 2.12637)" d="M462.204 284.009C464.842 282.008 466.383 279.554 467.938 276.708L464.933 271.845C467.648 269.283 470.499 266.738 472.724 263.725L477.405 256.749C481.217 250.71 482.604 253.799 491.065 253.54C503.839 253.15 514.671 250.282 526.596 245.425C537.303 249.817 548.225 251.241 557.589 258.517L556.802 259.726C552.586 255.938 533.277 244.469 534.541 257.903C535.392 266.944 545.404 267.65 542.034 279.44C538.164 292.982 524.729 301.223 511.239 302.531C484.808 305.094 476.255 277.371 463.115 285.282L462.204 284.009Z"/>
	<path fill="#EBF4F5" transform="scale(2.12637 2.12637)" d="M46.4788 290.287L60.7389 290.124L60.8659 236.947C60.6838 231.148 60.7352 225.371 60.1095 219.597L49.1909 139.066C47.8674 128.356 46.0321 118.102 45.9431 107.273C45.4799 50.8976 52.7979 41.3056 110.739 41.2351C134.678 41.206 156.356 45.0993 179.674 45.6531L311.128 45.8008C317.437 46.003 323.694 46.9799 329.992 47.0379L398.287 46.6687C405.966 46.7473 413.252 49.7557 421.073 49.8295C421.105 47.9402 420.721 45.8235 421.897 44.3258C424.879 44.2799 439.745 44.7501 442.284 45.7533C430.401 53.4397 418.838 61.8987 409.44 72.5837C371.812 115.367 378.623 176.524 403.456 223.706L386.119 231.966C379.772 235.352 371.964 239.837 369.254 246.908C365.892 255.678 372.438 263.061 380.343 265.903C396.251 271.622 424.464 262.724 439.329 256.456L450.384 251.606C453.228 250.315 456.637 248.622 459.796 248.47C452.878 259.13 448.184 264.248 436.148 267.778C406.342 276.518 383.742 296.072 367.423 322.219L335.732 322.12C321.751 322.07 315.378 321.946 302.103 318.83C303.366 317.087 305.758 314.487 305.499 312.196L306.313 311.351C317.767 308.829 317.186 293.676 305.679 292.67C298.612 292.053 291.272 292.407 284.178 292.393L240.456 292.283C236.017 292.216 231.668 291.463 227.278 291.373L46.4788 290.287Z"/>
	<path transform="scale(2.12637 2.12637)" d="M170.771 78.4034C191.254 76.5277 220.951 80.2503 239.878 88.7028C264.943 99.8968 284.066 125.939 283.455 154C282.601 193.138 241.824 239.027 206.732 252.257C180.389 262.407 148.582 257.276 126.688 239.514C88.2294 208.313 92.5286 134.434 121.909 99.541C134.402 84.7036 152.185 79.9937 170.771 78.4034Z"/>
	<defs>
		<linearGradient id="gradient_0" gradientUnits="userSpaceOnUse" x1="148.304" y1="150.59399" x2="250.11501" y2="158.49899">
			<stop offset="0" stop-color="#FFCF45"/>
			<stop offset="1" stop-color="#F0B868"/>
		</linearGradient>
	</defs>
	<path fill="url(#gradient_0)" transform="scale(2.12637 2.12637)" d="M254.157 126.923C235.996 114.345 195.312 136.456 182.26 150.546C166.164 167.922 165.939 177.451 143.657 192.616C148.352 177.77 167.44 149.244 178.401 139.158C194.674 124.184 237.784 105.541 255.838 125.21L254.157 126.923Z"/>
	<path fill="#FFBB49" transform="scale(2.12637 2.12637)" d="M236.883 142.392C247.321 141.714 242.882 146.116 238.906 151.931C221.222 177.796 191.832 209.488 158.963 210.493C156.028 210.376 153.453 209.894 150.617 209.161C163.48 202.718 167.5 198.592 177.164 188.407C184.061 181.137 187.039 180.556 187.279 168.874C205.751 159.492 209.527 145.597 236.883 142.392Z"/>
	<path fill="#A6724F" transform="scale(2.12637 2.12637)" d="M255.838 125.21C286.976 163.356 230.138 231.553 190.002 238.246C165.67 242.304 136.334 233.526 125.976 209.319L126.923 207.681C137.8 230.133 155.02 229.917 175.404 227.645C194.9 222.436 209.141 212.491 224.14 199.087L243.8 176.754C254.862 163.249 270.876 142.328 254.157 126.923L255.838 125.21Z"/>
	<defs>
		<linearGradient id="gradient_1" gradientUnits="userSpaceOnUse" x1="203.30901" y1="211.83701" x2="206.726" y2="217.16299">
			<stop offset="0" stop-color="#C8A390"/>
			<stop offset="1" stop-color="#E3C5BA"/>
		</linearGradient>
	</defs>
	<path fill="url(#gradient_1)" transform="scale(2.12637 2.12637)" d="M224.14 199.087C227.056 199.532 229.539 200.091 232.303 201.152C229.34 203.23 226.004 204.49 223.088 206.468C220.929 207.933 219.026 210.272 216.766 211.885C205.225 220.119 190.994 227.465 176.629 228.607L175.404 227.645C194.9 222.436 209.141 212.491 224.14 199.087Z"/>
	<defs>
		<linearGradient id="gradient_2" gradientUnits="userSpaceOnUse" x1="129.397" y1="144.23" x2="201.05701" y2="159.06799">
			<stop offset="0" stop-color="#B67164"/>
			<stop offset="1" stop-color="#C28563"/>
		</linearGradient>
	</defs>
	<path fill="url(#gradient_2)" transform="scale(2.12637 2.12637)" d="M141.671 106.478C156.795 94.6611 180.147 95.3403 198.549 97.6228L212.551 99.365C215.643 99.7065 219.226 99.7937 222.153 100.851C199.107 101.258 175.651 114.686 159.924 130.964C145.553 145.838 119.67 186.063 126.923 207.681L125.976 209.319C122.915 203.081 120.335 196.756 119.27 189.863C114.675 160.66 119.778 127.927 141.671 106.478Z"/>
	<path fill="#BBB1AE" transform="scale(2.12637 2.12637)" d="M141.671 106.478C143.835 108.249 145.404 109.932 146.999 112.228C144.596 120.223 140.519 128.202 137.342 135.976C132.456 147.932 128.164 160.294 124.751 172.753L122.297 183.191C121.857 185.392 122.088 188.491 120.057 189.887L119.27 189.863C114.675 160.66 119.778 127.927 141.671 106.478Z"/>
</svg>
