<?xml version="1.0" encoding="utf-8" ?>
<svg xmlns="http://www.w3.org/2000/svg" xmlns:xlink="http://www.w3.org/1999/xlink" width="512" height="512">
	<path fill="#EBF4F5" d="M258.112 508.265L290.005 508.155C287.652 508.397 281.418 507.687 279.644 508.657L279.251 508.898C275.794 510.824 265.334 509.691 260.989 509.621C260.226 508.775 259.556 508.588 258.49 508.348L258.112 508.265Z"/>
	<path fill="#E9E5A3" d="M154.179 509.005C158.983 507.963 163.904 508.157 168.753 508.165L186.152 508.168L184.124 508.768L184.031 509.271C182.76 510.35 180.085 509.699 178.492 509.687L161.875 509.242C159.321 509.141 156.723 509.211 154.179 509.005Z"/>
	<path fill="#E9E5A3" d="M324.679 508.335L344.792 508.114C350.027 508.119 355.412 507.941 360.603 508.709C357.523 508.769 354.493 509.387 351.405 509.561C344.907 509.928 331.794 510.166 325.401 509.49C325.04 509.141 324.887 508.788 324.679 508.335Z"/>
	<path fill="#282729" d="M154.179 508.737L44.0709 509.582C32.6482 509.584 13.9123 511.765 6.48905 501L6.26503 500.681C-0.635758 490.71 1.93136 471.997 12.2457 465.084C21.4304 458.928 32.5957 463.791 40.4142 461.505L40.2237 379.832C40.2071 376.838 39.6314 373.847 39.5935 370.826L39.514 318.663L38.6827 249.625C38.6613 247.674 38.7762 245.476 38.4495 243.555C17.0092 233.057 5.12934 220.753 2.6354 195.531C2.47337 193.892 2.03471 192.29 2.30177 190.625C4.08037 179.534 28.7823 156.401 37.0074 148.93L63.8866 124.577C67.2649 121.644 67.0137 122.855 67.0341 118.137L67.1364 90.6445L69.2111 59.4702C71.4945 31.4887 72.5425 5.83744 106.959 2.21958C112.563 1.6305 118.547 2.01682 124.193 2.01572L393.564 2.01672C398.747 2.01772 404.29 1.63233 409.428 2.18717C437.991 5.27175 442.289 23.7416 444.641 49.2589L446.812 122.6C452.003 126.611 457.964 129.77 463.265 133.726C472.758 140.81 481.529 149.017 490.151 157.125C497.268 163.818 507.023 171.335 509.365 181.375L509.463 181.777C509.943 183.835 509.877 186.058 509.882 188.162C509.922 203.468 506.382 213.965 495.698 224.363C491.761 228.195 487.977 231.888 483.375 234.945C482.102 235.791 472.701 240.737 472.652 240.852C472.461 241.299 472.674 243.175 472.677 243.735L473.236 366.875C473.197 368.569 472.891 370.251 472.84 371.953L473.267 462.09L485.028 461.974C495.703 462.03 504.515 465.085 508.225 476.5C510.439 483.312 509.163 490.336 505.891 496.577L503.883 499.932C496.678 511.119 468.012 509.165 456.596 509.165L422.353 509.154L371.443 509.029L360.603 509.133C355.412 507.941 350.027 508.119 344.792 508.114L324.679 508.127L290.005 508.15L258.112 508.145L186.152 508.159L168.753 508.165C163.904 508.157 158.983 507.963 154.179 508.737ZM59.0139 427.766L59.044 460.489L150.259 460.381C150.316 451.047 149.099 441.622 148.453 432.308L147.72 422.25C147.624 420.604 147.75 418.664 147.455 417.081L146.366 399.188L147.246 346.625C147.629 335.389 147.736 325.316 148.798 314.043C152.04 279.644 166.293 275.316 197.461 271.171L229.712 268.132L270.538 268.085C292.825 268.84 315.996 270.64 337.75 275.944C363.541 282.233 365.004 302.726 365.005 326.581L364.883 343.059L363.438 372.149L363.316 408.751C363.269 411.856 362.855 414.82 362.704 417.893L362.286 431.36L360.584 460.507L453.621 461.306C454.073 459.199 453.989 456.852 454.008 454.702L454.053 411.811L452.636 246.576C433.243 246.253 418.863 240.978 405.487 227.143L400.944 222.006C400.209 221.138 399.419 219.918 398.5 219.261C393.176 223.08 389.133 228.15 384.263 232.478C361.002 253.148 322.135 249.823 303.918 224.021C302.771 222.396 301.743 220.746 300.931 218.928C287.134 238.669 269.132 249.597 243.94 246.253C231.098 244.548 219.702 236.212 211.638 226.407L208.133 221.816C207.531 220.958 206.744 219.418 205.939 218.846C203.929 222.634 201.031 226.023 198.06 229.091C180.24 247.497 154.534 252.299 131.599 239.625C121.856 234.241 114.415 226.269 107.797 217.488L107.661 217.77C100.187 232.621 78.1128 244.888 62.25 247.004C61.2909 247.132 58.5264 247.145 57.8844 247.7L57.9446 327.5C57.9758 330.206 58.4288 332.905 58.4812 335.625L58.5785 420.597C58.5808 422.951 58.4434 425.427 59.0139 427.766Z"/>
	<path fill="#E9E5A3" d="M403.776 495.947C405.458 498.261 409.56 497.296 411.795 498.019L411.68 498.307L401.431 498.52C402.136 497.593 402.961 496.782 403.776 495.947Z"/>
	<path fill="#F484BA" d="M450.054 194.128C453.708 193.456 457.804 194.294 461.399 193.529C459.324 194.305 458.163 195.999 456.568 197.338C454.772 196.92 452.404 197.45 450.52 197.486C451.01 196.141 451.31 195.048 450.054 194.128Z"/>
	<path fill="#3F2C42" d="M158.084 191.762C160.45 191.664 163.028 191.425 165.366 191.744C162.586 194.55 160.022 196.537 156.694 198.741L146.43 205.42C144.424 206.716 142.426 208.391 140.297 209.443C141.088 207.613 143.064 207.151 144.511 206.117L151.468 201.5C151.791 201.316 152.077 201.183 152.344 200.916L152.501 200.751C153.115 200.418 152.67 200.848 153.086 200.432L153.625 200.25C153.839 200.015 154.006 199.871 154.281 199.704L158.251 197.001C158.733 196.753 159.109 196.578 159.562 196.251L160.482 195.615C161.114 195.245 161.541 194.787 162.098 194.343L161.562 193.749C159.271 193.228 160.618 196.502 157.127 193.125L156.125 193.373C155.79 193.574 155.618 193.84 155.23 193.986L153.188 194.999C151.822 195.651 149.52 196.844 148.387 197.819L148.188 197.999C147.123 198.631 148.789 197.453 147.5 198.372C147.025 198.711 146.291 198.945 145.917 199.318L145.749 199.499C144.53 199.848 142.279 201.306 141.365 202.092L141.188 202.249C140.477 202.655 140.187 202.87 139.28 202.924C140.892 201.553 142.97 200.453 144.783 199.363L158.084 191.762Z"/>
	<path fill="#639782" d="M371.443 509.029C379.397 508.068 387.199 507.482 395.211 507.486L406.639 507.594C409.141 507.712 411.482 507.801 413.83 508.758C415.885 509.594 420.089 509.109 422.353 509.131L371.443 509.029Z"/>
	<path fill="#EBF4F5" d="M314.762 201.618L312.679 193.664L335.683 192.652L336.763 193.375C336.277 193.814 335.866 194.053 335.287 194.337C328.479 197.014 321.365 198.39 314.762 201.618Z"/>
	<defs>
		<linearGradient id="gradient_0" gradientUnits="userSpaceOnUse" x1="246.22301" y1="199.66" x2="219.46899" y2="199.466">
			<stop offset="0" stop-color="#BEC5BA"/>
			<stop offset="1" stop-color="#E6E3D8"/>
		</linearGradient>
	</defs>
	<path fill="url(#gradient_0)" d="M220.857 204.532C220.002 201.315 219.428 198.104 219.154 194.785L228.7 194.947C230.476 195.032 232.256 195.31 234.029 195.334L243.023 195.396C244.899 195.408 246.86 195.285 248.711 195.61C241.436 198.422 233.559 198.567 226.439 201.896C224.638 202.738 222.752 203.981 220.857 204.532Z"/>
	<path fill="#F484BA" d="M383.709 192.314L384.487 192.509C385.283 194.118 389.761 211.234 389.988 213.125C387.618 215.113 378.972 209.52 371.955 211.424L372.235 210.82C373.366 208.217 375.86 206.551 377.576 204.363C379.232 202.252 384.035 195.173 383.709 192.314Z"/>
	<path fill="#EB6FAC" d="M476.076 165.75C481.027 169.936 486.041 174.004 489 179.921C481.594 181.426 474.138 181.16 466.624 181.192L456.646 181.372C462.611 175.445 468.816 170.183 476.076 165.75Z"/>
	<path fill="#F7B2CB" d="M158.084 191.841L144.783 199.363C142.97 200.453 140.892 201.553 139.28 202.924L127.546 211.732C125.351 205.602 125.258 199.085 125.223 192.66C134.954 190.928 147.694 192.765 158.084 191.841Z"/>
	<path fill="#F7B2CB" d="M43.7838 159.641C45.0656 160.554 47.386 160.451 48.9319 160.408C49.8301 161.756 50.9581 162.125 52.1804 163.053L53.6303 162.309L53.4624 167.788L45.2935 174.65C43.3535 176.375 41.5364 178.22 39.2789 179.525C38.4902 179.7 37.6781 179.555 36.8822 179.48C31.4004 180.394 25.8962 180.284 20.4837 181.624C28.5599 172.516 34.528 167.461 43.7838 159.641Z"/>
	<path fill="#834A72" d="M52.1804 163.053L53.6303 162.309L53.4624 167.788L45.2935 174.65C43.3535 176.375 41.5364 178.22 39.2789 179.525C38.4902 179.7 37.6781 179.555 36.8822 179.48L52.1804 163.053Z"/>
	<path fill="#F7B2CB" d="M450.52 197.486C438.973 198.861 428.712 208.079 418.577 213.068C414.742 208.062 413.774 200.374 412.932 194.281C416.518 194.933 420.253 194.863 423.887 194.885L450.054 194.247C451.31 195.048 451.01 196.141 450.52 197.486Z"/>
	<path fill="#F7B2CB" d="M44.4522 191.125L61.2869 191.082C59.0279 193.041 55.685 194.332 53.0985 195.895C46.4563 199.908 39.9084 203.962 33.6366 208.545L28.2255 213.387C25.7467 207.822 24.4341 198.048 21.4657 194.007L44.4522 191.125Z"/>
	<path fill="#EB6FAC" d="M380.154 157.016C381.399 158.927 382.264 161.244 382.903 163.425L387.135 176.508C387.323 177.149 388.213 179.453 388.022 180.009L344.408 180.512L346.125 180.204C350.302 174.843 362.9 165.307 368.385 161.841C374.312 158.097 373.604 158.409 379.817 157.092L380.154 157.016Z"/>
	<path fill="white" d="M388.022 180.009L367.391 179.992C373.868 177.608 379.813 169.12 382.903 163.425L387.135 176.508C387.323 177.149 388.213 179.453 388.022 180.009Z"/>
	<path fill="#F7B2CB" d="M165.366 191.768L179.939 191.705C183.538 191.884 187.356 192.502 190.949 192.169C190.357 193.683 188.25 194.135 187.005 194.875L179.828 199.324C166.029 207.151 152.749 215.011 140.099 224.616C136.554 222.596 133.296 219.475 130.881 216.206L140.297 209.443C142.426 208.391 144.424 206.716 146.43 205.42L156.694 198.741C160.022 196.537 162.586 194.55 165.366 191.768Z"/>
	<path fill="#F7B2CB" d="M371.955 211.424C368.855 212.794 366.074 214.797 363.311 216.738L350.461 225.786C341.053 231.907 336.509 231.622 327.03 224.879C330.749 222.677 335.403 220.93 339.809 218.252L374.966 193.783C377.884 191.846 380.356 191.639 383.709 192.314C384.035 195.173 379.232 202.252 377.576 204.363C375.86 206.551 373.366 208.217 372.235 210.82L371.955 211.424Z"/>
	<path fill="#F7B2CB" d="M83.0099 191.634L94.6933 191.725C92.7379 192.34 90.7748 193.955 89.0532 195.073L41.6182 225.546L40.625 225.916C36.6907 223.49 33.6145 220.405 30.6251 216.919C35.7897 214.708 40.6475 210.926 45.3615 207.854L65.9644 195.444C73.5562 191.341 74.5501 191.661 83.0099 191.634Z"/>
	<path fill="#F7B2CB" d="M96.723 192.375C98.3897 192.136 99.62 192.647 101.222 192.849L101.485 192.881C99.6408 208.252 82.2947 223.445 68.7829 230.48C62.7271 233.634 58.3033 233.371 51.8965 231.367L44.988 228.615L53 224.775C66.195 217.827 80.1636 208.689 90.7696 198.159C92.6928 196.249 94.5899 194.025 96.723 192.375Z"/>
	<path fill="#F7B2CB" d="M335.683 192.64L375.351 190.802C366.96 193.205 359.188 198.614 351.745 203.11L337.417 211.66C332.51 214.632 327.558 217.843 322.071 219.642L316.646 207.004L314.762 201.618C321.365 198.39 328.479 197.014 335.287 194.337C335.866 194.053 336.277 193.814 336.763 193.375L335.683 192.64Z"/>
	<path fill="#F484BA" d="M335.287 194.337L335.527 194.338C336.56 194.335 337.213 194.224 338.25 194.372L338.75 194.375C338.533 194.933 328.731 200.386 327.187 201.292C323.842 203.258 320.126 205.272 316.646 207.004L314.762 201.618C321.365 198.39 328.479 197.014 335.287 194.337Z"/>
	<path fill="#68B239" d="M483.647 471.144C486.711 471.434 488.241 471.725 490.45 474.052C494.252 479.343 493.302 493.336 487.625 497.393C484.117 499.9 478.466 499.443 474.407 499.435L457.849 499.382C455.271 499.371 452.468 499.117 449.916 499.419L449.918 498.996L445.892 499.056C447.042 497.991 448.314 496.666 449.792 496.1C454.901 491.731 460.868 488.311 466.268 484.276L476.434 476.377C478.423 474.789 481.206 471.753 483.647 471.144Z"/>
	<path fill="#B2E267" d="M449.792 496.1C452.8 496.668 457.292 495.86 460.166 495.147C459.655 496.528 459.702 496.677 458.37 497.665L458.066 497.983C457.626 498.417 457.197 498.533 456.624 498.714L449.918 498.971L445.892 499.056C447.042 497.991 448.314 496.666 449.792 496.1Z"/>
	<path fill="white" d="M483.647 471.144C486.711 471.434 488.241 471.725 490.45 474.052C485.243 481.472 468.843 493.042 460.166 495.147C457.292 495.86 452.8 496.668 449.792 496.125C454.901 491.731 460.868 488.311 466.268 484.276L476.434 476.377C478.423 474.789 481.206 471.753 483.647 471.144Z"/>
	<path fill="#70B83A" d="M454.775 469.951L468.44 469.887C473.63 469.905 478.575 469.895 483.647 471.144C481.206 471.753 478.423 474.789 476.434 476.377L466.268 484.276C460.868 488.311 454.901 491.731 449.792 496.1C448.314 496.666 447.042 497.991 445.892 499.056L449.918 498.996L449.916 499.157L411.68 498.395L411.795 498.019C416.695 497.768 417.757 496.319 421.309 493.339L445.937 475.542C448.772 473.71 452.239 472.159 454.775 469.951Z"/>
	<path fill="white" d="M327.134 467.613L337.883 467.31C340.246 467.304 342.768 467.624 345.1 467.321C349.06 467.615 352.629 467.96 356.505 468.804C352.932 474.091 347.999 477.001 342.8 480.557L332.223 487.884C327.324 491.166 322.335 494.399 317.863 498.264C315.452 498.646 312.952 498.525 310.527 498.529L300.598 498.393L283.038 498.533L282.028 498.387C282.244 497.976 283.898 497.6 284.442 497.38L295.133 493.117C305.145 488.842 314.032 479.644 321.89 472.399C321.842 470.683 322.004 469.02 321.182 467.456C323.156 467.518 325.187 467.304 327.134 467.613Z"/>
	<path fill="#92A8AF" d="M321.182 467.456C323.156 467.518 325.187 467.304 327.134 467.613L321.89 472.399C321.842 470.683 322.004 469.02 321.182 467.456Z"/>
	<defs>
		<linearGradient id="gradient_1" gradientUnits="userSpaceOnUse" x1="356.65302" y1="471.52899" x2="302.13101" y2="496.39401">
			<stop offset="0" stop-color="#537B81"/>
			<stop offset="1" stop-color="#71929F"/>
		</linearGradient>
	</defs>
	<path fill="url(#gradient_1)" d="M345.1 467.505C349.06 467.615 352.629 467.96 356.505 468.804C352.932 474.091 347.999 477.001 342.8 480.557L332.223 487.884C327.324 491.166 322.335 494.399 317.863 498.264C315.452 498.646 312.952 498.525 310.527 498.529L300.598 498.393C313.098 493.291 323.49 483.629 334.289 475.809L341.25 471.003C342.47 470.182 344.463 469.066 345.221 467.799L345.1 467.505Z"/>
	<path fill="#789197" d="M311.037 467.924C311.863 467.128 319.733 467.32 321.182 467.312C322.004 469.02 321.842 470.683 321.89 472.399C314.032 479.644 305.145 488.842 295.133 493.117L284.442 497.38C283.898 497.6 282.244 497.976 282.028 498.387L283.038 498.59L271.299 498.564L261.316 498.956C266.659 489.031 280.875 480.205 289.133 472.249C288.658 470.391 289.193 469.086 290.683 467.874C295.365 468.733 300.382 468.383 305.132 468.354L311.037 467.924Z"/>
	<path fill="white" d="M290.683 467.874C295.365 468.733 300.382 468.383 305.132 468.354L311.037 467.924L309.099 469.186C307.653 469.657 306.36 470.49 305.156 471.404L279.301 492.674C278.429 493.373 272.065 497.804 271.85 498.147L271.299 498.574L261.316 498.956C266.659 489.031 280.875 480.205 289.133 472.249C288.658 470.391 289.193 469.086 290.683 467.874Z"/>
	<path fill="#92A8AF" d="M290.683 467.874C295.365 468.733 300.382 468.383 305.132 468.354L297.75 468.391C295.935 468.402 293.974 468.209 292.258 468.881L289.133 472.249C288.658 470.391 289.193 469.086 290.683 467.874Z"/>
	<path fill="#70B83A" d="M366.624 469.029L392.585 469.053C390.385 470.215 388.107 473.169 386.075 474.777L374.384 484.344C371.598 486.52 355.839 496.162 354.952 497.375L357.078 497.751C348.338 498.402 339.615 498.918 330.875 497.991L328.154 497.961L321.577 498.258C320.382 498.311 319.018 498.246 317.863 498.519C322.335 494.399 327.324 491.166 332.223 487.884L342.8 480.557C347.999 477.001 352.932 474.091 356.505 468.804L366.624 469.029Z"/>
	<path fill="white" d="M356.505 468.804L366.624 469.029L374.945 469.179C367.519 471.278 360.427 477.409 354.432 481.97L345.667 488.533C341.817 491.672 337.522 496.869 332.375 497.524L328.154 497.959L321.577 498.258C320.382 498.311 319.018 498.246 317.863 498.519C322.335 494.399 327.324 491.166 332.223 487.884L342.8 480.557C347.999 477.001 352.932 474.091 356.505 468.804Z"/>
	<path fill="#F7B2CB" d="M190.949 192.287C193.119 192.16 194.471 192.431 196.47 193.252L197.173 193.517C197.942 210.947 176.372 232.092 160.142 232.852C152.67 233.202 147.338 228.803 141.174 225.611C141.063 225.612 140.246 224.757 140.099 224.616C152.749 215.011 166.029 207.151 179.828 199.324L187.005 194.875C188.25 194.135 190.357 193.683 190.949 192.287Z"/>
	<path fill="#3F2C42" d="M190.949 192.287C193.119 192.16 194.471 192.431 196.47 193.252C192.048 196.411 188.019 200.017 183.738 203.351C171.934 212.546 156.332 223.77 141.174 225.611C141.063 225.612 140.246 224.757 140.099 224.616C152.749 215.011 166.029 207.151 179.828 199.324L187.005 194.875C188.25 194.135 190.357 193.683 190.949 192.287Z"/>
	<path fill="#68B239" d="M35.6498 499.473C32.0703 499.751 21.4531 499.046 19.4627 495.556C17.8779 492.776 17.9613 477.505 19.1175 474.235L19.2535 473.875C21.7135 467.105 37.8686 468.366 44.0013 468.36L62.9668 468.999C69.5035 469.175 76.5697 468.546 82.9824 469.936C79.6391 471.013 77.1062 472.915 74.1038 474.571L44.9478 490.706C42.5241 492.212 40.1525 493.775 38.0833 495.756C37.2167 496.629 35.6033 497.918 35.2463 499.066L35.6664 499.321L35.6498 499.473Z"/>
	<path fill="#789197" d="M218.808 467.696L240.38 467.447C239.848 468.035 236.958 471.085 236.907 471.699L218.553 491.464C217.095 493.176 216.052 495.206 214.58 496.885C213.86 497.317 213.849 497.399 213.439 498.085L213.154 498.416C212.763 498.879 212.924 498.606 212.759 499.226L212.669 499.534C206.922 500.964 195.31 499.582 188.653 499.472L165.694 499.02C163.295 498.9 160.6 499.036 158.255 498.553C157.481 498.679 156.938 498.81 156.377 498.25L156.556 497.906C157.013 497.085 158.643 495.549 159.574 495.307C160.677 494.325 161.96 493.659 163.242 492.943C164.147 493.929 167.236 494.198 168.593 494.285C177.725 494.288 181.65 491.388 188.937 485.993L200.366 477.797C206.305 473.616 211.874 469.759 219.08 468.12L218.808 467.696Z"/>
	<path fill="#EBF4F5" d="M159.574 495.307C160.677 494.325 161.96 493.659 163.242 492.943C164.147 493.929 167.236 494.198 168.593 494.285L162.527 494.896C161.633 495.01 160.436 495.406 159.574 495.307Z"/>
	<path fill="white" d="M218.808 467.696L219.08 468.12C211.874 469.759 206.305 473.616 200.366 477.797L188.937 485.993C181.65 491.388 177.725 494.288 168.593 494.285C167.236 494.198 164.147 493.929 163.242 492.943C161.96 493.659 160.677 494.325 159.574 495.307C158.643 495.549 157.013 497.085 156.556 497.906L156.377 498.25C156.938 498.81 157.481 498.679 158.255 498.738L143.438 498.277L136.293 498.499L134.408 497.981C137.976 490.992 156.915 482.553 163.064 473.046C165.271 469.632 162.638 471.782 162.125 469.61L164.765 469.473C166.354 468.982 168.16 469.092 169.772 469.089L185.816 468.888C196.677 468.25 208.566 469.259 218.808 467.696Z"/>
	<path fill="#639782" d="M143.438 498.277C145.373 497.839 147.267 495.954 148.777 494.763L177.804 474.478C186.017 469.244 187.793 470.895 197.135 469.984C186.058 480.267 175.041 485.09 163.242 492.943C161.96 493.659 160.677 494.325 159.574 495.307C158.643 495.549 157.013 497.085 156.556 497.906L156.377 498.25C156.938 498.81 157.481 498.679 158.255 498.738L143.438 498.277Z"/>
	<path fill="#70B83A" d="M95.2817 469.47L123.424 469.207C121.33 469.938 118.769 472.352 116.871 473.633L93.4371 490.012C90.4219 492.283 87.3761 494.451 84.5473 496.962C83.7446 497.563 83.0375 498.141 82.375 498.896L84.804 499.033C79.4831 499.861 73.734 499.482 68.3432 499.487L35.6498 499.465L35.6664 499.321L35.2463 499.066C35.6033 497.918 37.2167 496.629 38.0833 495.756C40.1525 493.775 42.5241 492.212 44.9478 490.706L74.1038 474.571C77.1062 472.915 79.6391 471.013 82.9824 470.003L95.2817 469.47Z"/>
	<path fill="white" d="M95.2817 469.47L76.2405 482.204C68.2434 486.88 51.2346 495.562 42.0807 498.527C40.2498 499.526 37.7139 499.336 35.6664 499.321L35.2463 499.066C35.6033 497.918 37.2167 496.629 38.0833 495.756C40.1525 493.775 42.5241 492.212 44.9478 490.706L74.1038 474.571C77.1062 472.915 79.6391 471.013 82.9824 470.003L95.2817 469.47Z"/>
	<path fill="#70B83A" d="M137.295 469.078C143.092 468.631 159.428 468.498 164.765 469.443L162.125 469.61C162.638 471.782 165.271 469.632 163.064 473.046C156.915 482.553 137.976 490.992 134.408 497.981L136.293 498.316L132.765 498.697C119.757 500.481 105.976 499.218 92.9066 498.874C90.3377 499.075 87.4104 499.036 84.804 498.971L82.375 498.896C83.0375 498.141 83.7446 497.563 84.5473 496.962C87.3761 494.451 90.4219 492.283 93.4371 490.012L116.871 473.633C118.769 472.352 121.33 469.938 123.424 469.3L137.295 469.078Z"/>
	<path fill="white" d="M123.424 469.3L137.295 469.078L138.5 469.375C135.665 472.981 116.037 483.558 111.07 486.626L95.7201 496.73C94.9752 497.581 94.4513 497.933 93.3392 498.22L92.9066 498.749C90.3377 499.075 87.4104 499.036 84.804 498.971L82.375 498.896C83.0375 498.141 83.7446 497.563 84.5473 496.962C87.3761 494.451 90.4219 492.283 93.4371 490.012L116.871 473.633C118.769 472.352 121.33 469.938 123.424 469.3Z"/>
	<path fill="#B2E267" d="M84.5473 496.962C86.0406 497.022 95.4226 496.657 95.7201 496.73C94.9752 497.581 94.4513 497.933 93.3392 498.22L92.9066 498.749C90.3377 499.075 87.4104 499.036 84.804 498.971L82.375 498.896C83.0375 498.141 83.7446 497.563 84.5473 496.962Z"/>
	<path fill="#F7B2CB" d="M461.399 193.795L461.67 193.582C463.41 193.844 465.549 193.537 467.323 193.508L477.633 193.489C479.487 193.499 485.187 193.734 486.589 195.197C488.843 203.787 484.307 211.253 478.363 216.855C472.095 222.763 463.843 229.928 455.359 232.064C448.635 233.757 441.938 231.071 435.462 229.75C434.206 229.288 433.983 228.222 432.898 227.509C429.263 227.692 423.333 221.286 422.006 218.455C423.909 216.446 427.574 214.757 429.997 213.395L449.751 202.019C451.965 200.643 454.46 199.328 456.359 197.54L456.568 197.338C458.163 195.999 459.324 194.305 461.399 193.795Z"/>
	<path fill="#3F2C42" d="M432.898 227.509L471.439 201.035C473.495 199.779 475.71 198.331 477.945 197.423C481.926 195.806 480.433 196.234 483.667 194.39C481.999 196.483 480.789 198.884 479.004 200.875C471.539 209.2 452.625 223.142 442.673 227.643C440.336 228.7 437.876 228.972 435.462 229.75C434.206 229.288 433.983 228.222 432.898 227.509Z"/>
	<path fill="#76919C" d="M242.482 467.487C251.307 466.864 260.399 467.273 269.253 467.277L281.61 467.291C284.607 467.302 287.639 467.217 290.608 467.674L290.683 467.768C289.193 469.086 288.658 470.391 289.133 472.249C280.875 480.205 266.659 489.031 261.316 499.115C259.499 500.156 242.366 499.305 240.157 499.027L237.314 499.039L212.669 499.496L212.759 499.226C212.924 498.606 212.763 498.879 213.154 498.416L213.439 498.085C213.849 497.399 213.86 497.317 214.58 496.885C216.052 495.206 217.095 493.176 218.553 491.464L236.907 471.699C236.958 471.085 239.848 468.035 240.38 467.477L242.482 467.487Z"/>
	<path fill="#B5C6E0" d="M240.38 467.477L242.482 467.487C243.053 467.518 244.322 467.451 244.787 467.706C234.742 467.947 241.225 471.964 242.625 469.877L244.695 468.812L244.125 469.478C242.564 470.039 240.457 472.416 239.155 473.56C238.4 472.822 237.851 472.211 236.907 471.699C236.958 471.085 239.848 468.035 240.38 467.477Z"/>
	<path fill="#B5C6E0" d="M243.11 495.545L243.036 495.855C242.793 496.926 242.683 497.617 243.209 498.625L242.875 498.97C241.975 498.972 241.051 498.928 240.157 499.027L237.314 499.039L235.065 498.875C235.611 498.143 236.275 497.558 236.943 496.939C238.93 496.956 241.362 496.477 243.11 495.545Z"/>
	<path fill="white" d="M236.943 496.939C239.385 494.007 241.891 492.081 245.279 490.343C244.821 492.165 243.951 493.874 243.11 495.545C241.362 496.477 238.93 496.956 236.943 496.939Z"/>
	<path fill="#EBF4F5" d="M236.907 471.699C237.851 472.211 238.4 472.822 239.155 473.56L219.141 493.542C217.817 494.862 216.395 496.287 214.58 496.885C216.052 495.206 217.095 493.176 218.553 491.464L236.907 471.699Z"/>
	<path fill="#70B83A" d="M405.836 468.383L452.268 469.92L454.775 469.951C452.239 472.159 448.772 473.71 445.937 475.542L421.309 493.339C417.757 496.319 416.695 497.768 411.795 498.019C409.56 497.296 405.458 498.261 403.776 495.947C402.961 496.782 402.136 497.593 401.431 498.527C400.683 498.7 399.519 498.564 398.724 498.57L357.967 497.804L357.078 497.751L354.952 497.375C355.839 496.162 371.598 486.52 374.384 484.344L386.075 474.777C388.107 473.169 390.385 470.215 392.585 469.099C397.07 468.569 401.311 468.408 405.836 468.383Z"/>
	<path fill="white" d="M392.585 469.099C397.07 468.569 401.311 468.408 405.836 468.383L406.225 468.699C394.959 477.302 383.196 485.175 371.207 492.713C369.405 493.846 367.753 495.6 365.798 496.434C363.299 497.501 360.518 496.954 357.967 497.646L357.078 497.751L354.952 497.375C355.839 496.162 371.598 486.52 374.384 484.344L386.075 474.777C388.107 473.169 390.385 470.215 392.585 469.099Z"/>
	<path fill="white" d="M454.775 469.951C452.239 472.159 448.772 473.71 445.937 475.542L421.309 493.339C417.757 496.319 416.695 497.768 411.795 498.019C409.56 497.296 405.458 498.261 403.776 495.947L403.961 495.745C405.408 494.229 407.03 492.825 408.747 491.625L434.37 474.787C442.125 468.872 442.074 470.123 452.268 469.965L454.775 469.951Z"/>
	<path fill="white" d="M248.711 195.819L248.977 195.49C251.993 195.648 255.11 195.4 258.142 195.392L287.025 195.432C288.148 195.462 289.639 195.446 290.68 195.86C286.232 233.548 242.79 247.482 224.048 211.862L220.857 204.532C222.752 203.981 224.638 202.738 226.439 201.896C233.559 198.567 241.436 198.422 248.711 195.819Z"/>
	<path fill="#F484BA" d="M334.399 180.528L310.864 180.512C310.552 180.166 310.611 179.004 310.574 178.496L304.47 135.079C306.769 134.542 309.579 134.588 311.948 134.551L367.756 134.555C369.014 135.686 369.761 137.564 370.597 139.027L377.19 151.211L380.154 157.016L379.817 157.092C373.604 158.409 374.312 158.097 368.385 161.841C362.9 165.307 350.302 174.843 346.125 180.204L344.408 180.465L334.399 180.528Z"/>
	<path fill="#EBF4F5" d="M377.19 151.211L380.154 157.016L379.817 157.092C373.604 158.409 374.312 158.097 368.385 161.841C362.9 165.307 350.302 174.843 346.125 180.204L344.408 180.465L334.399 180.528C337.662 176.137 343.484 172.945 347.961 169.813L359.89 161.321C364.822 158.097 371.836 153.944 377.19 151.211Z"/>
	<path fill="#F484BA" d="M48.9812 155.14L66.136 140.249C73.6511 134.5 84.4387 132.181 93.8522 133.459L105.764 133.777L112.764 133.832C115.847 133.895 119.347 134.501 122.383 134.108C117.525 143.087 113.986 153.305 110.847 163.023L106.605 176.563C106.274 177.606 105.926 179.853 105.235 180.58L57.1907 180.338L40.7024 179.897L39.2789 179.525C41.5364 178.22 43.3535 176.375 45.2935 174.65L53.4624 167.788L53.6303 162.309L52.1804 163.053C50.9581 162.125 49.8301 161.756 48.9319 160.408C47.386 160.451 45.0656 160.554 43.7838 159.641L48.9812 155.14Z"/>
	<path fill="#EBF4F5" d="M57.7059 164.524C58.8916 165.284 59.8079 166.134 60.7991 167.124L59.666 169.122C57.8462 167.658 55.7173 168.827 53.7854 167.651C54.7888 166.477 56.462 165.472 57.7059 164.524Z"/>
	<path fill="#A64D79" d="M54.955 161.657C56.4932 161.776 57.1427 162.695 58.1525 163.763L57.7059 164.524C56.462 165.472 54.7888 166.477 53.7854 167.651L53.4624 167.788L53.6303 162.309L54.955 161.657Z"/>
	<path fill="#EB6FAC" d="M43.7838 159.641L48.9812 155.14C52.7476 156.263 56.1849 155.161 60.1938 157.015C60.9365 157.524 61.7534 157.8 62.482 158.262L61.8826 159.076C60.098 159.846 59.0134 162.14 58.1525 163.763C57.1427 162.695 56.4932 161.776 54.955 161.657L53.6303 162.309L52.1804 163.053C50.9581 162.125 49.8301 161.756 48.9319 160.408C47.386 160.451 45.0656 160.554 43.7838 159.641Z"/>
	<path fill="#F484BA" d="M48.9319 160.408C50.8977 160.347 53.2367 160.573 54.955 161.657L53.6303 162.309L52.1804 163.053C50.9581 162.125 49.8301 161.756 48.9319 160.408Z"/>
	<path fill="white" d="M53.7854 167.651C55.7173 168.827 57.8462 167.658 59.666 169.122C59.074 170.974 58.188 172.199 56.9046 173.66C56.8589 175.959 57.1081 178.051 57.1907 180.28L40.7024 179.897L39.2789 179.525C41.5364 178.22 43.3535 176.375 45.2935 174.65L53.4624 167.788L53.7854 167.651Z"/>
	<path fill="#F7B2CB" d="M40.7024 179.897C48.8228 179.814 51.1158 179.583 56.9046 173.66C56.8589 175.959 57.1081 178.051 57.1907 180.28L40.7024 179.897Z"/>
	<path fill="white" d="M93.8522 133.459L105.764 133.777C102.242 135.835 99.7578 136.949 95.9174 139.498L85.7177 146.081C79.6698 150.224 73.7106 155.628 67.0436 158.696C62.7236 160.684 64.8752 160.019 62.482 158.262C61.7534 157.8 60.9365 157.524 60.1938 157.015L60.4072 156.712C61.5071 155.048 63.7484 153.92 65.3941 152.776L87.4809 138.694C89.7718 137.123 91.5684 135.015 93.8522 133.459Z"/>
	<path fill="#F484BA" d="M48.9812 155.166L66.136 140.249C73.6511 134.5 84.4387 132.181 93.8522 133.459C91.5684 135.015 89.7718 137.123 87.4809 138.694L65.3941 152.776C63.7484 153.92 61.5071 155.048 60.4072 156.712L60.1938 157.015C56.1849 155.161 52.7476 156.263 48.9812 155.166Z"/>
	<path fill="white" d="M456.646 181.478C452.662 182.245 448.574 182.058 444.544 182.066L431.328 181.934C414.299 180.961 409.098 178.995 402.967 164.069C400.069 157.014 393.463 138.902 388.751 133.708L436.883 132.202C438.072 132.9 439.179 133.97 440.257 134.844L476.076 165.75C468.816 170.183 462.611 175.445 456.646 181.478Z"/>
	<path fill="white" d="M256.524 133.383L282.508 133.748C288.495 149.542 291.009 165.558 292.258 182.403C287.796 182.877 283.137 182.627 278.646 182.633L254.375 182.654L218.436 182.609C219.152 178.411 219.354 173.98 219.897 169.732L223.726 145C224.358 141.454 224.852 137.732 225.894 134.287L256.524 133.383Z"/>
	<path fill="#F484BA" d="M197.325 135.002L207.385 135.76L200.692 175.624C200.45 177.491 200.437 179.415 199.947 181.236L124.591 181.288C125.015 180.131 125.082 178.83 125.341 177.624C126.786 170.894 138.399 138.798 143.521 134.331C144.059 133.862 145.176 134.121 145.896 134.165L177.542 134.505L184.963 134.503L197.325 135.002Z"/>
	<path fill="#EBF4F5" d="M145.896 134.165L177.542 134.505C172.832 138.103 158.089 141.154 152.602 141.333C153.695 140.049 154.615 138.146 156.088 137.35L156.298 137.241C153.396 137.216 150.378 137.024 147.499 137.423L147.129 137.477C146.168 136.092 145.85 135.872 145.896 134.165Z"/>
	<path fill="white" d="M184.963 134.502L197.325 135.002C194.956 136.065 192.729 138.207 190.527 139.625L176.11 148.339C172.97 150.102 169.842 151.91 166.446 153.132C171.341 145.882 180.272 142.198 184.963 134.502Z"/>
	<path fill="#B5C6E0" d="M241.925 283.241L265.33 282.444L278.3 283.22L289.3 283.772L300.394 284.65C301.765 284.779 303.202 284.725 304.553 284.97C314.576 285.185 324.238 286.693 333.332 291.09C347.339 297.328 345.005 320.771 344.98 333.154L344.917 349.038C344.846 351.185 344.475 353.287 344.436 355.445L344.278 383.325L344.047 385.14L343.621 407.505C343.38 411.83 342.689 416.141 342.625 420.461L342.489 456.1C342.485 457.295 342.616 458.677 342.364 459.841L282.859 460.342C282.473 460.337 281.579 460.421 281.251 460.291L275.874 460.008L248.695 460.259L247.057 460.033L220.852 460.379L218.259 460.311L201.028 460.4L194.014 460.389L168.61 460.523C168.14 458.822 168.483 456.118 168.476 454.321L168.351 437.979C168.26 435.083 167.805 432.249 167.62 429.378L166.79 410.475L166.847 345.524C167.319 334.11 167.654 318.53 170.234 308C174.108 292.185 186.578 291.247 200.662 288.298C203.95 287.609 207.609 286.594 210.962 286.512L229.123 284.194C233.219 283.453 237.769 283.327 241.925 283.241Z"/>
	<path fill="#EBF4F5" d="M290.959 432.002C291.995 431.945 292.763 431.984 293.75 432.314L291.935 433.37C291.036 433.655 290.198 433.955 289.25 433.991L288.977 433.625C289.421 432.801 290.182 432.46 290.959 432.002Z"/>
	<path fill="white" d="M191 297.625L184.866 302.81C182.905 304.225 181.108 303.986 178.875 303.623L177.747 303.375C179.103 301.572 182.489 299.943 184.562 299.251L186.375 298.627C187.097 298.36 187.838 298.29 188.539 298.025L188.75 297.939C189.496 298.061 190.322 297.968 191 297.625Z"/>
	<path fill="#EBF4F5" d="M339.528 398.875L339.816 398.863C340.741 400.922 337.408 402.868 336.149 403.879L323.721 412.893C320.013 415.456 316.631 418.292 312.598 420.358C313.116 419.412 314.321 418.556 315.145 417.826L339.528 398.875Z"/>
	<path fill="white" d="M194.014 460.389L189.251 460.036L195.281 459.976C198.239 459.948 201.885 458.693 203.877 456.375C203.467 455.221 202.926 453.996 202.311 452.94C199.075 454.135 193.102 458.469 190.09 457.902L190.343 457.871C192.56 457.586 205.331 451.193 207.345 449.831C214.272 445.148 219.922 437.587 228.324 435.386C226.655 437.305 224.545 438.797 222.669 440.508L211.202 450.648C207.742 453.72 204.564 457.022 200.569 459.403L200.124 459.688C200.457 459.962 200.651 460.089 201.028 460.266L194.014 460.389Z"/>
	<path fill="#EBF4F5" d="M340.652 318.625C340.959 318.795 340.813 318.66 340.974 319.125C334.144 327.033 312.094 344.372 301.826 348.656C303.441 346.792 305.508 345.483 307.294 343.803L313.285 338.009C321.555 330.75 331.07 323.939 340.652 318.625Z"/>
	<path fill="#282729" d="M284.28 350.066C295.016 348.625 294.797 359.164 287.176 362.317C278.956 363.703 274.825 353.832 284.28 350.066Z"/>
	<path fill="white" d="M218.259 460.311C219.36 455.42 227.907 451.636 231.814 448.755C235.375 446.13 248.325 434.854 252.115 435.26L252.545 435.875L231.07 454.015C228.907 455.801 227.09 458.052 224.526 459.267C222.506 460.224 222.37 459.614 220.852 460.213L218.259 460.311Z"/>
	<path fill="white" d="M247.057 460.033L242.045 460.008C246.4 454.855 252.445 451.564 257.769 447.566L265.747 441.391C268.849 438.876 271.962 436.25 275.584 434.522C271.421 442.196 263.419 448.032 256.832 453.527C255.252 454.845 249.508 459.026 248.695 460.017L247.057 460.033Z"/>
	<path fill="#282729" d="M224.558 349.553C226.335 349.416 228.68 349.191 230.336 349.902C234.142 351.537 235.418 359.664 228.198 361.916C218.805 362.501 215.184 351.518 224.558 349.553Z"/>
	<path fill="#EBF4F5" d="M344.047 385.14C339.194 384.626 324.402 396.346 320.097 399.099L312.011 403.726C309.24 405.222 306.98 406.599 303.862 407.299C305.413 405.906 307.211 404.864 308.927 403.695L339.288 380.852C345.209 375.806 343.493 377.673 344.002 383.04L344.031 383.325L344.047 385.14Z"/>
	<path fill="white" d="M210.962 286.512L229.123 284.194L230.875 284.322C230.402 285.73 226.346 286.758 225.1 287.375C217.939 290.919 200.771 305.569 195.625 306.503L195.198 306.25C196.573 301.518 212.33 290.503 212.377 288.125L213.126 287.438C213.013 286.991 213.004 286.922 212.664 286.581L212.326 286.682C211.762 286.805 211.492 286.683 210.962 286.512Z"/>
	<path fill="white" d="M275.874 460.008L269.287 460.004C271.221 458.68 272.893 457.181 274.764 455.766C278.52 452.927 282.782 450.957 286.485 448.181L301.163 436.079C303.821 433.734 305.22 434.076 308.751 433.71L280.75 459.627L281.251 460.041L275.874 460.008Z"/>
	<path fill="white" d="M278.3 283.22L289.3 283.772L289.259 284.131C288.414 285.085 287.053 285.701 285.96 286.343L262.883 300.617C260.915 301.845 253.455 307.633 251.756 303.875C252.77 298.894 270.381 286.994 275.119 283.242L278.3 283.22Z"/>
	<path fill="white" d="M241.925 283.241L265.33 282.444C262.937 284.435 258.866 285.121 256.043 286.57L242.281 294.193C235.312 298.251 226.826 304.573 218.547 305.188C222.769 297.659 233.26 290.122 240.814 286.131C241.743 285.641 242.031 284.891 242.877 284.375L242.56 283.464C242.124 283.402 242.29 283.453 241.925 283.241Z"/>
	<path fill="#282729" d="M301.326 353.566C314.1 352.69 315.007 375.195 303.332 378.002C290.859 378.431 288.349 355.69 301.326 353.566Z"/>
	<path fill="#282729" d="M210.32 352.787C222.063 352.05 223.211 375.058 210.402 377.746C199.376 377.945 196.047 356.088 210.32 352.787Z"/>
	<path fill="white" d="M304.553 284.97C314.576 285.185 324.238 286.693 333.332 291.09C323.82 295.69 316.508 304.052 307.001 308.345L307.434 307.25C311.084 297.735 323.901 292.65 325.783 288.75L325.472 288.319C324.827 288.5 324.357 288.69 323.693 288.472C318.416 286.745 313.234 290.057 308.793 292.444L285.129 306.501C278.131 310.368 278.319 307.582 282.29 302.33L282.543 302C288.15 294.562 297.302 290.599 301.406 285.462L304.553 284.97Z"/>
	<path fill="#282729" d="M254.323 351.049C262.44 350.734 265.161 355.299 265.195 362.504L265.212 369.291C265.218 376.699 266.182 384.176 263.115 391.099C266.349 389.414 269.296 387.372 272.785 386.215L274.932 387.258C277.669 388.9 278.933 391.473 279.612 394.467C277.46 402.301 268.015 405.802 260.806 407.215C254.173 408.405 246.5 406.95 240.5 403.989C230.779 399.191 229.93 389.612 240.547 386.403C243.405 387.104 245.409 388.248 247.822 389.872L247.564 388.953C246.512 384.166 247.013 362.243 247.779 357.766C248.447 353.861 250.44 351.832 254.323 351.049Z"/>
	<path fill="#EBF4F5" d="M113.166 13.6068C116.666 13.4831 120.381 14.0628 123.882 14.2276C132.077 14.6131 142.064 13.9223 150.625 13.9354L382.189 13.9007C391.144 13.8881 404.355 12.3713 411.375 19.0566C422.482 29.6335 424.165 44.6337 425.398 58.9966L426.951 82.5504L427.114 120.086C426.093 120.397 424.661 120.238 423.583 120.249L402.625 120.722L88.5845 120.847L88.5251 81.6273C88.4997 61.0397 83.991 16.1259 113.166 13.6068Z"/>
	<path fill="#282729" d="M312.6 48.0597C320.264 47.5096 321.545 53.7643 326.692 57.4944C328.559 55.7326 329.808 53.522 331.538 51.6424C342.487 39.7438 358.788 59.3957 344.054 73.1697C332.02 84.0317 306.57 80.122 303.135 62.7944C301.716 55.6397 305.142 49.2463 312.6 48.0597Z"/>
	<path fill="#282729" d="M261.886 35.6155C266.662 35.7487 270.772 36.5659 274.966 38.9677C282.79 43.4483 288.548 54.5681 276.977 56.8548C269.716 58.2897 261.435 43.8218 253.579 56.2181C249.163 63.1852 246.839 79.9389 255.625 85.0015C264.017 89.8369 268.011 81.2028 273.171 79.8939C277.965 78.678 282.432 80.6828 283.532 85.6099C283.479 94.7554 274.872 99.7869 266.716 101.358C257.952 103.046 249.835 101.02 242.497 96.0798C234.049 90.3915 232.242 81.6548 232.193 72.2509C232.092 52.643 240.292 36.7096 261.886 35.6155Z"/>
	<path fill="#282729" d="M208.481 35.0523L209.5 35.0358C218.457 35.4862 217.415 44.0422 216.871 50.0274C216.436 54.8156 215.826 59.6743 215.72 64.4789L215.74 82.625C215.838 85.7491 216.568 89.0205 216.206 92.1379C215.683 96.6379 211.528 100.057 206.989 99.3425L206.625 99.2788C196.142 97.5366 198.39 79.5378 198.072 72.139C194.596 71.3455 182.277 71.7466 179.028 72.2306L179.012 88.9378C178.878 92.5793 177.974 94.5885 175.298 97.0632C172.645 98.8559 163.972 100.29 162.651 96.0497C161.865 93.5261 162.269 89.8862 162.258 87.2307L162.192 70.997C162.094 62.2344 160.21 53.6165 160.24 44.8693C160.263 38.0017 166.476 32.682 172.988 37.2946C178.573 41.2505 177.465 50.5053 178.456 56.4857L192.811 56.5367C194.84 56.5426 197.393 56.8548 199.368 56.4621C199.529 48.755 198.816 37.0709 208.481 35.0523Z"/>
	<path fill="#EBF4F5" d="M59.0139 427.766C58.4434 425.427 58.5808 422.951 58.5785 420.597L58.4812 335.625C58.4288 332.905 57.9758 330.206 57.9446 327.5L57.8844 247.7C58.5264 247.145 61.2909 247.132 62.25 247.004C78.1128 244.888 100.187 232.621 107.661 217.77L107.797 217.488C114.415 226.269 121.856 234.241 131.599 239.625C154.534 252.299 180.24 247.497 198.06 229.091C201.031 226.023 203.929 222.634 205.939 218.846C206.744 219.418 207.531 220.958 208.133 221.816L211.638 226.407C219.702 236.212 231.098 244.548 243.94 246.253C269.132 249.597 287.134 238.669 300.931 218.928C301.743 220.746 302.771 222.396 303.918 224.021C322.135 249.823 361.002 253.148 384.263 232.478C389.133 228.15 393.176 223.08 398.5 219.261C399.419 219.918 400.209 221.138 400.944 222.006L405.487 227.143C418.863 240.978 433.243 246.253 452.636 246.576L454.053 411.811L454.008 454.702C453.989 456.852 454.073 459.199 453.621 461.306L360.584 460.507L362.286 431.36L362.704 417.893C362.855 414.82 363.269 411.856 363.316 408.751L363.438 372.149L364.883 343.059L365.005 326.581C365.004 302.726 363.541 282.233 337.75 275.944C315.996 270.64 292.825 268.84 270.538 268.085L229.712 268.132L197.461 271.171C166.293 275.316 152.04 279.644 148.798 314.043C147.736 325.316 147.629 335.389 147.246 346.625L146.366 399.188L147.455 417.081C147.75 418.664 147.624 420.604 147.72 422.25L148.453 432.308C149.099 441.622 150.316 451.047 150.259 460.381L59.044 460.489L59.0139 427.766ZM362.286 431.36L360.584 460.507L453.621 461.306C454.073 459.199 453.989 456.852 454.008 454.702L454.052 411.811L454.012 414.355C454.009 418.451 454.463 423.012 453.635 427L453.464 426.875C453.016 430.623 453.303 434.476 453.245 438.248L452.853 450.516C452.938 453.92 451.434 453.203 449.875 455.25L449.375 455.75C448.507 455.644 447.672 455.863 446.812 456.062L445.75 456.375C444.701 456.574 443.653 456.627 442.625 456.877L440.978 457.192C439.61 457.465 437.854 457.418 436.562 457.812C435.284 458.203 434.185 458.806 432.877 459.125L432.273 459.297C430.861 459.65 427.571 459.786 427.25 460L426.445 459.797C425.966 459.701 423.874 459.782 423.562 459.938L422.688 459.938C422.148 459.758 422.261 459.692 421.688 459.938L420.75 460C419.913 460.538 418.3 460.335 417.312 460.342L424.591 460.462C425.501 460.45 426.756 460.282 427.625 460.496L418.75 460.451C411.203 460.47 403.708 460.16 396.16 460.521C389.539 460.838 379.268 460.375 372.5 460.103L372.188 460.053C371.049 459.896 365.005 459.939 363.625 460L363.5 459.84C364.573 459.859 365.621 459.889 366.689 459.764L368.688 459.65C367.472 458.83 364.737 459.32 363.25 459L362.5 458.897C362.047 458.474 362.046 458.328 361.812 457.807L361.25 457C361.25 453.899 361.765 442.802 362.246 440.375C362.51 439.042 362.64 432.48 362.286 431.36ZM59.0139 427.766L59.044 460.489L150.259 460.381C150.316 451.047 149.099 441.622 148.453 432.308L147.72 422.25C147.624 420.604 147.75 418.664 147.487 417.081L147.133 417.384C147.433 420.389 148.039 435.816 148.5 436.5C148.5 437.598 149.184 452.151 149.75 453L150 460L59.5 460.3C59.5 459.277 59.2394 457.773 59.8125 456.938L60 457.258C60.4847 458.02 61.2052 458.238 62 458.573L62.2377 458.686C64.4989 459.515 70.7377 459.122 72.875 458.587L73.2969 458.511C74.5744 458.277 79.7974 457.303 82.2187 457.929C84.6436 458.556 88.0202 457.769 90.625 457.75L91 457.5C91.7337 457.483 92.1789 457.422 92.875 457.25L93.2578 457.234C93.822 457.191 94.0191 457.011 94.5 456.75L94.9141 456.547C96.2821 455.81 96.835 453.932 98 453L98.25 452.75C97.851 452.351 97.3619 452.466 96.8125 452.438C97.212 451.81 97.2694 451.846 97.125 451.127L95.875 452.25L94.75 452.625L95.25 452.875L93.5625 453.062L94.1875 453.438C93.8111 453.728 93.4273 453.919 93 454.125L93.5 454.375L92.625 455.461C91.8873 455.554 91.2696 455.66 90.5625 455.895L90.3539 455.823C88.8444 455.432 86.4575 456.262 85.125 455.556L84.942 455.655C84.3737 455.875 83.3035 455.838 82.752 455.59L81.75 455.543C80.756 455.542 78.0191 455.822 77.3125 455.311L76.4766 455.499C76.0858 455.475 75.7599 455.485 75.375 455.53L75.1211 455.761C72.7778 457.415 65.4244 456.845 62.3183 456L61.4863 455.938C61.2254 455.669 60.9948 455.447 60.8009 455.125L60.5752 455C60.4213 453.082 60.1626 450.277 60.8009 448.5L61.1425 446.421C61.2072 446.028 61.1732 446.166 61.4375 445.812L61.3125 445.562C61.8169 444.914 61.9034 444.148 61.6875 443.312L61.25 441.625L61.75 440.125L61.25 438.125L60.75 437.875C60.7328 437.358 60.7954 436.778 60.5625 436.312L61.25 435.375L60.5 435.125C60.5857 434.6 60.5261 434.872 60.6875 434.312L60.5 433.875C60.2037 432.778 60.3066 429.649 60.6225 428.625C60.1549 428.023 59.6973 427.525 59.5613 426.75L59.4375 426.075C58.9446 426.544 59.02 427.108 59.0139 427.766Z"/>
	<path fill="#282729" d="M395.16 398.319C399.022 398.16 403.006 398.971 406.901 399.003C411.565 399.041 416.221 398.322 420.883 398.468C430.965 398.785 434.852 409.571 422.729 414.337C414.856 416.26 391.674 417.876 388.456 408.813C387.139 405.102 389.772 399.706 393.625 398.645L395.16 398.319Z"/>
	<path fill="#282729" d="M421.171 358.989C427.35 358.61 429.851 359.906 433.058 365.686C430.808 374.247 423.428 374.119 415.875 374.099L404.586 374.018C402.171 373.961 399.59 373.666 397.198 373.995L396.95 374.033C396.347 373.747 395.594 373.854 394.912 373.839C387.495 373.666 381.225 369.222 387.732 361.921C391.458 357.74 396.046 359.126 401.061 359.151L421.171 358.989Z"/>
	<path fill="#282729" d="M89.7256 398.306C94.8868 397.783 99.9706 398.905 105.103 399.014C111.692 399.153 121.417 396.028 124.725 404.125C126.771 409.133 121.317 413.298 117.194 414.755C110.165 416.631 99.682 415.963 92.5 415.004C78.1344 413.086 78.1516 401.22 89.7256 398.306Z"/>
	<path fill="#282729" d="M86.9069 358.546C91.0909 358.419 95.2779 359.125 99.5061 359.133L113.283 359.099C115.416 359.058 117.661 358.729 119.779 358.863C127.458 359.35 130.472 371.224 119.688 373.651C113.364 374.554 106.589 374.093 100.219 374.077L91.4161 374.047C89.3605 374.037 87.126 374.123 85.1109 373.698L84.75 373.616C83.8509 373.421 83.2193 373.288 82.518 372.665L82.2757 372.446C77.0493 368.09 79.0371 361.26 85.3774 358.986L86.9069 358.546Z"/>
	<path fill="#282729" d="M90.5932 319.556L113.894 319.676C115.863 319.692 117.964 319.599 119.823 320.34L122.5 321.571C130.852 326.542 125.05 334.829 117.962 336.691L117.58 336.795C113.998 337.715 109.611 337.282 105.926 337.282C99.3326 337.281 84.1855 338.373 81.9447 329.5C80.5826 324.106 86.0279 320.424 90.5932 319.556Z"/>
	<path fill="#282729" d="M413.608 318.375L417.034 318.188C425.109 318.081 433.311 326.415 425.875 333.535C421.727 337.507 415.49 337.268 410.161 337.278L399.875 337.213C392.989 336.789 379.076 332.899 386.38 323.772C391.323 317.594 405.125 319.317 413.608 318.375Z"/>
</svg>
