<?xml version="1.0" encoding="utf-8" ?>
<svg xmlns="http://www.w3.org/2000/svg" xmlns:xlink="http://www.w3.org/1999/xlink" width="1582" height="1582">
	<path fill="#1C1C1C" transform="scale(3.09038 3.09038)" d="M256.233 6.20002L376.886 6.68977C379.25 6.76389 381.588 7.17794 383.941 7.21215L401.231 7.30709L449.791 9.47873C479.008 11.0228 499.31 15.6219 508.212 45.5704C509.102 48.5662 509.945 51.3558 509.965 54.5L509.964 437.563C509.962 442.668 510.235 447.976 509.715 453.055C505.583 493.407 490.918 501.422 451.625 502.948L425.824 503.55C423.436 503.611 421.133 504.17 418.762 504.232L398.447 504.348L340.79 505.825C338.726 505.869 336.699 506.239 334.643 506.299L282.718 508.873C272.88 509.98 265.772 509.874 255.813 509.88L64.4156 503.212C21.7395 499.021 6.92105 488.06 2.40363 443.812C1.85598 438.448 2.04298 432.957 2.04201 427.569L2.03325 67.8241C2.03844 60.7347 2.13039 56.2485 3.89194 49.3773C11.5272 19.5944 35.5528 6.56658 64.6672 7.176L130.045 7.11083C132.165 6.99913 134.208 6.67404 136.344 6.66044L256.233 6.20002ZM187.021 89.2883C183.186 89.8276 179.301 89.7952 175.437 89.8217L115.349 90.7387C107.825 91.2185 104.194 92.0184 97.6374 95.9969L97.4871 95.7432C92.9447 88.1903 82.8489 90.3775 75.3974 90.3705L48.9076 90.2507C45.2673 90.2567 40.7275 90.8885 37.25 89.9967C31.9846 88.6463 20.2391 93.3742 19.2265 99.1246C18.4905 103.304 18.8647 108.054 18.8608 112.298L18.889 411.171C18.888 431.974 17.8616 455.945 30.731 473.625C43.8419 491.637 60.0458 491.204 79.8804 491.882L104.266 492.571C106.819 492.613 109.286 493.111 111.83 493.195L167.146 494.789L214.386 495.8C216.655 495.863 218.897 496.37 221.187 496.437L304.625 496.452C306.957 496.384 309.29 495.945 311.625 495.858L327.337 495.714C329.138 495.669 330.909 495.336 332.708 495.266L379.375 494.695L442.909 493.296C459.523 492.919 475.957 493.719 486.571 478.113C495.376 465.167 493.576 436.672 493.567 421.69L493.6 128.669C493.619 126.138 494.011 123.662 494.081 121.133L494.124 103.86C494.116 101.041 494.366 97.8876 493.926 95.1234L478.34 90.5403C472.64 91.8595 467.081 92.3839 461.244 91.9349L432.027 91.0061C426.349 91.3191 422.009 93.9098 416.724 95.4769C413.76 96.3557 412.427 94.738 409.663 93.7341C398.579 89.7074 387.38 91.1565 376.001 90.2654L315.885 89.9175C317.72 90.4868 321.883 92.2412 323.597 93.0073C358.916 108.8 383.202 135.124 392.748 172.5L396.38 189.125C400.82 223.173 396.54 262.743 379.285 293.157L375.395 299.947C374.558 301.487 372.908 303.702 374.125 305.472L374.403 305.345C375.216 304.999 376.196 304.592 377.076 304.497C375.09 306.9 373.811 309.625 371.944 312.105L357.291 332.78L340.8 354.553L301.741 398.395C300.011 400.115 298.109 402.605 296.027 403.857C304.166 404.439 312.46 404.127 320.622 404.143L374.201 404.191C379.417 404.031 388.112 402.649 387.254 411.943C386.935 415.394 383.734 417.68 380.75 418.783L380.459 418.9C375.585 420.801 362.031 418.859 356.625 418.632C349.757 418.343 342.443 417.827 335.648 417.749L325.356 417.69C319.345 417.651 313.373 416.857 307.375 416.638C301.48 416.423 295.224 416.94 289.385 416.089L284.75 415.72L273.4 426.763C269.152 430.991 262.742 440.177 255.712 437.828L255.42 437.733C250.716 436.144 246.174 430.774 242.777 427.26L234.255 418.63C232.323 416.722 232.11 415.789 229.431 415.951L173.417 420.044L140.25 420.194C133.802 420.197 127.236 421.249 124.997 413.375L124.901 413.085C123.303 408.01 131.375 400.315 138.914 404.703C141.469 406.19 144.551 405.334 147.326 405.056L205.75 404.115L219.626 403.195L189.538 369.998L165.24 340.102C162.987 337.2 160.403 334.601 158.274 331.605C148.229 317.467 136.558 297.679 129.607 282.053C116.008 251.478 109.824 212.935 114.875 180.118C120.564 143.158 145.902 108.68 179.941 92.8505C182.872 91.4876 186.08 90.5066 188.942 89.0647C188.287 89.0541 187.672 89.0329 187.021 89.2883ZM141.575 266.911L143.085 270.809L146.765 279.33L149.33 284.492C153.753 293.522 159.799 304.624 165.883 312.685L171.772 321.232C173.737 324.072 175.661 327.147 178.098 329.597L178.943 330.753L222.239 381.569L234.098 394.455L258.08 419.777C260.541 416.511 263.427 413.682 266.296 410.786L304.804 371.084C329.845 345.114 360.655 303.965 371.989 270.97C378.194 252.908 381.095 237.123 381.116 217.859C381.16 177.065 368.962 137.895 332.397 115.011C313.491 103.179 288.026 93.288 265.547 93.2289C262.717 93.2214 259.588 92.9789 256.828 93.6353L253.962 94.3153L253.317 94.1424C251.397 93.4115 249.153 94.4434 247.211 93.375L247.286 92.2858L247.875 91.5702C240.498 90.2228 229.735 89.3408 222.153 90.4658C216.862 91.2509 211.94 93.3772 206.924 95.1263L191.109 100.784C180.745 105.078 171.026 111.114 161.826 117.491C146.831 127.886 142.872 134.037 138.121 150.554C132.882 168.773 130.609 183.843 130.625 202.525L130.713 213.512C131.627 231.446 135.354 250.138 141.575 266.911ZM244.669 15.4625L241.587 15.7174C237.253 15.2936 232.564 15.7459 228.183 15.7485L184.336 16.6755L106.875 16.7558C105.025 16.7982 103.19 17.1367 101.331 17.1995L80.3393 17.9296C74.395 18.3167 69.0537 19.2613 63.2035 20.4182C41.5831 24.6938 23.2391 29.5746 20.9632 54.7404L19.576 76.8901C26.6674 75.1315 32.4821 75.9419 39.4458 76.3834L103.153 76.4936L122.362 77.649L170.072 77.7438C173.548 77.7607 176.887 78.4209 180.361 78.4495L241.997 78.5377C244.413 78.5602 246.818 78.9171 249.237 78.9947L292.736 80.671C297.94 80.7113 303.041 80.0241 308.221 79.7253L333.601 78.5288L331.067 78.3829C330.892 77.0008 344.743 66.0756 347.791 63.4276C357.897 54.649 367.569 48.4134 379.151 41.7691L395.436 32.2108C400.124 29.4781 410.748 24.9947 413.152 19.9439L413.665 18.9098L244.669 15.4625Z"/>
	<path fill="#B5C6E0" transform="scale(3.09038 3.09038)" d="M413.665 18.9098C417.046 18.8717 421.135 19.0357 424.511 19.3904C426.435 19.484 428.446 19.6302 430.379 19.6705L445.494 20.6874C455.051 21.6312 465.833 22.0658 474.43 26.8534L479.514 29.9851C484.811 34.0722 487.405 38.9627 489.37 45.2261L490.713 50.0217L492.869 64.546C493.622 68.8717 493.55 73.5346 493.594 77.9215L493.327 77.8089C490.992 76.8608 487.427 76.6715 484.901 76.5398L396.655 76.5516L383.721 77.2978L336.857 78.4997L333.601 78.5288L331.067 78.3829C330.892 77.0008 344.743 66.0756 347.791 63.4276C357.897 54.649 367.569 48.4134 379.151 41.7691L395.436 32.2108C400.124 29.4781 410.748 24.9947 413.152 19.9439L413.665 18.9098Z"/>
	<path fill="#EBF4F5" transform="scale(3.09038 3.09038)" d="M383.721 77.2978L382.623 76.875C391.766 70.0912 401.729 64.6391 411.521 58.8883C415.347 56.6407 422.914 50.4371 427.5 50.5736L427.732 51.125C426.345 55.7697 399.102 67.9465 396.113 74.9518L396.655 76.7431L383.721 77.2978Z"/>
	<path fill="white" transform="scale(3.09038 3.09038)" d="M474.43 26.8534L479.514 29.9851C476.667 31.8357 472.675 35.5695 469.261 37.9484L450.065 49.9798C446.692 52.0835 443.556 54.5472 440.14 56.578C440.385 52.2331 441.439 50.9631 444.941 48.5228L467.447 32.875C471.203 30.1417 471.517 29.4133 474.43 26.8534Z"/>
	<defs>
		<linearGradient id="gradient_0" gradientUnits="userSpaceOnUse" x1="474.30301" y1="74.538002" x2="465.811" y2="56.653599">
			<stop offset="0" stop-color="#A6C2E0"/>
			<stop offset="1" stop-color="white"/>
		</linearGradient>
	</defs>
	<path fill="url(#gradient_0)" transform="scale(3.09038 3.09038)" d="M490.713 50.0217C485.711 51.7689 481.671 54.2132 477.19 56.9337L463.625 65.5571C461.199 67.1297 458.886 68.205 456.718 70.2177L456.765 70.4437C459.465 68.3731 462.13 66.806 465.07 65.1187C464.921 65.8783 464.742 66.8435 465.015 67.5835L465.306 68.3135C466.315 70.0034 467.156 72.0239 467.709 73.9277L468.4 75.1577C469.726 75.2731 470.841 75.4977 472.111 75.8782L445.651 76.4794C446.629 75.75 446.782 75.0791 447.485 74.1943C450.24 70.7309 454.195 68.7606 457.697 66.1936L482.265 49.5714C484.64 48.131 486.862 46.4343 489.37 45.2261L490.713 50.0217Z"/>
	<defs>
		<linearGradient id="gradient_1" gradientUnits="userSpaceOnUse" x1="372.08701" y1="44.545399" x2="377.60901" y2="53.694099">
			<stop offset="0" stop-color="#FFFFF6"/>
			<stop offset="1" stop-color="#F0F3FB"/>
		</linearGradient>
	</defs>
	<path fill="url(#gradient_1)" transform="scale(3.09038 3.09038)" d="M413.665 18.9098C417.046 18.8717 421.135 19.0357 424.511 19.3904C423.199 20.5141 421.702 21.2884 420.282 22.156L400.29 34.5984L366.25 53.7689C361.303 56.7989 340.543 72.1926 339.036 78.1577C338.298 78.2291 337.574 78.2671 336.857 78.4626L333.601 78.5288L331.067 78.3829C330.892 77.0008 344.743 66.0756 347.791 63.4276C357.897 54.649 367.569 48.4134 379.151 41.7691L395.436 32.2108C400.124 29.4781 410.748 24.9947 413.152 19.9439L413.665 18.9098Z"/>
	<path fill="#B5C6E0" transform="scale(3.09038 3.09038)" d="M244.669 15.4625L413.665 18.9098L413.152 19.9439C410.748 24.9947 400.124 29.4781 395.436 32.2108L379.151 41.7691C367.569 48.4134 357.897 54.649 347.791 63.4276C344.743 66.0756 330.892 77.0008 331.067 78.3829L333.601 78.5288L308.221 79.7253C303.041 80.0241 297.94 80.7113 292.736 80.671L249.237 78.9947C246.818 78.9171 244.413 78.5602 241.997 78.5377L180.361 78.4495C176.887 78.4209 173.548 77.7607 170.072 77.7438L122.362 77.649L103.153 76.4936L39.4458 76.3834C32.4821 75.9419 26.6674 75.1315 19.576 76.8901L20.9632 54.7404C23.2391 29.5746 41.5831 24.6938 63.2035 20.4182C69.0537 19.2613 74.395 18.3167 80.3393 17.9296L101.331 17.1995C103.19 17.1367 105.025 16.7982 106.875 16.7558L184.336 16.6755L228.183 15.7485C232.564 15.7459 237.253 15.2936 241.587 15.7174L244.669 15.4625ZM263.715 39.1375L255.253 43.5661C250.191 46.0566 243.412 48.2904 237.738 48.8637L237.875 49.4706C238.153 49.6374 238.345 49.6963 238.671 49.7133C251.668 50.3925 265.649 41.4681 276.572 35.2269L282 32.2149C283.049 31.6215 284.263 31.0986 285.177 30.3125L275.576 34.6891C272.227 36.3305 267.816 38.2537 264.155 39.0484L263.715 39.1375Z"/>
	<path fill="#EBF4F5" transform="scale(3.09038 3.09038)" d="M336.722 54.125C337.148 54.0729 336.905 54.0845 337.451 54.125L335.243 55.8174C331.238 58.6375 308.883 71.746 303.877 70.875L312.25 67.875L311.972 67.0631L304.407 70.3879C304.093 70.5441 304.009 70.4784 303.671 70.4344C304.44 69.8757 305.552 69.5776 306.443 69.2054L310.894 67.1424C319.462 62.8087 327.894 57.8914 336.722 54.125Z"/>
	<path fill="#EBF4F5" transform="scale(3.09038 3.09038)" d="M241.587 15.476L244.669 15.4625C246.496 15.7515 248.519 15.5405 250.381 15.5965C248.302 18.5373 245.746 21.7499 242.464 23.3253C241.068 22.8032 240.067 22.1742 238.921 21.2242L241.587 15.476Z"/>
	<path fill="#1C1C1C" transform="scale(3.09038 3.09038)" d="M237.738 48.8637C237.28 48.7893 236.407 49.0287 235.927 49.0912L231.724 49.5526C225.895 50.0668 217.626 50.8023 211.843 49.612L211.5 49.5391C209.917 49.2475 208.594 48.6895 207.124 48.0538C210.706 47.0401 214.479 46.7885 218.171 46.4169C228.289 45.3988 238.184 44.5476 248 41.7442C251.195 40.8318 260.782 37.5783 263.715 39.1375L255.253 43.5661C250.191 46.0566 243.412 48.2904 237.738 48.8637Z"/>
	<path fill="#F847D9" transform="scale(3.09038 3.09038)" d="M46.8434 51.3313C44.0532 49.0401 42.9692 46.3976 41.7657 43.1211C46.2857 38.8983 50.8356 35.5533 56.9871 34.1552C61.7953 33.0624 65.3485 38.0493 69.0966 40.2046C70.0374 40.7456 77.769 44.2124 78.8617 44.4951L79.2526 44.5788C70.6534 45.0971 53.6826 46.3204 46.8434 51.3313Z"/>
	<path fill="#260D27" transform="scale(3.09038 3.09038)" d="M46.8434 51.3313C53.6826 46.3204 70.6534 45.0971 79.2526 44.5788L80.1134 45.0637C84.4681 47.8772 84.9432 54.24 77.625 54.9712L48.88 56.5639C47.6873 55.1944 47.7123 52.9831 46.8434 51.3313Z"/>
	<path fill="#1C1C1C" transform="scale(3.09038 3.09038)" d="M111.959 42.358L122.268 42.2553C124.158 42.2539 126.522 42.02 128.356 42.5083C136.287 44.6199 138.616 56.7691 124.67 57.4737L115.186 57.3863C111.571 57.3325 106.13 57.3415 103.199 54.94C100.15 52.441 100.924 47.5645 103.41 44.9235C105.724 42.4642 108.842 42.5393 111.959 42.358Z"/>
	<path fill="#1C1C1C" transform="scale(3.09038 3.09038)" d="M171.956 247.034C171.11 245.008 170.39 243.432 171.177 241.238C174.128 233.009 176.752 232.157 184.641 231.342C189.046 213.85 194.272 200.139 211.127 190.125L216.644 187.086L215.743 166.147C215.743 163.268 215.638 160.357 216.029 157.5L216.078 157.103C217.549 145.921 231.386 143.032 240.833 144.385C252.286 146.025 264.088 155.041 270.77 164.193C272.586 166.681 274.246 169.498 276.315 171.766L280.046 166.152C292.435 146.947 302.87 163.755 292.425 176.639L289.8 179.749C315.483 187.593 331.142 205.909 331.526 232.995C333.851 232.591 336.52 232.272 338.75 233.232L339.091 233.376C341.764 234.544 343.361 236.718 344.376 239.39C346.759 245.665 340.264 249.851 337.445 254.526C336.179 256.627 335.742 259.35 334.6 261.599C332.926 264.896 327.056 273.606 324.182 276.431C311.52 288.875 302.879 283.143 288.371 285.682C287.203 285.886 286.076 285.688 284.75 285.997C279.654 287.185 269.767 291.077 269.437 282.492L255.565 282.041C249.843 290.027 236.811 286.085 228.334 287.179C218.301 287.2 208.035 288.089 198.387 284.884C189.918 280.832 186.201 271.604 181.624 263.994L171.956 247.034ZM269.076 194.295C265.161 194.301 260.106 193.828 256.322 194.919C240.788 196.682 220.047 200.507 210.062 212.968C205.401 218.784 201.415 228.725 201.8 236.416L293.277 236.532C300.301 236.411 307.825 236.261 314.516 233.978C314.575 229.084 313.462 224.63 311.993 220.003L311.352 218.089C310.964 217.063 310.549 216.152 309.972 215.218L307.935 212.18L306.784 210.089C301.68 202.098 292.866 197.211 283.769 195.317C278.797 194.482 274.14 194.314 269.076 194.295ZM203.148 256.233C200.737 256.45 198.746 256.667 196.457 257.51L198.826 261.48C205.032 271.702 204.27 273.03 216.361 272.999L236.943 272.881C242.42 272.823 248.64 271.7 253.525 274.779C255.217 276.954 256.011 278.789 255.635 281.567L255.565 282.041L269.437 282.492C269.853 280.322 270.702 278.472 271.667 276.506L272.875 274.989C275.044 272.698 278.599 272.977 281.47 272.95L288.275 272.913L305.78 273.216C310.614 270.411 314.423 262.852 317.299 258.274C315.33 257.185 302.402 256.836 298.589 256.657L278.5 255.833C274.316 255.696 270.152 255.816 265.972 255.484C254.026 254.535 244.238 252.669 232 253.64L203.148 256.233ZM196.457 257.51C198.746 256.667 200.737 256.45 203.148 256.254L232 253.64C244.238 252.669 254.026 254.535 265.972 255.484C270.152 255.816 274.316 255.696 278.5 255.833L298.589 256.758C302.402 256.836 315.33 257.185 317.299 258.274C319.36 255.102 321.381 251.317 324.164 248.728L324.347 248.561C319.585 248.748 314.932 249.294 310.162 249.327L247.82 248.583C238.075 248.442 230.461 249.492 221.272 249.774L190.663 249.431C191.784 250.292 191.905 250.875 192.667 251.998L196.457 257.51ZM232.555 159.875C231.457 161.061 232.149 162.92 232.178 164.442L232.931 182.984C239.515 180.285 250.109 179.023 257.054 178.43L261.691 177.933C254.136 169.6 244.692 158.48 232.555 159.875Z"/>
	<path fill="#1C1C1C" transform="scale(3.09038 3.09038)" d="M210.877 442.526C214.743 442.306 216.983 444.337 220.165 446.138C225.324 449.059 244.993 455.493 251.389 455.511C263.954 455.545 280.967 451.641 292.059 446.497C294.767 445.241 299.176 441.985 302.328 442.82L302.75 442.974C305.223 443.839 307.637 445.555 308.911 447.898L309.073 448.207C311.259 452.309 309.076 455.657 305.631 458.086L304.725 458.704L302.673 459.886C291.232 466.187 266.684 469.342 254.125 469.217C241.377 469.09 208.364 465.853 203.132 455.097C200.703 450.103 206.924 444.294 210.877 442.526Z"/>
</svg>
