<?xml version="1.0" encoding="utf-8" ?>
<svg xmlns="http://www.w3.org/2000/svg" xmlns:xlink="http://www.w3.org/1999/xlink" width="512" height="512">
	<path fill="#EBF4F5" d="M450.24 433.04C460.796 432.601 476.879 431.206 484.237 440.352C487.426 444.317 491.999 457.032 484.209 458.807C479.176 460.06 473.395 459.215 468.207 459.726L469.375 459.392C469.828 459.2 469.788 459.135 470.344 459.122L471.125 458.877C472.42 458.993 473.823 458.731 475.07 458.935L475.375 459C474.952 457.51 475.794 455.701 475.234 454.498L475.039 454.168C473.352 450.805 469.199 448.191 465.875 446.662L466.5 446.625C469.338 447.177 468.59 447.49 469.118 443.58C468.013 442.656 466.346 442.147 465.477 441.034L465.195 440.656C460.208 438.147 454.934 437.683 449.468 437.094L434.188 435.535C434.82 435.437 435.484 435.295 436.124 435.305L438.875 435.377C439.402 435.725 445.528 436.127 446.375 436.127L447.127 434.5C447.448 434.061 447.375 434.123 447.376 433.562L446.75 433.538C445.139 433.654 443.392 434.124 441.799 433.885L441.939 433.351C444.673 433.649 447.459 432.929 450.24 433.04Z"/>
	<path fill="#A3F49C" d="M465.195 440.656C471.799 443.836 475.958 450.404 482.493 454.158C482.562 455.318 483.48 456.662 484.346 457.431L484.571 456.749C483.916 456.545 483.581 455.931 483.25 455.375L483.295 454.985C483.332 454.494 483.268 454.218 483.123 453.76L483.517 454.203C485.088 454.045 485.724 453.264 487.017 454.964L487.18 455.891C486.477 457.436 484.978 457.559 484.209 458.807C479.176 460.06 473.395 459.215 468.207 459.726L469.375 459.392C469.828 459.2 469.788 459.135 470.344 459.122L471.125 458.877C472.42 458.993 473.823 458.731 475.07 458.935L475.375 459C474.952 457.51 475.794 455.701 475.234 454.498L475.039 454.168C473.352 450.805 469.199 448.191 465.875 446.662L466.5 446.625C469.338 447.177 468.59 447.49 469.118 443.58C468.013 442.656 466.346 442.147 465.477 441.034L465.195 440.656Z"/>
	<path fill="#140F1C" d="M419.862 334.339C427.715 334.705 430.037 340.523 433.376 346.796C435.998 351.724 438.568 356.775 441.615 361.458C444.25 365.507 452.152 364.451 449.568 372.104C448.168 376.249 443.235 377.334 439.74 379.058L432.353 383.623C425.421 374.172 403.519 337.395 419.862 334.339Z"/>
	<path fill="#140F1C" d="M163.04 206.636C165.753 206.379 168.637 206.594 171.366 206.623L226.125 209.978C228.63 210.181 231.494 210.03 233.879 210.827L234.25 210.957C240.304 213.044 241.762 220.893 236.05 224.203C232.948 226 228.7 224.97 225.304 224.659L173.625 220.518C167.262 220.351 168.479 220.827 164.156 224.887L163.9 225.125C164.285 225.685 164.246 225.809 164.254 226.5L163.875 226.777C162.198 224.848 162.587 225.329 160.436 223.655C152.306 217.327 153.135 207.709 163.04 206.636Z"/>
	<path fill="#140F1C" d="M376.412 470.122L495.04 470.072C501.21 469.995 505.353 468.491 509.379 475.68C511.525 479.513 506.49 486.555 502.125 486.708L418.25 486.514C416.185 486.466 414.181 485.964 412.107 485.911L395.83 485.833C393.476 485.793 391.152 485.378 388.783 485.326L357.62 484.833C355.419 484.777 353.266 484.279 351.027 484.244L215.583 484.231C213.21 484.273 210.88 484.756 208.5 484.825L130.75 485.893C128.367 485.997 126.054 486.536 123.618 486.571L11.4322 486.704C1.99728 486.85 -1.87929 476.788 6.5 471.45L6.81346 471.234C7.73084 470.617 8.54917 470.582 9.625 470.574L115.976 470.618C118.462 470.64 120.941 471.118 123.445 471.196L247.505 471.237C250.788 471.218 254.008 470.669 257.305 470.636L316.703 470.577L376.412 470.122Z"/>
	<path fill="#9EF065" d="M59.8897 437.523L349.958 432.849C351.12 434.069 353.967 434.17 355.698 434.293L361.243 434.52L429 435.117C430.469 435.16 432.901 435.94 434.188 435.1L449.468 437.094C454.934 437.683 460.208 438.147 465.195 440.656L465.477 441.034C466.346 442.147 468.013 442.656 469.118 443.58C468.59 447.49 469.338 447.177 466.5 446.625L465.875 446.662C469.199 448.191 473.352 450.805 475.039 454.168L475.234 454.498C475.794 455.701 474.952 457.51 475.375 459L475.07 458.935C473.823 458.731 472.42 458.993 471.125 458.877L470.344 459.122C469.788 459.135 469.828 459.2 469.375 459.392L468.207 459.737L454.875 460.379L395.257 460.879C393.519 460.95 391.816 461.314 390.072 461.348L355.847 461.9C354.23 461.989 352.615 462.272 351 462.32L317.828 463.311L259 463.272L224.25 461.243L180.787 454.687L94.3147 444.634L71.0455 442.544C66.6824 442.228 62.4194 442.313 58.0547 441.75L46.0837 440.715C39.4296 440.137 33.2589 439.66 26.7235 438.038C31.4074 437.413 36.1164 437.546 40.8289 437.538L59.8897 437.523Z"/>
	<path fill="#140F1C" d="M49.5969 420.505L70.3983 420.244C74.8325 420.232 79.477 420.507 83.8645 419.821C82.2474 418.565 80.3511 417.694 78.5974 416.628C71.0478 412.039 66.3416 404.479 62.5144 396.75L60.1593 392.114C59.0251 390.106 57.6625 390.882 55.4581 390.696C51.778 390.387 47.981 390.078 44.4375 388.962C13.0851 379.084 27.2431 318.141 48.375 311.287L48.6837 311.174C49.764 310.814 51.208 311.455 52.2559 311.788C53.0272 302.003 62.2404 291.945 71.875 296.194L72.2184 296C72.0587 295.02 71.8169 294.526 72.4034 293.658L95.6192 265.967C101.684 267.167 100.874 267.388 102.668 261.236C107.944 243.144 133.218 238.308 149.264 237.207L196.658 236.564C204.825 236.689 213.164 237.825 221.25 238.954C252.851 243.363 271.922 252.335 296.743 272.875L311.711 285.81C316.416 289.981 316.79 291.489 322.863 293.355L330.037 295.642C340.984 299.111 363.313 305.875 370.018 315.75L370.258 316.095C376.004 324.468 376.702 336.363 378.253 346.125L381.721 371.625C381.864 373.058 381.793 374.372 382.75 375.541L383.25 375.506C385.782 371.74 385.087 362.514 385.358 358.101L386.661 326.966C386.722 324.321 387.214 321.745 387.242 319.072L388.505 282.473C388.785 277.339 388.848 272.165 389.605 267.069C385.187 264.537 381.329 260.843 377.406 257.613L348.612 231.925C321.211 206.375 302.016 186.525 305.091 147.5C307.456 117.478 320.814 80.7304 357.659 85.3652L360.515 85.8081C365.442 66.0789 377.723 47.4521 395.333 36.8563C428.296 17.023 485.246 47.4416 501.968 75.8074C511.022 91.1648 509.332 111.349 501.681 126.958L498.326 133.378C497.481 134.862 496.878 134.992 497.546 136.559C501.282 145.324 505.607 149.927 508.125 160.71C511.728 176.143 510.029 194.514 501.199 207.956C490.821 223.755 473.73 232.524 457.725 241.458L411.459 265.587C405.818 268.218 405.655 265.844 405.573 271.995C405.515 276.29 405.653 280.683 405.295 284.956L404.072 327.5C404.036 328.834 403.77 330.153 403.71 331.489L402.275 362.756C400.82 380.527 397.185 396.89 391.117 413.57L446.325 410.238C440.671 403.981 431.498 390.529 441.125 383.546C447.824 378.687 461.408 400.301 463.798 404.508L466.012 408.514C467.144 410.554 468.294 409.78 470.539 409.779L486.399 409.753C490.019 409.748 495.138 409.267 498.546 410.42C507.46 413.436 506.582 423.571 497.951 426.937C495.832 427.764 493.216 427.495 490.97 427.498L445.029 427.549C442.635 427.606 440.202 428.132 437.777 428.223L390.125 430.613C384.78 431.002 379.081 430.773 373.812 431.646C373.283 432.466 373.086 432.866 372.062 433.07L371.465 433.191C370.453 433.394 369.967 433.013 369.625 434.174C367.024 434.046 363.788 433.993 361.243 434.419L355.698 434.293C353.967 434.17 351.12 434.069 349.958 432.724L59.8897 437.525L40.8289 437.538C36.1164 437.546 31.4074 437.413 26.7235 438.019C21.6659 438.043 16.1021 438.517 11.1146 437.876L10.75 437.825C10.0953 437.74 9.47957 437.688 8.88204 437.377L7.79972 436.8C5.17477 435.338 3.45046 432.647 2.68357 429.811C4.37855 422.666 9.22766 422.538 15.7958 422.525L29.3927 422.45C32.4884 422.378 35.4875 421.892 38.5416 421.427L49.5969 420.505ZM398.633 63.7067L398.71 62.5625L397.5 63.25C396.867 63.6305 395.85 64.3205 395.148 64.4609L394 65.25L394.72 63.8335C395.83 62.5306 398.418 59.6293 398.148 58.0837C397.065 58.0485 396.885 58.0495 396.004 57.439C387.124 66.1962 379.844 77.4301 376.671 89.603C375.366 94.6081 376.092 102.527 370.686 105.219L370.568 106.218C369.411 107.76 371.474 108.724 371.947 109.939C369.882 110.381 367.619 110.696 365.621 111.362C347.353 116.32 329.93 134.466 326.393 153.022C325.918 155.511 325.691 158.291 324.812 160.664C324.796 160.113 324.778 159.894 325 159.375L324.505 158.859C323.74 158.815 323.037 158.47 322.341 158.177C322.289 158.969 322.317 159.829 322.011 160.571C321.701 173.096 328.553 184.039 336.052 193.505L347.123 206.287L392.277 246.786L393.446 228.424C393.668 224.213 393.032 222.927 390.816 219.263L364.667 174.283C362.453 170.412 359.972 166.302 358.722 162L358.598 161.585C355.831 151.771 367.316 146.787 373.623 155.724C375.05 157.745 376.215 159.964 377.464 162.099L396.944 196.291C396.659 192.549 396.953 188.859 397.162 185.125L402.918 126.226C403.413 121.03 403.575 115.659 404.521 110.526C406.339 100.661 420.968 100.389 420.76 112.56L411.715 209.426C423.127 202.212 431.589 190.048 440.25 179.854C442.026 178.187 443.919 177.01 446.086 175.918C451.674 174.257 457.759 175.451 459.269 182.013C460.134 185.769 450.427 196.011 448.132 198.685C438.941 209.391 424.771 224.178 410.453 227.89L408.817 247.831C410.536 247.343 412.228 246.296 413.811 245.453L421.951 241.095C434.066 234.682 446.601 228.866 457.854 220.97L457.803 220C458.585 210.573 473.102 183.431 477.473 173.675L481.288 164.488C482.399 161.728 483.031 159.353 485.357 157.372C486.643 156.718 487.695 156.074 488.793 155.13C487.51 152.173 485.264 149.804 483.101 147.474C477.238 140.67 475.19 132.111 477.875 123.377L478.429 123.148L477.998 122.625C478.73 118.578 480.541 115.09 481.618 111.165C489.593 82.1184 469.419 65.128 443.836 58.5582C427.2 56.3881 414.646 56.014 398.633 63.7067ZM133.053 379.403C132.021 396.592 121.389 412.361 105.005 418.414C103.734 418.883 103.404 418.928 103.251 420.422C104.684 421.328 106.311 420.827 107.943 420.821L148.625 420.747L183.689 419.712L255.114 418.135C256.876 418.045 258.608 417.674 260.375 417.611L303.496 416.616C305.59 416.599 308.684 417.157 310.553 416.06C310.654 413.797 309.286 413.464 307.448 412.695C297.335 408.459 290.065 401.338 284.349 391.966C283.409 390.425 283.48 388.449 281.235 388.42L240.165 389.329L193.631 389.326C191.869 389.284 190.133 388.995 188.375 388.927L162.405 387.962C157.13 387.767 140.156 389.183 136.254 385.625C135.654 383.616 135.93 381.257 136.423 379.245L136.169 378.529C133.306 376.931 133.562 377.675 133.053 379.403ZM183.321 252.894C171.677 253.609 171.971 260.487 171.879 270.701C171.797 279.707 169.493 294.499 181.375 296.75L181.866 296.845C187.875 297.937 194.213 297.603 200.292 297.599L272.229 295.438C274.488 295.362 276.838 295.011 279.102 294.945L294.204 294.659L292.693 293.244C290.815 291.301 288.568 289.56 286.531 287.772L269.866 274.499C252.088 261.487 240.87 258.473 219.375 255.226C208.467 253.578 194.364 252.164 183.321 252.894ZM142.793 255.151C131.382 256.054 118.89 260.815 111.248 269.667C107.998 273.43 111.127 275.172 110.873 276.125C107.31 277.811 105.354 296.873 101.026 293.149L100.603 293.875C101.147 294.074 101.445 294.1 102 294.141L102.641 294.247C105.571 294.746 108.517 294.786 111.484 294.817L126.602 294.83C133.522 294.815 147.778 296.749 151.504 289.25L151.695 288.873C154.966 282.25 152.538 274.569 154.251 267.75C156.916 257.149 154.644 253.918 142.793 255.151ZM103.708 311.691L103.625 312.134C110.066 316.298 129.508 317.006 137.047 317.511L177.018 318.672C178.736 318.733 180.418 319.034 182.125 319.2L193.201 320.054C204.44 320.69 214.238 319.657 225.026 319.541L253.125 319.428C255.539 319.323 257.959 318.836 260.392 318.724L303.697 318.711C319.433 319.528 346.835 324.701 358.955 336.089C360.05 337.118 361.915 339.71 363.239 340.119L363.407 339.565C362.598 334.905 361.251 328.063 357.78 324.567C350.33 317.062 316.235 312.328 303.509 311.854L290.543 311.846C288.523 311.939 286.519 312.321 284.5 312.361L225.509 314.015C224.084 314.096 222.681 314.374 221.25 314.424L179.375 314.482C173.063 314.448 167.046 312.736 160.766 312.441L151.387 312.343C149.121 312.265 146.902 311.832 144.648 311.771L103.708 311.691ZM396.004 57.439C396.885 58.0495 397.065 58.0485 398.148 58.0837C398.418 59.6293 395.83 62.5306 394.72 63.8335L394 65.25L395.148 64.4609C395.85 64.3205 396.867 63.6305 397.5 63.25L398.71 62.5625L398.633 63.7067C414.646 56.014 427.2 56.3881 443.836 58.5582C469.419 65.128 489.593 82.1184 481.618 111.165C480.541 115.09 478.73 118.578 477.998 122.625L478.429 123.148L487.963 121.603C495.547 94.057 489.9 80.9784 467.365 64.5907C460.811 59.8249 453.418 55.2429 445.723 52.5829C443.203 51.3388 440.431 50.5088 437.75 49.6824C420.509 44.3691 409.626 45.9117 396.004 57.439ZM354.791 380.906C353.444 391.455 349.191 400.659 340.594 407.312C338.687 408.787 329.254 412.803 335.092 415.059L372.497 414.854C373.295 413.397 373.561 411.689 374.137 410.125L380.321 393.167C374.692 394.06 368.386 394.473 362.739 393.552C354.14 392.147 353.258 389.189 356.968 382.313L356.789 382.128C356.071 381.517 355.731 381.129 354.791 380.906ZM75.7846 380.826C76.7737 380.638 78.0867 376.499 82.7373 374.686C87.8654 373.145 94.1833 372.769 99.4874 373.724C100.353 373.88 102.812 374.874 103.469 374.77C108.103 376.328 111.896 377.988 114.19 382.571L115.033 383.951C118.04 373.095 112.53 362.714 101.385 359.733L101.083 359.654C91.1238 356.91 76.9795 364.389 75.6956 375.322C75.4875 377.094 75.7059 379.041 75.7846 380.826ZM301.274 364.328C310.495 363.937 330.62 370.212 336.788 376.058L337.591 376.518L337.419 375.415C334.466 357.437 313.067 347.01 301.274 364.328ZM42.724 352.996C44.0344 351.113 47.742 343.893 48.875 341.584C52.037 335.14 53.6444 327.578 58.8228 322.321C59.4126 321.723 60.2802 321.284 60.5078 320.444L60.1541 320.477C58.783 320.577 58.2314 320.325 56.9697 319.774L56.2542 319.506C51.3333 322.947 49.7325 324.536 47.5878 330.537L44.8267 339.567C43.7001 343.886 42.7582 348.531 42.724 352.996Z"/>
	<defs>
		<linearGradient id="gradient_0" gradientUnits="userSpaceOnUse" x1="362.11301" y1="429.85699" x2="364.11099" y2="435.80899">
			<stop offset="0" stop-color="#FBFFE8"/>
			<stop offset="1" stop-color="white"/>
		</linearGradient>
	</defs>
	<path fill="url(#gradient_0)" d="M349.958 432.724L373.812 431.646C373.283 432.466 373.086 432.866 372.062 433.07L371.465 433.191C370.453 433.394 369.967 433.013 369.625 434.174C367.024 434.046 363.788 433.993 361.243 434.419L355.698 434.293C353.967 434.17 351.12 434.069 349.958 432.724Z"/>
	<path fill="#EBF4F5" d="M322.014 160.571L322.414 145.407C323.961 132.903 328.401 113.359 338.842 105.422C343.247 102.074 347.857 102.848 353.017 103.556L365.043 105.401C366.864 105.554 368.912 105.708 370.686 105.219L370.568 106.218C369.411 107.76 371.474 108.724 371.947 109.939C369.882 110.381 367.619 110.696 365.621 111.362C347.353 116.32 329.93 134.466 326.393 153.022C325.918 155.511 325.691 158.291 324.812 160.664C324.796 160.113 324.778 159.894 325 159.375L324.505 158.859C323.74 158.815 323.037 158.47 322.341 158.177C322.289 158.969 322.317 159.829 322.014 160.571Z"/>
	<path fill="#E9C588" d="M82.7373 374.686C87.8654 373.145 94.1833 372.769 99.4874 373.724C100.353 373.88 102.812 374.874 103.469 374.77C108.103 376.328 111.896 377.988 114.19 382.571L115.033 383.951C109.173 408.584 79.2095 408.772 75.7846 380.826C76.7737 380.638 78.0867 376.499 82.7373 374.686Z"/>
	<path fill="#140F1C" d="M82.7373 374.686C87.8654 373.145 94.1833 372.769 99.4874 373.724C100.353 373.88 102.812 374.874 103.469 374.77L103.51 375.018C104.091 378.233 105.961 379.734 104.472 383.819C104.962 393.149 95.0058 397.605 88.871 391.94L87.1544 390.217C83.4691 388.176 81.5754 383.087 81.1787 379.125C80.9677 377.017 81.7578 376.585 82.6214 374.914L82.7373 374.686Z"/>
	<defs>
		<linearGradient id="gradient_1" gradientUnits="userSpaceOnUse" x1="86.759598" y1="372.517" x2="98.074303" y2="386.49799">
			<stop offset="0" stop-color="#B37A4B"/>
			<stop offset="1" stop-color="#E1A768"/>
		</linearGradient>
	</defs>
	<path fill="url(#gradient_1)" d="M82.7373 374.686C87.8654 373.145 94.1833 372.769 99.4874 373.724C100.353 373.88 102.812 374.874 103.469 374.77L103.51 375.018C104.091 378.233 105.961 379.734 104.472 383.819C101.935 373.102 81.9111 373.962 86.6606 388.854L87.1544 390.217C83.4691 388.176 81.5754 383.087 81.1787 379.125C80.9677 377.017 81.7578 376.585 82.6214 374.914L82.7373 374.686Z"/>
	<path fill="#E9C588" d="M301.274 364.328C310.495 363.937 330.62 370.212 336.788 376.058L337.591 376.518L337.743 376.883C340.276 384.861 331.751 393.992 324.625 396.15C306.928 401.509 292.571 379.354 301.274 364.328Z"/>
	<path fill="#140F1C" d="M316.569 371.804L316.674 371.807C326.659 371.597 333.781 386.254 321.729 389.461C309.063 391.308 304.062 374.588 316.569 371.804Z"/>
	<path fill="#12C957" d="M488.793 155.13C494.529 164.977 494.326 178.843 491.476 189.437C487.596 203.857 475.406 211.074 463.27 217.991L457.854 220.97L457.803 220C458.585 210.573 473.102 183.431 477.473 173.675L481.288 164.488C482.399 161.728 483.031 159.353 485.357 157.372C486.643 156.718 487.695 156.074 488.793 155.13Z"/>
	<path fill="#B5C6E0" d="M60.5078 320.444L60.5598 320.375C65.6647 318.432 70.4426 315.711 75.5895 313.875C84.0154 310.87 94.9171 311.54 103.708 311.698L103.625 312.134C110.066 316.298 129.508 317.006 137.047 317.511L177.018 318.672C178.736 318.733 180.418 319.034 182.125 319.2L193.201 320.054C204.44 320.69 214.238 319.657 225.026 319.541L253.125 319.428C255.539 319.323 257.959 318.836 260.392 318.724L303.697 318.711C319.433 319.528 346.835 324.701 358.955 336.089C360.05 337.118 361.915 339.71 363.239 340.119L363.407 339.565C364.634 345.247 367.785 367.878 364.562 373.173C362.921 375.869 359.992 378.015 358.116 380.659C357.954 380.889 357.132 382.254 356.968 382.313L356.789 382.128C356.071 381.517 355.731 381.129 354.791 380.906C354.741 380.503 354.925 379.813 354.959 379.375L355.199 375.125C355.29 369.781 352.133 363.835 349.448 359.376C330.515 327.935 289.176 333.315 280.603 370.733L253.397 372.163L202.072 372.268L169 370.573L152.747 370.39C144.033 370.35 139.22 369.311 136.423 379.245L136.169 378.529C133.306 376.931 133.562 377.675 133.053 379.403C133.278 372.571 133.16 367.224 129.473 361.25C117.779 342.306 92.211 337.159 73.625 349.297C64.581 355.203 60.5486 363.477 58.3512 373.719L55.4342 373.192C45.6462 371.273 40.7058 362.492 42.724 352.996C44.0344 351.113 47.742 343.893 48.875 341.584C52.037 335.14 53.6444 327.578 58.8228 322.321C59.4126 321.723 60.2802 321.284 60.5078 320.444Z"/>
	<path fill="#140F1C" d="M177.223 326.34C178.758 326.143 180.402 326.242 181.949 326.242C205.401 326.243 206.049 342.64 192.648 343.942L181.153 343.964C178.974 343.963 176.627 344.127 174.475 343.744C165.82 342.2 165.534 327.993 177.223 326.34Z"/>
	<path fill="#9EF065" d="M398.633 63.7067C414.646 56.014 427.2 56.3881 443.836 58.5582C469.419 65.128 489.593 82.1184 481.618 111.165C480.541 115.09 478.73 118.578 477.998 122.625L478.429 123.148L477.875 123.377C475.19 132.111 477.238 140.67 483.101 147.474C485.264 149.804 487.51 152.173 488.793 155.13C487.695 156.074 486.643 156.718 485.357 157.372C483.031 159.353 482.399 161.728 481.288 164.488L477.473 173.675C473.102 183.431 458.585 210.573 457.803 220L457.854 220.97C446.601 228.866 434.066 234.682 421.951 241.095L413.811 245.453C412.228 246.296 410.536 247.343 408.817 247.831L410.453 227.89C424.771 224.178 438.941 209.391 448.132 198.685C450.427 196.011 460.134 185.769 459.269 182.013C457.759 175.451 451.674 174.257 446.086 175.918C443.919 177.01 442.026 178.187 440.25 179.854C431.589 190.048 423.127 202.212 411.715 209.426L420.76 112.56C420.968 100.389 406.339 100.661 404.521 110.526C403.575 115.659 403.413 121.03 402.918 126.226L397.162 185.125C396.953 188.859 396.659 192.549 396.944 196.291L377.464 162.099C376.215 159.964 375.05 157.745 373.623 155.724C367.316 146.787 355.831 151.771 358.598 161.585L358.722 162C359.972 166.302 362.453 170.412 364.667 174.283L390.816 219.263C393.032 222.927 393.668 224.213 393.446 228.424L392.277 246.786L347.123 206.287L336.052 193.505C328.553 184.039 321.701 173.096 322.011 160.571C322.317 159.829 322.289 158.969 322.341 158.177C323.037 158.47 323.74 158.815 324.505 158.859L325 159.375C324.778 159.894 324.796 160.113 324.812 160.664C325.691 158.291 325.918 155.511 326.393 153.022C329.93 134.466 347.353 116.32 365.621 111.362C367.619 110.696 369.882 110.381 371.947 109.939C371.474 108.724 369.411 107.76 370.568 106.218L370.686 105.219C376.092 102.527 375.366 94.6081 376.671 89.603C379.844 77.4301 387.124 66.1962 396.004 57.439C396.885 58.0495 397.065 58.0485 398.148 58.0837C398.418 59.6293 395.83 62.5306 394.72 63.8335L394 65.25L395.148 64.4609C395.85 64.3205 396.867 63.6305 397.5 63.25L398.71 62.5625L398.633 63.7067ZM396.004 57.439C387.124 66.1962 379.844 77.4301 376.671 89.603C375.366 94.6081 376.092 102.527 370.686 105.219L370.568 106.218C369.411 107.76 371.474 108.724 371.947 109.939L374.116 109.109C381.296 105.639 378.726 100.156 378.831 93.9984C379.021 82.8219 388.716 68.5456 398.633 63.7067L398.71 62.5625L397.5 63.25C396.867 63.6305 395.85 64.3205 395.148 64.4609L394 65.25L394.72 63.8335C395.83 62.5306 398.418 59.6293 398.148 58.0837C397.065 58.0485 396.885 58.0495 396.004 57.439Z"/>
	<path fill="#A3F49C" d="M483.101 147.474C485.264 149.804 487.51 152.173 488.793 155.13C487.695 156.074 486.643 156.718 485.357 157.372L483.607 156.337C479.316 153.622 480.231 151.169 483.101 147.474Z"/>
	<defs>
		<linearGradient id="gradient_2" gradientUnits="userSpaceOnUse" x1="444.02701" y1="176.19901" x2="436.383" y2="172.064">
			<stop offset="0" stop-color="#D0FDB8"/>
			<stop offset="1" stop-color="#F3F7E0"/>
		</linearGradient>
	</defs>
	<path fill="url(#gradient_2)" d="M440.25 179.854L440.06 179.741C438.836 178.972 436.601 175.587 436.307 174.121C434.979 167.509 442.118 167.561 442.558 171.791C442.63 172.479 442.066 173.553 442.091 174.416L442.703 174.375C444.208 174.147 445.232 174.586 446.086 175.918C443.919 177.01 442.026 178.187 440.25 179.854Z"/>
</svg>
