<?xml version="1.0" encoding="utf-8" ?>
<svg xmlns="http://www.w3.org/2000/svg" xmlns:xlink="http://www.w3.org/1999/xlink" width="1866" height="1492">
	<path transform="scale(2.91563 2.91563)" d="M208.626 2.28652C227.206 1.21888 246.348 21.9139 258.44 33.5808C263.379 38.3469 268.679 42.7108 273.088 47.9967L364.844 43.3119L451.778 40.6243C485.358 40.6359 512.518 41.8703 545.477 47.8114C571.524 52.5066 574.57 57.8803 588.665 81.6374L614.309 131.586L628.854 169.351C635.173 187.068 646.136 212.365 626.188 225.61C624.599 226.665 622.774 226.934 621.287 228.142L620.356 287.056L616.514 337.012C615.677 351.795 616.157 366.97 616.262 381.789C616.438 406.324 621.193 430.657 621.247 455.165C621.31 483.234 611.987 504.312 582.813 509.553C577.865 510.442 572.318 510.022 567.3 510.025L441.719 510.023L68.9801 510.025C64.6121 510.024 59.9683 510.331 55.625 509.834C24.1421 506.236 24.2845 463.435 23.3123 439.605C23.169 436.091 22.5339 432.673 22.4097 429.172L22.398 333.45C22.4669 330.007 23.38 326.609 23.4211 323.223L23.541 261.001C23.5758 257.699 24.1194 254.431 24.2255 251.155L24.2207 221.536C13.608 221.585 3.54724 213.345 2.28469 202.474L2.21404 201.865C0.880425 190.519 2.09014 181.802 9.44034 172.569C17.0059 163.065 25.9914 154.451 34.295 145.583C60.5058 117.589 88.1369 91.0193 117.039 65.8167L168.375 23.5947C180.321 14.3731 193.101 4.01958 208.626 2.28652ZM47.9733 216.282C59.3162 216.942 70.9053 216.486 82.2739 216.492L164.016 216.533C167.29 216.535 176.379 214.844 176.545 218.886C187.363 217.067 198.444 217.776 209.302 218.52C207.837 214.933 225.515 216.995 228.345 217.019L351.433 216.511C350.477 205.853 338.828 195.035 332.275 187.216L264.767 107.002C256.148 96.9276 222.21 56.0336 210.366 52.4288C194.595 56.2535 141.198 110.737 129.007 123.118L72.8103 181.512C64.772 190.096 48.9727 204.186 47.9733 216.282ZM30.6216 198.571C32.7473 197.927 34.9731 195.452 36.5653 193.954L112.181 118.187L168.154 67.5336C178.433 58.7077 188.335 49.4652 200.004 42.4406L199.219 41.5726C200.615 39.0391 207.977 35.7531 210.558 35.5006C223.322 36.6526 242.069 58.4502 249.906 67.462C250.364 67.8084 250.87 68.1346 251.259 68.5568L254.553 72.2051C255.76 73.743 257.668 74.7132 259.034 76.1935L267.464 84.0552C270.957 87.4396 273.607 90.2601 277.774 92.8703L279.06 92.9372C277.78 92.4107 276.162 91.4234 275.078 90.569C276.794 86.9645 279.109 91.3157 280.696 92.7554L281.061 92.3309L291.723 102.505L292.304 102.397C293.265 102.008 294.036 102.16 295.002 101.911L295.393 100.806L247.978 51.1299C239.339 42.3326 219.729 17.5305 206.423 22.7081C193.093 27.8954 182.149 39.963 171.368 48.9182L120.403 94.4893L63.1915 149.762L29.2405 185.242C27.3475 186.978 25.4971 188.437 24.1581 190.672L24.2771 190.969C25.4151 193.916 24.6456 198.463 28.9063 199.36C29.4252 199.111 30.0701 198.695 30.6216 198.571ZM297.201 73.5988L336.963 72.3531C339.591 72.2422 342.186 71.7444 344.819 71.6635L385.156 71.1678C387.975 71.0795 390.777 70.41 393.645 70.3421L518.75 70.3099C529.112 70.6458 548.441 70.7497 555.157 77.2451C556.365 78.4133 559.97 83.7912 561.06 83.9898C558.152 76.8094 555.55 66.3941 549.871 60.8084C545.065 59.7637 540.143 59.372 535.248 59.0069L462.914 58.4028C459.955 58.4959 457.032 59.0516 454.089 59.1725L437.579 59.4484L368.817 62.7786L291.387 68.5945L297.201 73.5988ZM210.558 35.5006C207.496 38.78 211.307 36.929 214.666 39.5095C223.298 42.8192 229.537 49.178 235.999 55.541L247.806 67.5046L249.906 67.462C242.069 58.4502 223.322 36.6526 210.558 35.5006Z"/>
	<path fill="#FFABA7" transform="scale(2.91563 2.91563)" d="M200.004 42.4406L199.219 41.5726C200.615 39.0391 207.977 35.7531 210.558 35.5006C207.496 38.78 211.307 36.929 214.666 39.5095C208.99 38.6942 205.06 39.7956 200.004 42.4406Z"/>
	<path fill="white" transform="scale(2.91563 2.91563)" d="M362.31 488.1C365.493 488.114 369.17 488.542 372.508 488.604L390.781 488.708C393.375 488.813 395.89 489.345 398.511 489.389L425.087 489.449C429.492 489.456 434.02 489.241 438.401 489.639L438.411 495.737C436.72 496.221 434.689 496.021 432.935 496.021L366.636 495.977C365.261 495.969 363.193 496.207 361.912 495.791L362.31 488.1Z"/>
	<path fill="#B5C6E0" transform="scale(2.91563 2.91563)" d="M249.906 67.462C250.364 67.8084 250.87 68.1346 251.259 68.5568L254.553 72.2051C255.76 73.743 257.668 74.7132 259.034 76.1935L267.464 84.0552C270.957 87.4396 273.607 90.2601 277.774 92.8703L279.06 92.9372C277.78 92.4107 276.162 91.4234 275.078 90.569C276.794 86.9645 279.109 91.3157 280.696 92.7554L281.061 92.3309L291.723 102.505L292.304 102.397C293.265 102.008 294.036 102.16 295.002 101.911L295.393 100.806L302.788 108.55C303.537 109.334 304.909 110.425 305.389 111.372C308.224 113.457 310.839 116.881 313.274 119.475L383.422 192.552C384.689 193.931 385.774 195.344 386.686 196.98C384.993 203.387 376.398 211.289 370.148 205.67C366.242 202.158 362.672 198.053 359.078 194.221L273.339 95.9947L256.37 76.8277L247.806 67.5046L249.906 67.462Z"/>
	<path fill="#EBF4F5" transform="scale(2.91563 2.91563)" d="M295.393 100.806L302.788 108.55C303.537 109.334 304.909 110.425 305.389 111.372L305.403 112.155C304.366 111.472 302.059 109.303 301.553 108.19C300.876 106.697 298.637 107.977 299.548 109.343L299.688 109.558C300.675 109.845 301.374 110.527 301.484 111.587C300.711 111.587 292.738 103.499 291.723 102.505L292.304 102.397C293.265 102.008 294.036 102.16 295.002 101.911L295.393 100.806Z"/>
	<defs>
		<linearGradient id="gradient_0" gradientUnits="userSpaceOnUse" x1="117.94" y1="96.148499" x2="177.033" y2="172.73399">
			<stop offset="0" stop-color="#FF4F5E"/>
			<stop offset="1" stop-color="#FCB5BC"/>
		</linearGradient>
	</defs>
	<path fill="url(#gradient_0)" transform="scale(2.91563 2.91563)" d="M30.6216 198.571C34.0326 190.996 39.6516 186.131 45.0394 179.952C65.3514 156.656 87.8715 135.353 110.051 113.867L179.08 50.3531C185.786 44.3577 201.876 28.942 211.133 29.2293C225.538 29.6764 248.258 57.9309 257.242 67.862L281.061 92.3309L280.696 92.7554C279.109 91.3157 276.794 86.9645 275.078 90.569C276.162 91.4234 277.78 92.4107 279.06 92.9372L277.774 92.8703C273.607 90.2601 270.957 87.4396 267.464 84.0552L259.034 76.1935C257.668 74.7132 255.76 73.743 254.553 72.2051L251.259 68.5568C250.87 68.1346 250.364 67.8084 249.906 67.462C242.069 58.4502 223.322 36.6526 210.558 35.5006C207.977 35.7531 200.615 39.0391 199.219 41.5726L200.004 42.4406C188.335 49.4652 178.433 58.7077 168.154 67.5336L112.181 118.187L36.5653 193.954C34.9731 195.452 32.7473 197.927 30.6216 198.571Z"/>
	<path fill="#B5C6E0" transform="scale(2.91563 2.91563)" d="M366.802 354.569C369.064 356.188 382.46 353.963 386.1 354.195C387.463 354.282 386.774 352.593 387.016 351.457L387.084 351.153C387.301 358.663 392.768 361.801 399.877 361.581L412.766 361.152C427.727 360.861 436.092 364.085 436.566 380.192L439.099 423.915L439.133 487.818C439.123 490.325 439.39 493.272 439.042 495.737L438.401 489.639C434.02 489.241 429.492 489.456 425.087 489.449L398.511 489.389C395.89 489.345 393.375 488.813 390.781 488.708L372.508 488.604C369.17 488.542 365.493 488.114 362.195 488.553L366.802 354.569Z"/>
	<path transform="scale(2.91563 2.91563)" d="M400.653 409.832C422.139 407.524 428.455 432.288 407.906 437.382C385.545 440.49 378.998 415.046 400.653 409.832Z"/>
	<path fill="#B5C6E0" transform="scale(2.91563 2.91563)" d="M47.9733 216.282C48.9727 204.186 64.772 190.096 72.8103 181.512L129.007 123.118C141.198 110.737 194.595 56.2535 210.366 52.4288C222.21 56.0336 256.148 96.9276 264.767 107.002L332.275 187.216C338.828 195.035 350.477 205.853 351.433 216.511L228.345 217.019C225.515 216.995 207.837 214.933 209.302 218.52C198.444 217.776 187.363 217.067 176.545 218.886C176.379 214.844 167.29 216.535 164.016 216.533L82.2739 216.492C70.9053 216.486 59.3162 216.942 47.9733 216.282ZM205.16 102.634C166.061 107.411 171.13 165.228 211.155 161.81C250.252 156.123 244.485 98.8292 205.313 102.599L205.16 102.634Z"/>
	<path transform="scale(2.91563 2.91563)" d="M205.16 102.634L205.313 102.599C244.485 98.8292 250.252 156.123 211.155 161.81C171.13 165.228 166.061 107.411 205.16 102.634ZM207.171 120.401C191.06 123.789 193.38 144.078 210.077 143.491C225.583 140.185 222.37 119.623 207.171 120.401Z"/>
	<path fill="#FB5F73" transform="scale(2.91563 2.91563)" d="M297.201 73.7499L336.963 72.3531C339.591 72.2422 342.186 71.7444 344.819 71.6635L385.156 71.1678C387.975 71.0795 390.777 70.41 393.645 70.3421L518.75 70.3099C529.112 70.6458 548.441 70.7497 555.157 77.2451C556.365 78.4133 559.97 83.7912 561.06 83.9898L588.537 138.995C593.205 149.222 613.116 193.2 610.608 203.813C608.46 205.779 600.065 204.675 597.248 204.679L530.71 204.55C527.768 204.461 525.021 203.516 522.113 203.449L484.506 203.34C481.445 203.284 478.488 202.708 475.469 202.611L434.674 202.513C431.193 202.493 427.817 201.961 424.375 201.882L404.259 201.875C408.198 191.665 401.076 184.018 394.772 177.153L306.585 84.6149C303.381 81.0937 299.964 77.6321 297.201 73.7499Z"/>
	<path transform="scale(2.91563 2.91563)" d="M474.326 174.298L524.67 174.315C528.24 174.316 553.762 171.301 544.531 180.993C541.405 181.916 536.625 181.27 533.305 181.244C525.455 181.243 465.652 181.935 463.354 180.424C461.043 178.904 461.22 176.556 462.969 174.633C464.265 174.199 465.723 174.332 467.081 174.323L474.326 174.298Z"/>
	<path fill="#EBF4F5" transform="scale(2.91563 2.91563)" d="M47.5998 216.052C59.3162 216.942 70.9053 216.486 82.2739 216.492L164.016 216.533C167.29 216.535 176.379 214.844 176.545 218.886C116.777 227.581 72.4516 275.346 70.1368 335.688C69.3601 355.935 74.5174 374.81 80.9305 393.898C89.8841 420.547 99.0807 433.221 128.303 435.157C129.549 435.239 132.493 435.068 133.498 435.64C132.969 441.514 132.817 447.518 136.854 452.285C145.462 462.452 181.329 460.365 194.307 460.362C207.099 460.36 249.285 463.372 250.645 443.389L250.693 434.756C255.899 434.753 261.236 434.959 266.399 434.219C290.276 430.793 298.44 411.455 305.072 391.84C309.409 379.012 313.534 366.714 315.354 353.211C324.536 285.112 276.469 226.612 209.302 218.809C207.837 214.933 225.515 216.995 228.345 217.019L351.433 216.511L344.136 496.309L195.436 496.441C192.323 496.485 189.314 497.148 186.25 497.241L160.849 497.309C157.977 497.383 155.18 497.973 152.344 498.068L85.7514 498.166C45.4914 498.123 44.0521 481.838 43.9924 445.06L44.0866 326.009C44.1729 322.86 44.7649 319.763 44.8703 316.642L44.9784 291.729C45.0169 288.561 45.6909 285.521 45.7735 282.399L45.9848 259.217L47.5998 216.052Z"/>
	<path transform="scale(2.91563 2.91563)" d="M176.545 218.886C187.363 217.067 198.444 217.776 209.302 218.756C276.469 226.612 324.536 285.112 315.354 353.211C313.534 366.714 309.409 379.012 305.072 391.84C298.44 411.455 290.276 430.793 266.399 434.219C261.236 434.959 255.899 434.753 250.693 434.756L250.645 443.389C249.285 463.372 207.099 460.36 194.307 460.362C181.329 460.365 145.462 462.452 136.854 452.285C132.817 447.518 132.969 441.514 133.498 435.64C132.493 435.068 129.549 435.239 128.303 435.157C99.0807 433.221 89.8841 420.547 80.9305 393.898C74.5174 374.81 69.3601 355.935 70.1368 335.688C72.4516 275.346 116.777 227.581 176.545 218.886Z"/>
	<path fill="#EBF4F5" transform="scale(2.91563 2.91563)" d="M190.106 436.665L193.204 436.862C195.374 437.126 196.649 438.598 195.156 440.712L189.994 440.97L190.106 436.665Z"/>
	<path fill="#B5C6E0" transform="scale(2.91563 2.91563)" d="M163.944 414.007L165.156 413.8C166.217 414.939 166.458 416.53 166.754 418.009L170.423 436.005C170.778 437.494 170.953 439.17 171.742 440.498L160.581 440.574C158.051 440.117 154.693 440.34 152.025 440.132C152.557 433.472 157.677 417.853 163.944 414.007Z"/>
	<path fill="#B5C6E0" transform="scale(2.91563 2.91563)" d="M217.296 409.944L217.722 409.826C227.396 408.215 232.011 432.798 232.179 439.277L228.68 440.094L214.448 441.396L216.487 416.335C216.664 414.246 216.591 411.928 217.296 409.944Z"/>
	<path fill="white" transform="scale(2.91563 2.91563)" d="M191.915 234.879C240.924 233.585 286.374 266.086 296.061 315.169C299.098 330.559 300.5 349.519 291.032 363.029C284.036 373.011 282.44 372.44 281.188 384.733C279.101 405.242 273.909 417.896 251.918 416.688C249.025 416.529 248.759 416.102 247.358 413.735L244.418 409.162C237.8 399.598 226.349 389.93 213.889 392.216C195.65 395.563 201.341 414.644 199.291 417.594L196.511 417.63L185.282 417.802L185.017 412.775C184.074 401.233 175.31 392.507 163.452 393.709C145.132 395.565 146.504 415.361 132.805 416.529C111.954 418.308 107.032 402.239 105.243 384.435C104.407 376.109 103.973 375.334 98.7709 368.684C76.7105 340.481 92.7659 295.426 113.86 271.486C133.743 248.919 162.239 236.782 191.915 234.879Z"/>
	<path fill="#B5C6E0" transform="scale(2.91563 2.91563)" d="M268.649 391.896C269.114 390.666 269.522 389.53 269.713 388.22L269.788 387.72C270.56 382.345 267.831 374.212 271.907 370.193C273.908 368.22 276.174 366.53 278.281 364.672L278.375 365.015C276.211 367.007 273.847 369.02 272.04 371.341L271.848 371.582C270.915 372.87 271.555 386.362 269.781 392.424C265.681 404.078 254.095 404.148 243.594 405.01L250.156 403.792C258.175 402.245 264.092 398.674 268.649 391.896Z"/>
	<path fill="#EBF4F5" transform="scale(2.91563 2.91563)" d="M99.2271 323.673L99.6926 323.829C99.7938 324.729 99.4871 325.032 99.3378 325.858C98.2793 331.711 99.2448 337.722 101.102 343.313C105.382 356.203 118.517 365.959 120.863 372.577C122.256 376.505 117.437 387.196 121.524 395.409L121.733 395.834C124.991 402.095 134.147 404.593 140.284 406.547L139.775 406.747C135.899 408.062 131.256 406.808 127.718 405.066C116.907 399.743 117.776 388.68 117.755 378.499C117.733 367.466 110.752 365.849 105.33 357.431C99.2611 348.01 97.1668 334.753 99.2271 323.673Z"/>
	<path transform="scale(2.91563 2.91563)" d="M191.488 333.253C199.88 332.946 201.511 337.808 206.039 343.99C208.028 346.706 211.106 349.399 212.463 352.43C214.447 356.86 211.686 362.754 207.177 364.338C202.176 366.095 197.041 363.37 192.63 361.259C190.231 363.88 187.949 366.555 185.176 368.795C180.586 372.183 173.519 373.715 168.366 370.794C155.071 363.258 172.34 353.887 176.306 349.427C181.32 343.789 183.373 335.128 191.488 333.253Z"/>
	<path transform="scale(2.91563 2.91563)" d="M126.132 296.435C133.659 295.703 138.868 302.509 143.276 307.546C150.951 316.316 162.018 327.534 156.437 340.101C153.408 346.92 146.627 351.647 139.839 354.213C116.109 361.753 108.6 338.804 109.229 320.001C109.615 308.447 113.421 297.958 126.132 296.435Z"/>
	<path transform="scale(2.91563 2.91563)" d="M260.573 296.129L263.606 296.335C268.839 297.079 273.077 300.835 276.031 304.997C288.149 322.071 276.006 360.872 246.176 355.645C236.129 353.412 226.738 344.85 225.376 334.364C223.554 320.346 230.226 318.122 239.751 310.074C245.959 304.829 252.054 297.208 260.573 296.129Z"/>
	<path fill="#EBF4F5" transform="scale(2.91563 2.91563)" d="M367.081 354.615C367.017 352.581 367.339 350.185 367.405 348.139L371.195 259.616L371.34 225.836L598.515 230.92L598.381 451.416C598.498 462.114 599.771 477.997 591.623 486.173C578.363 499.478 533.7 496.391 516.286 496.392L456.449 496.332C456.215 493.534 456.506 490.515 456.538 487.69L456.771 473.428C456.897 471.34 457.328 469.272 457.38 467.19L457.372 415.807C457.308 413.024 456.71 410.333 456.659 407.556L455.923 378.686C455.04 363.137 452.618 352.231 436.09 344.916C434.417 344.175 432.644 343.821 430.977 343.136L430.554 342.964C424.047 340.836 415.194 341.916 408.468 341.93C399.597 341.949 390.269 339.823 387.219 350.667L387.084 351.153L387.016 351.457C386.774 352.593 387.463 354.282 386.1 354.195C382.46 353.963 369.064 356.188 367.081 354.615Z"/>
	<path transform="scale(2.91563 2.91563)" d="M522.738 283.577C528.274 282.845 536.886 284.786 538.222 291.264L538.281 291.576C551.618 294.652 569.312 285.161 569.374 306.17L569.149 343.945C569.049 346.619 568.455 349.222 568.34 351.851C567.433 372.649 569.738 377.503 544.65 377.563L520.217 377.599L498.111 377.655C483.406 377.679 475.633 378.038 475.775 361.569L475.995 348.743C476.117 346.61 476.54 344.542 476.57 342.391L476.661 316.66C476.671 309.331 475.533 300.389 479.801 293.933C486.662 283.555 507.326 292.454 510.669 291.288C511.74 290.914 514.102 285.413 522.738 283.577Z"/>
	<path fill="#B5C6E0" transform="scale(2.91563 2.91563)" d="M532.361 309.777L552.361 310.317L550.983 359.144L531.403 359.38L532.361 309.777Z"/>
	<path fill="#B5C6E0" transform="scale(2.91563 2.91563)" d="M494.33 306.89L514.959 308.761L513.754 359.478L493.986 359.367C493.69 358.643 493.912 357.745 493.975 356.965L494.33 306.89Z"/>
</svg>
